{
.appVersion = "3151";
.formatVersion = 3;
customParameters = (
{
name = vendorID;
value = COMM;
},
{
name = panose;
value = (
2,
13,
2,
4,
3,
5,
2,
12,
2,
3
);
},
{
name = unicodeRanges;
value = (
0,
1,
2
);
},
{
name = codePageRanges;
value = (
"1252",
"1250",
"1254",
"1257",
"bit 29"
);
},
{
name = fsType;
value = (
2
);
},
{
name = "Family Alignment Zones";
value = (
{
pos = 715;
size = 11;
},
{
pos = 685;
size = 15;
},
{
pos = 517;
size = 9;
},
{
pos = 0;
size = "-12";
},
{
pos = "-156";
size = "-21";
}
);
},
{
name = glyphOrder;
value = (
.notdef,
Eth,
eth,
Lslash,
lslash,
Scaron,
scaron,
Yacute,
yacute,
Thorn,
thorn,
Zcaron,
zcaron,
onehalf,
onequarter,
onesuperior,
threequarters,
threesuperior,
twosuperior,
brokenbar,
minus,
multiply,
space,
exclam,
quotedbl,
numbersign,
dollar,
percent,
ampersand,
quotesingle,
parenleft,
parenright,
asterisk,
plus,
comma,
hyphen,
period,
slash,
zero,
one,
two,
three,
four,
five,
six,
seven,
eight,
nine,
colon,
semicolon,
less,
equal,
greater,
question,
at,
A,
B,
C,
D,
E,
F,
G,
H,
I,
J,
K,
L,
M,
N,
O,
P,
Q,
R,
S,
T,
U,
V,
W,
X,
Y,
Z,
bracketleft,
backslash,
bracketright,
asciicircum,
underscore,
grave,
a,
b,
c,
d,
e,
f,
g,
h,
i,
j,
k,
l,
m,
n,
o,
p,
q,
r,
s,
t,
u,
v,
w,
x,
y,
z,
braceleft,
bar,
braceright,
asciitilde,
Adieresis,
Aring,
Ccedilla,
Eacute,
Ntilde,
Odieresis,
Udieresis,
aacute,
agrave,
acircumflex,
adieresis,
atilde,
aring,
ccedilla,
eacute,
egrave,
ecircumflex,
edieresis,
iacute,
igrave,
icircumflex,
idieresis,
ntilde,
oacute,
ograve,
ocircumflex,
odieresis,
otilde,
uacute,
ugrave,
ucircumflex,
udieresis,
dagger,
degree,
cent,
sterling,
section,
bullet,
paragraph,
germandbls,
registered,
copyright,
trademark,
acute,
dieresis,
notequal,
AE,
Oslash,
infinity,
plusminus,
lessequal,
greaterequal,
yen,
mu,
partialdiff,
summation,
product,
pi,
integral,
ordfeminine,
ordmasculine,
Omega,
ae,
oslash,
questiondown,
exclamdown,
logicalnot,
radical,
florin,
approxequal,
Delta,
guillemotleft,
guillemotright,
ellipsis,

glyphs = (
{
glyphname = Eth;
kernLeft = Eth;
kernRight = Eth;
layers = (
{
hints = (
{
horizontal = 1;
place = (0, 28);
place = (0, 28);
type = Stem;
},
{
horizontal = 1;
place = (346, 28);
place = (346, 28);
type = Stem;
},
{
horizontal = 1;
place = (687, 28);
place = (687, 28);
type = Stem;
},
{
place = (600, 32);
place = (600, 32);
type = Stem;
}
);
layerId = m01;
shapes = (
{
closed = 1;
nodes = (
(21,0,l),
(258,0,ls),
(516,0,o),
(632,203,o),
(632,430,cs),
(632,598,o),
(546,715,o),
(365,715,cs),
(158,715,l),
(93,374,l),
(22,374,l),
(17,346,l),
(87,346,l)
);
},
{
closed = 1;
nodes = (
(184,687,l),
(364,687,ls),
(525,687,o),
(600,582,o),
(600,429,cs),
(600,213,o),
(493,28,o),
(257,28,cs),
(57,28,l),
(118,346,l),
(367,346,l),
(373,374,l),
(123,374,l)
);
}
);
width = 643;
}
);
note = Eth;
unicode = 208;
},
{
glyphname = eth;
kernLeft = eth;
kernRight = eth;
layers = (
{
hints = (
{
horizontal = 1;
place = (-10, 26);
place = (-10, 26);
type = Stem;
},
{
horizontal = 1;
place = (501, 25);
place = (501, 25);
type = Stem;
},
{
horizontal = 1;
place = (718, -20);
target = down;
type = TopGhost;
},
{
place = (23, 29);
place = (23, 29);
type = Stem;
},
{
place = (457, 30);
place = (457, 30);
type = Stem;
},
{
horizontal = 1;
place = (688, -20);
target = down;
type = TopGhost;
}
);
layerId = m01;
shapes = (
{
closed = 1;
nodes = (
(215,571,l),
(359,623,l),
(401,573,o),
(435,508,o),
(451,421,c),
(450,421,l),
(425,480,o),
(371,526,o),
(287,526,cs),
(112,526,o),
(23,358,o),
(23,209,cs),
(23,85,o),
(99,-10,o),
(227,-10,cs),
(401,-10,o),
(487,161,o),
(487,332,cs),
(487,471,o),
(441,567,o),
(387,633,c),
(477,666,l),
(469,688,l),
(371,652,l),
(345,680,o),
(319,702,o),
(296,718,c),
(262,712,l),
(290,692,o),
(317,669,o),
(342,642,c),
(207,593,l)
);
},
{
closed = 1;
nodes = (
(111,16,o),
(52,107,o),
(52,211,cs),
(52,350,o),
(134,501,o),
(285,501,cs),
(408,501,o),
(457,399,o),
(457,317,cs),
(457,194,o),
(393,16,o),
(227,16,cs)
);
}
);
width = 512;
}
);
note = eth;
unicode = 240;
},
{
glyphname = Lslash;
layers = (
{
hints = (
{
horizontal = 1;
place = (0, 29);
place = (0, 29);
type = Stem;
},
{
horizontal = 1;
place = (715, -20);
target = down;
type = TopGhost;
},
{
place = (-10, 465);
place = (-10, 465);
type = Stem;
}
);
layerId = m01;
shapes = (
{
closed = 1;
nodes = (
(195,715,l),
(163,715,l),
(80,285,l),
(-4,243,l),
(-10,211,l),
(74,252,l),
(25,0,l),
(450,0,l),
(455,29,l),
(62,29,l),
(108,270,l),
(418,424,l),
(425,457,l),
(115,302,l)
);
}
);
width = 517;
}
);
note = Lslash;
unicode = 321;
},
{
glyphname = lslash;
layers = (
{
hints = (
{
horizontal = 1;
place = (0, 21);
target = up;
type = BottomGhost;
},
{
horizontal = 1;
place = (715, -20);
target = down;
type = TopGhost;
},
{
place = (9, 207);
place = (9, 207);
type = Stem;
}
);
layerId = m01;
shapes = (
{
closed = 1;
nodes = (
(216,473,l),
(130,411,l),
(189,715,l),
(159,715,l),
(95,385,l),
(16,329,l),
(9,294,l),
(88,350,l),
(20,0,l),
(50,0,l),
(123,375,l),
(209,437,l)
);
}
);
width = 169;
}
);
note = lslash;
unicode = 322;
},
{
glyphname = Scaron;
kernLeft = Scaron;
kernRight = Scaron;
layers = (
{
hints = (
{
horizontal = 1;
place = (-10, 27);
place = (-10, 27);
type = Stem;
},
{
horizontal = 1;
place = (698, 28);
place = (698, 28);
type = Stem;
},
{
place = (9, 31);
place = (9, 31);
type = Stem;
},
{
place = (92, 31);
place = (92, 31);
type = Stem;
},
{
place = (489, 32);
place = (489, 32);
type = Stem;
},
{
place = (523, 30);
place = (523, 30);
type = Stem;
},
{
horizontal = 1;
place = (755, 20);
place = (755, 20);
type = Stem;
}
);
layerId = m01;
shapes = (
{
closed = 1;
nodes = (
(9,229,l),
(9,63,o),
(127,-10,o),
(269,-10,cs),
(408,-10,o),
(521,65,o),
(521,198,cs),
(521,314,o),
(436,346,o),
(295,395,cs),
(177,436,o),
(123,468,o),
(123,546,cs),
(123,644,o),
(203,698,o),
(318,698,cs),
(447,698,o),
(517,630,o),
(523,526,c),
(553,526,l),
(548,650,o),
(465,726,o),
(318,726,cs),
(187,726,o),
(92,657,o),
(92,546,cs),
(92,450,o),
(154,412,o),
(287,366,cs),
(423,319,o),
(489,290,o),
(489,198,cs),
(489,77,o),
(389,17,o),
(270,17,cs),
(140,17,o),
(40,84,o),
(40,229,c)
);
},
{
closed = 1;
nodes = (
(321,755,l),
(357,755,l),
(465,858,l),
(430,858,l),
(342,775,l),
(341,775,l),
(277,858,l),
(244,858,l)
);
}
);
width = 565;
}
);
note = Scaron;
unicode = 352;
},
{
glyphname = scaron;
kernLeft = scaron;
kernRight = scaron;
layers = (
{
hints = (
{
horizontal = 1;
place = (-10, 26);
place = (-10, 26);
type = Stem;
},
{
horizontal = 1;
place = (499, 27);
place = (499, 27);
type = Stem;
},
{
horizontal = 1;
place = (599, 20);
place = (599, 20);
type = Stem;
},
{
place = (0, 30);
place = (0, 30);
type = Stem;
},
{
place = (61, 29);
place = (61, 29);
type = Stem;
},
{
place = (352, 29);
place = (352, 29);
type = Stem;
},
{
place = (376, 28);
place = (376, 28);
type = Stem;
}
);
layerId = m01;
shapes = (
{
closed = 1;
nodes = (
(232,599,l),
(268,599,l),
(371,704,l),
(336,704,l),
(253,619,l),
(252,619,l),
(194,704,l),
(161,704,l)
);
},
{
closed = 1;
nodes = (
(0,154,l),
(2,49,o),
(84,-10,o),
(195,-10,cs),
(300,-10,o),
(381,42,o),
(381,138,cs),
(381,217,o),
(328,245,o),
(229,282,cs),
(134,317,o),
(90,339,o),
(90,398,cs),
(90,470,o),
(154,499,o),
(229,499,cs),
(313,499,o),
(369,457,o),
(376,380,c),
(404,380,l),
(398,470,o),
(332,526,o),
(230,526,cs),
(139,526,o),
(61,483,o),
(61,398,cs),
(61,321,o),
(117,292,o),
(213,257,cs),
(309,221,o),
(352,198,o),
(352,138,cs),
(352,54,o),
(284,16,o),
(196,16,cs),
(93,16,o),
(34,68,o),
(30,154,c)
);
}
);
width = 428;
}
);
note = scaron;
unicode = 353;
},
{
glyphname = Yacute;
kernLeft = Yacute;
kernRight = Yacute;
layers = (
{
hints = (
{
horizontal = 1;
place = (0, 21);
target = up;
type = BottomGhost;
},
{
horizontal = 1;
place = (715, -20);
target = down;
type = TopGhost;
},
{
place = (81, 555);
place = (81, 555);
type = Stem;
}
);
layerId = m01;
shapes = (
{
closed = 1;
nodes = (
(115,715,l),
(81,715,l),
(274,324,l),
(211,0,l),
(242,0,l),
(305,321,l),
(636,715,l),
(600,715,l),
(295,350,l),
(294,350,l)
);
},
{
closed = 1;
nodes = (
(351,755,l),
(379,755,l),
(459,867,l),
(420,867,l)
);
}
);
width = 552;
}
);
note = Yacute;
unicode = 221;
},
{
glyphname = yacute;
kernLeft = yacute;
kernRight = yacute;
layers = (
{
hints = (
{
horizontal = 1;
place = (-169, 28);
place = (-169, 28);
type = Stem;
},
{
horizontal = 1;
place = (517, -20);
target = down;
type = TopGhost;
},
{
horizontal = 1;
place = (721, -20);
target = down;
type = TopGhost;
},
{
place = (-16, 494);
place = (-16, 494);
type = Stem;
},
{
horizontal = 1;
place = (-161, 20);
place = (-161, 20);
type = Stem;
},
{
horizontal = 1;
place = (594, 127);
place = (594, 127);
type = Stem;
}
);
layerId = m01;
shapes = (
{
closed = 1;
nodes = (
(478,517,l),
(447,517,l),
(257,166,ls),
(223,102,o),
(192,42,o),
(192,42,c),
(191,42,l),
(191,42,o),
(178,106,o),
(164,169,cs),
(83,517,l),
(52,517,l),
(172,8,l),
(136,-58,ls),
(100,-122,o),
(74,-141,o),
(34,-141,cs),
(13,-141,o),
(1,-137,o),
(-8,-133,c),
(-10,-133,l),
(-16,-161,l),
(-5,-165,o),
(10,-169,o),
(33,-169,cs),
(85,-169,o),
(118,-147,o),
(160,-70,cs)
);
},
{
closed = 1;
nodes = (
(251,594,l),
(279,594,l),
(363,721,l),
(324,721,l)
);
}
);
width = 439;
}
);
note = yacute;
unicode = 253;
},
{
glyphname = Thorn;
kernRight = Thorn;
layers = (
{
hints = (
{
horizontal = 1;
place = (0, 21);
target = up;
type = BottomGhost;
},
{
horizontal = 1;
place = (187, 27);
place = (187, 27);
type = Stem;
},
{
horizontal = 1;
place = (546, 29);
place = (546, 29);
type = Stem;
},
{
place = (526, 31);
place = (526, 31);
type = Stem;
},
{
horizontal = 1;
place = (546, 169);
place = (546, 169);
type = Stem;
}
);
layerId = m01;
shapes = (
{
closed = 1;
nodes = (
(293,187,ls),
(450,187,o),
(557,252,o),
(557,402,cs),
(557,460,o),
(538,502,o),
(504,532,cs),
(470,562,o),
(421,575,o),
(361,575,cs),
(156,575,l),
(183,715,l),
(152,715,l),
(14,0,l),
(45,0,l),
(81,187,l)
);
},
{
closed = 1;
nodes = (
(151,546,l),
(360,546,ls),
(461,546,o),
(526,501,o),
(526,400,cs),
(526,265,o),
(425,214,o),
(292,214,cs),
(86,214,l)
);
}
);
width = 562;
}
);
note = Thorn;
unicode = 222;
},
{
glyphname = thorn;
kernRight = thorn;
layers = (
{
hints = (
{
horizontal = 1;
place = (-166, 21);
target = up;
type = BottomGhost;
},
{
horizontal = 1;
place = (-9, 25);
place = (-9, 25);
type = Stem;
},
{
horizontal = 1;
place = (500, 26);
place = (500, 26);
type = Stem;
},
{
horizontal = 1;
place = (715, -20);
target = down;
type = TopGhost;
},
{
place = (59, 15);
place = (59, 15);
type = Stem;
},
{
place = (463, 30);
place = (463, 30);
type = Stem;
}
);
layerId = m01;
shapes = (
{
closed = 1;
nodes = (
(494,438,o),
(425,526,o),
(312,526,cs),
(215,526,o),
(150,472,o),
(108,396,c),
(170,715,l),
(140,715,l),
(-31,-166,l),
(-1,-166,l),
(58,138,l),
(59,138,l),
(75,61,o),
(135,-9,o),
(239,-9,cs),
(411,-9,o),
(493,162,o),
(493,315,cs)
);
},
{
closed = 1;
nodes = (
(463,179,o),
(392,16,o),
(240,16,cs),
(124,16,o),
(74,106,o),
(74,197,cs),
(75,328,o),
(148,500,o),
(308,500,cs),
(412,500,o),
(463,416,o),
(463,315,cs)
);
}
);
width = 516;
}
);
note = thorn;
unicode = 254;
},
{
glyphname = Zcaron;
kernLeft = Zcaron;
kernRight = Zcaron;
layers = (
{
hints = (
{
horizontal = 1;
place = (0, 28);
place = (0, 28);
type = Stem;
},
{
horizontal = 1;
place = (688, 27);
place = (688, 27);
type = Stem;
},
{
horizontal = 1;
place = (755, 20);
place = (755, 20);
type = Stem;
},
{
place = (-21, 620);
place = (-21, 620);
type = Stem;
},
{
horizontal = 1;
place = (688, 170);
place = (688, 170);
type = Stem;
}
);
layerId = m01;
shapes = (
{
closed = 1;
nodes = (
(346,755,l),
(382,755,l),
(490,858,l),
(455,858,l),
(367,775,l),
(366,775,l),
(302,858,l),
(269,858,l)
);
},
{
closed = 1;
nodes = (
(485,28,l),
(22,28,l),
(22,29,l),
(594,686,l),
(599,715,l),
(140,715,l),
(134,688,l),
(555,688,l),
(555,686,l),
(-15,30,l),
(-21,0,l),
(480,0,l)
);
}
);
width = 557;
}
);
note = Zcaron;
unicode = 381;
},
{
glyphname = zcaron;
kernLeft = zcaron;
kernRight = zcaron;
layers = (
{
hints = (
{
horizontal = 1;
place = (0, 27);
place = (0, 27);
type = Stem;
},
{
horizontal = 1;
place = (490, 27);
place = (490, 27);
type = Stem;
},
{
horizontal = 1;
place = (599, 20);
place = (599, 20);
type = Stem;
},
{
place = (-21, 455);
place = (-21, 455);
type = Stem;
}
);
layerId = m01;
shapes = (
{
closed = 1;
nodes = (
(253,599,l),
(289,599,l),
(392,704,l),
(357,704,l),
(274,619,l),
(273,619,l),
(215,704,l),
(182,704,l)
);
},
{
closed = 1;
nodes = (
(-21,0,l),
(346,0,l),
(351,27,l),
(22,27,l),
(22,28,l),
(429,492,l),
(434,517,l),
(96,517,l),
(90,490,l),
(389,490,l),
(389,489,l),
(-16,27,l)
);
}
);
width = 420;
}
);
note = zcaron;
unicode = 382;
},
{
glyphname = onehalf;
layers = (
{
hints = (
{
horizontal = 1;
place = (0, 25);
place = (0, 25);
type = Stem;
},
{
horizontal = 1;
place = (388, 25);
place = (388, 25);
type = Stem;
},
{
horizontal = 1;
place = (617, 23);
place = (617, 23);
type = Stem;
},
{
horizontal = 1;
place = (718, -20);
target = down;
type = TopGhost;
},
{
place = (686, 30);
place = (686, 30);
type = Stem;
},
{
horizontal = 1;
place = (715, -20);
target = down;
type = TopGhost;
}
);
layerId = m01;
shapes = (
{
closed = 1;
nodes = (
(668,25,l),
(432,25,l),
(450,94,o),
(510,126,o),
(582,161,cs),
(659,198,o),
(716,231,o),
(716,306,cs),
(716,375,o),
(662,413,o),
(595,413,cs),
(516,413,o),
(462,360,o),
(449,275,c),
(477,275,l),
(490,345,o),
(528,388,o),
(594,388,cs),
(650,388,o),
(686,358,o),
(686,305,cs),
(686,239,o),
(636,214,o),
(568,181,cs),
(485,141,o),
(414,102,o),
(395,0,c),
(663,0,l)
);
},
{
closed = 1;
nodes = (
(219,718,l),
(198,661,o),
(167,641,o),
(96,640,c),
(92,617,l),
(134,617,o),
(182,626,o),
(201,647,c),
(136,310,l),
(165,310,l),
(244,718,l)
);
},
{
closed = 1;
nodes = (
(33,0,l),
(66,0,l),
(673,715,l),
(639,715,l)
);
}
);
width = 749;
}
);
note = onehalf;
unicode = 189;
},
{
glyphname = onequarter;
layers = (
{
hints = (
{
horizontal = 1;
place = (0, 131);
place = (0, 131);
type = Stem;
},
{
horizontal = 1;
place = (617, 23);
place = (617, 23);
type = Stem;
},
{
horizontal = 1;
place = (718, -20);
target = down;
type = TopGhost;
},
{
place = (43, 640);
place = (43, 640);
type = Stem;
},
{
horizontal = 1;
place = (108, 23);
place = (108, 23);
type = Stem;
},
{
horizontal = 1;
place = (715, -20);
target = down;
type = TopGhost;
}
);
layerId = m01;
shapes = (
{
closed = 1;
nodes = (
(578,0,l),
(598,108,l),
(659,108,l),
(664,131,l),
(603,131,l),
(657,410,l),
(630,410,l),
(365,134,l),
(360,108,l),
(570,108,l),
(550,0,l)
);
},
{
closed = 1;
nodes = (
(575,131,l),
(395,131,l),
(395,132,l),
(620,366,l),
(621,366,l)
);
},
{
closed = 1;
nodes = (
(219,718,l),
(198,661,o),
(167,641,o),
(96,640,c),
(92,617,l),
(134,617,o),
(182,626,o),
(201,647,c),
(136,310,l),
(165,310,l),
(244,718,l)
);
},
{
closed = 1;
nodes = (
(43,0,l),
(76,0,l),
(683,715,l),
(649,715,l)
);
}
);
width = 710;
}
);
note = onequarter;
unicode = 188;
},
{
glyphname = onesuperior;
layers = (
{
hints = (
{
horizontal = 1;
place = (587, 23);
place = (587, 23);
type = Stem;
},
{
horizontal = 1;
place = (688, -20);
target = down;
type = TopGhost;
},
{
place = (80, 152);
place = (80, 152);
type = Stem;
}
);
layerId = m01;
shapes = (
{
closed = 1;
nodes = (
(207,688,l),
(186,631,o),
(155,611,o),
(85,610,c),
(80,587,l),
(122,587,o),
(170,596,o),
(189,617,c),
(124,280,l),
(153,280,l),
(232,688,l)
);
}
);
width = 210;
}
);
note = onesuperior;
unicode = 185;
},
{
glyphname = threequarters;
layers = (
{
hints = (
{
horizontal = 1;
place = (108, 23);
place = (108, 23);
type = Stem;
},
{
horizontal = 1;
place = (301, 25);
place = (301, 25);
type = Stem;
},
{
horizontal = 1;
place = (511, 24);
place = (511, 24);
type = Stem;
},
{
horizontal = 1;
place = (699, 24);
place = (699, 24);
type = Stem;
},
{
place = (54, 27);
place = (54, 27);
type = Stem;
},
{
place = (316, 29);
place = (316, 29);
type = Stem;
},
{
horizontal = 1;
place = (0, 131);
place = (0, 131);
type = Stem;
},
{
place = (329, 28);
place = (329, 28);
type = Stem;
},
{
horizontal = 1;
place = (715, -20);
target = down;
type = TopGhost;
}
);
layerId = m01;
shapes = (
{
closed = 1;
nodes = (
(230,511,ls),
(281,510,o),
(316,481,o),
(316,431,cs),
(316,367,o),
(263,326,o),
(200,326,cs),
(127,326,o),
(85,366,o),
(81,435,c),
(54,435,l),
(58,350,o),
(113,301,o),
(199,301,cs),
(279,301,o),
(345,354,o),
(345,432,cs),
(345,477,o),
(318,510,o),
(281,522,c),
(281,523,l),
(324,537,o),
(357,572,o),
(357,622,cs),
(357,692,o),
(302,723,o),
(241,723,cs),
(162,723,o),
(108,672,o),
(94,596,c),
(121,596,l),
(133,659,o),
(175,699,o),
(240,699,cs),
(288,699,o),
(329,674,o),
(329,621,cs),
(329,565,o),
(285,535,o),
(234,535,cs),
(198,535,l),
(193,511,l)
);
},
{
closed = 1;
nodes = (
(643,0,l),
(663,108,l),
(724,108,l),
(729,131,l),
(668,131,l),
(722,410,l),
(695,410,l),
(430,134,l),
(425,108,l),
(635,108,l),
(615,0,l)
);
},
{
closed = 1;
nodes = (
(640,131,l),
(460,131,l),
(460,132,l),
(685,366,l),
(686,366,l)
);
},
{
closed = 1;
nodes = (
(117,0,l),
(150,0,l),
(757,715,l),
(723,715,l)
);
}
);
width = 781;
}
);
note = threequarters;
unicode = 190;
},
{
glyphname = threesuperior;
layers = (
{
hints = (
{
horizontal = 1;
place = (271, 25);
place = (271, 25);
type = Stem;
},
{
horizontal = 1;
place = (482, 24);
place = (482, 24);
type = Stem;
},
{
horizontal = 1;
place = (670, 24);
place = (670, 24);
type = Stem;
},
{
place = (45, 27);
place = (45, 27);
type = Stem;
},
{
place = (310, 28);
place = (310, 28);
type = Stem;
},
{
place = (323, 28);
place = (323, 28);
type = Stem;
}
);
layerId = m01;
shapes = (
{
closed = 1;
nodes = (
(223,482,ls),
(274,481,o),
(310,452,o),
(310,401,cs),
(310,338,o),
(257,296,o),
(192,296,cs),
(118,296,o),
(76,337,o),
(72,406,c),
(45,406,l),
(48,321,o),
(105,271,o),
(191,271,cs),
(272,271,o),
(338,324,o),
(338,402,cs),
(338,447,o),
(312,480,o),
(274,493,c),
(274,494,l),
(318,507,o),
(351,541,o),
(351,592,cs),
(351,662,o),
(295,694,o),
(233,694,cs),
(153,694,o),
(99,642,o),
(85,565,c),
(111,565,l),
(124,629,o),
(167,670,o),
(232,670,cs),
(281,670,o),
(323,644,o),
(323,591,cs),
(323,535,o),
(279,505,o),
(228,506,cs),
(194,506,l),
(190,482,l)
);
}
);
width = 340;
}
);
note = threesuperior;
unicode = 179;
},
{
glyphname = twosuperior;
layers = (
{
hints = (
{
horizontal = 1;
place = (280, 25);
place = (280, 25);
type = Stem;
},
{
horizontal = 1;
place = (668, 25);
place = (668, 25);
type = Stem;
},
{
place = (316, 30);
place = (316, 30);
type = Stem;
}
);
layerId = m01;
shapes = (
{
closed = 1;
nodes = (
(298,305,l),
(61,305,l),
(80,374,o),
(139,406,o),
(212,441,cs),
(289,478,o),
(345,511,o),
(346,585,cs),
(346,655,o),
(291,693,o),
(224,693,cs),
(146,693,o),
(92,640,o),
(78,554,c),
(106,554,l),
(119,625,o),
(157,668,o),
(223,668,cs),
(280,668,o),
(316,637,o),
(316,585,cs),
(316,519,o),
(266,494,o),
(197,461,cs),
(114,421,o),
(44,381,o),
(25,280,c),
(293,280,l)
);
}
);
width = 312;
}
);
note = twosuperior;
unicode = 178;
},
{
glyphname = brokenbar;
layers = (
{
hints = (
{
horizontal = 1;
place = (-118, 872);
place = (-118, 872);
type = Stem;
},
{
place = (96, 29);
place = (96, 29);
type = Stem;
}
);
layerId = m01;
shapes = (
{
closed = 1;
nodes = (
(96,-118,l),
(125,-118,l),
(125,294,l),
(96,294,l)
);
},
{
closed = 1;
nodes = (
(125,754,l),
(96,754,l),
(96,358,l),
(125,358,l)
);
}
);
width = 180;
}
);
note = brokenbar;
unicode = 166;
},
{
glyphname = minus;
kernLeft = minus;
kernRight = minus;
layers = (
{
hints = (
{
horizontal = 1;
place = (313, 28);
place = (313, 28);
type = Stem;
},
{
place = (61, 418);
place = (61, 418);
type = Stem;
}
);
layerId = m01;
shapes = (
{
closed = 1;
nodes = (
(61,313,l),
(473,313,l),
(479,341,l),
(66,341,l)
);
}
);
width = 514;
}
);
note = minus;
unicode = 8722;
},
{
glyphname = multiply;
layers = (
{
hints = (
{
horizontal = 1;
place = (142, 365);
place = (142, 365);
type = Stem;
},
{
place = (62, 408);
place = (62, 408);
type = Stem;
}
);
layerId = m01;
shapes = (
{
closed = 1;
nodes = (
(115,489,l),
(247,325,l),
(62,162,l),
(80,142,l),
(264,304,l),
(394,143,l),
(415,161,l),
(284,323,l),
(470,487,l),
(452,507,l),
(267,344,l),
(136,507,l)
);
}
);
width = 507;
}
);
note = multiply;
unicode = 215;
},
{
glyphname = exclam;
kernLeft = exclam;
layers = (
{
hints = (
{
horizontal = 1;
place = (0, 66);
place = (0, 66);
type = Stem;
},
{
horizontal = 1;
place = (715, -20);
target = down;
type = TopGhost;
},
{
place = (18, 173);
place = (18, 173);
type = Stem;
}
);
layerId = m01;
shapes = (
{
closed = 1;
nodes = (
(141,456,l),
(191,715,l),
(159,715,l),
(109,458,l),
(59,175,l),
(80,175,l)
);
},
{
closed = 1;
nodes = (
(67,66,l),
(30,66,l),
(18,0,l),
(54,0,l)
);
}
);
width = 174;
}
);
note = exclam;
unicode = 33;
},
{
glyphname = quotedbl;
kernLeft = quotedbl;
kernRight = quotedbl;
layers = (
{
hints = (
{
horizontal = 1;
place = (715, -20);
target = down;
type = TopGhost;
},
{
place = (89, 183);
place = (89, 183);
type = Stem;
},
{
horizontal = 1;
place = (514, 201);
place = (514, 201);
type = Stem;
}
);
layerId = m01;
shapes = (
{
closed = 1;
nodes = (
(158,715,l),
(128,715,l),
(89,514,l),
(119,514,l)
);
},
{
closed = 1;
nodes = (
(272,715,l),
(242,715,l),
(203,514,l),
(233,514,l)
);
}
);
width = 226;
}
);
note = quotedbl;
unicode = 34;
},
{
glyphname = numbersign;
layers = (
{
hints = (
{
horizontal = 1;
place = (0, 21);
target = up;
type = BottomGhost;
},
{
horizontal = 1;
place = (229, 26);
place = (229, 26);
type = Stem;
},
{
horizontal = 1;
place = (443, 26);
place = (443, 26);
type = Stem;
},
{
horizontal = 1;
place = (684, -20);
target = down;
type = TopGhost;
},
{
place = (21, 499);
place = (21, 499);
type = Stem;
}
);
layerId = m01;
shapes = (
{
closed = 1;
nodes = (
(81,443,l),
(186,443,l),
(133,255,l),
(28,255,l),
(21,229,l),
(126,229,l),
(62,0,l),
(91,0,l),
(155,229,l),
(317,229,l),
(253,0,l),
(282,0,l),
(346,229,l),
(450,229,l),
(457,255,l),
(353,255,l),
(406,443,l),
(512,443,l),
(520,469,l),
(413,469,l),
(473,684,l),
(445,684,l),
(385,469,l),
(222,469,l),
(282,684,l),
(253,684,l),
(193,469,l),
(89,469,l)
);
},
{
closed = 1;
nodes = (
(214,443,l),
(377,443,l),
(325,255,l),
(162,255,l)
);
}
);
width = 510;
}
);
note = numbersign;
unicode = 35;
},
{
glyphname = dollar;
layers = (
{
hints = (
{
horizontal = 1;
place = (0, 27);
place = (0, 27);
type = Stem;
},
{
horizontal = 1;
place = (672, 28);
place = (672, 28);
type = Stem;
},
{
place = (4, 30);
place = (4, 30);
type = Stem;
},
{
place = (87, 30);
place = (87, 30);
type = Stem;
},
{
place = (495, 30);
place = (495, 30);
type = Stem;
},
{
place = (455, 31);
place = (455, 31);
type = Stem;
}
);
layerId = m01;
shapes = (
{
closed = 1;
nodes = (
(184,-85,l),
(209,-85,l),
(226,1,l),
(236,0,o),
(246,0,o),
(256,0,cs),
(390,0,o),
(486,74,o),
(486,197,cs),
(486,290,o),
(421,334,o),
(298,374,c),
(355,667,l),
(433,653,o),
(486,604,o),
(495,521,c),
(525,521,l),
(516,620,o),
(452,678,o),
(361,694,c),
(373,757,l),
(348,757,l),
(336,698,l),
(326,699,o),
(316,700,o),
(305,700,cs),
(186,700,o),
(87,635,o),
(87,521,cs),
(87,434,o),
(145,393,o),
(269,352,c),
(206,30,l),
(106,46,o),
(38,111,o),
(34,222,c),
(4,222,l),
(8,97,o),
(88,22,o),
(201,4,c)
);
},
{
closed = 1;
nodes = (
(455,86,o),
(370,27,o),
(256,27,cs),
(247,27,o),
(239,27,o),
(231,28,c),
(293,345,l),
(410,306,o),
(455,269,o),
(455,196,cs)
);
},
{
closed = 1;
nodes = (
(117,622,o),
(203,673,o),
(304,672,cs),
(313,672,o),
(322,671,o),
(331,670,c),
(275,381,l),
(169,416,o),
(117,451,o),
(117,522,cs)
);
}
);
width = 524;
}
);
note = dollar;
unicode = 36;
},
{
glyphname = percent;
kernLeft = percent;
layers = (
{
hints = (
{
horizontal = 1;
place = (0, 21);
target = up;
type = BottomGhost;
},
{
horizontal = 1;
place = (321, 24);
place = (321, 24);
type = Stem;
},
{
horizontal = 1;
place = (685, -20);
target = down;
type = TopGhost;
},
{
place = (73, 29);
place = (73, 29);
type = Stem;
},
{
place = (322, 29);
place = (322, 29);
type = Stem;
},
{
place = (394, 30);
place = (394, 30);
type = Stem;
},
{
place = (643, 30);
place = (643, 30);
type = Stem;
},
{
horizontal = 1;
place = (-10, 25);
place = (-10, 25);
type = Stem;
},
{
horizontal = 1;
place = (333, 25);
place = (333, 25);
type = Stem;
},
{
horizontal = 1;
place = (664, 25);
place = (664, 25);
type = Stem;
}
);
layerId = m01;
shapes = (
{
closed = 1;
nodes = (
(89,0,l),
(120,0,l),
(663,685,l),
(632,685,l)
);
},
{
closed = 1;
nodes = (
(622,-10,o),
(673,111,o),
(673,218,cs),
(673,301,o),
(629,358,o),
(555,358,cs),
(449,358,o),
(394,238,o),
(394,131,cs),
(394,46,o),
(442,-10,o),
(515,-10,cs)
);
},
{
closed = 1;
nodes = (
(456,15,o),
(424,63,o),
(424,132,cs),
(424,221,o),
(464,333,o),
(554,333,cs),
(614,333,o),
(643,284,o),
(643,217,cs),
(643,126,o),
(606,14,o),
(515,15,cs)
);
},
{
closed = 1;
nodes = (
(301,321,o),
(351,442,o),
(351,549,cs),
(351,632,o),
(307,689,o),
(233,689,cs),
(128,689,o),
(73,569,o),
(73,462,cs),
(73,377,o),
(120,321,o),
(193,321,cs)
);
},
{
closed = 1;
nodes = (
(135,346,o),
(102,394,o),
(102,463,cs),
(102,552,o),
(143,664,o),
(233,664,cs),
(292,664,o),
(322,615,o),
(322,548,cs),
(322,457,o),
(284,345,o),
(194,345,cs)
);
}
);
width = 719;
}
);
note = percent;
unicode = 37;
},
{
glyphname = ampersand;
kernLeft = ampersand;
kernRight = ampersand;
layers = (
{
hints = (
{
horizontal = 1;
place = (0, 21);
target = up;
type = BottomGhost;
},
{
horizontal = 1;
place = (679, 27);
place = (679, 27);
type = Stem;
},
{
place = (13, 32);
place = (13, 32);
type = Stem;
},
{
place = (161, 31);
place = (161, 31);
type = Stem;
},
{
place = (403, 32);
place = (403, 32);
type = Stem;
},
{
place = (484, 30);
place = (484, 30);
type = Stem;
},
{
horizontal = 1;
place = (-11, 28);
place = (-11, 28);
type = Stem;
}
);
layerId = m01;
shapes = (
{
closed = 1;
nodes = (
(502,0,l),
(432,112,l),
(475,171,o),
(504,242,o),
(514,320,c),
(484,320,l),
(474,253,o),
(451,190,o),
(417,139,c),
(264,387,l),
(365,434,o),
(435,490,o),
(435,579,cs),
(435,655,o),
(385,706,o),
(306,706,cs),
(218,706,o),
(161,636,o),
(161,557,cs),
(161,500,o),
(187,453,o),
(223,397,c),
(91,337,o),
(13,278,o),
(13,168,cs),
(13,51,o),
(103,-11,o),
(206,-11,cs),
(287,-11,o),
(361,29,o),
(412,88,c),
(468,0,l)
);
},
{
closed = 1;
nodes = (
(117,17,o),
(45,72,o),
(45,168,cs),
(45,272,o),
(126,324,o),
(236,375,c),
(397,113,l),
(352,57,o),
(282,17,o),
(206,17,cs)
);
},
{
closed = 1;
nodes = (
(192,624,o),
(235,679,o),
(305,679,cs),
(368,679,o),
(403,635,o),
(403,578,cs),
(403,501,o),
(343,452,o),
(251,409,c),
(216,463,o),
(192,507,o),
(192,558,cs)
);
}
);
width = 555;
}
);
note = ampersand;
unicode = 38;
},
{
glyphname = quotesingle;
kernLeft = quotedbl;
kernRight = quotedbl;
layers = (
{
hints = (
{
horizontal = 1;
place = (715, -20);
target = down;
type = TopGhost;
},
{
place = (89, 69);
place = (89, 69);
type = Stem;
}
);
layerId = m01;
shapes = (
{
closed = 1;
nodes = (
(158,715,l),
(128,715,l),
(89,514,l),
(119,514,l)
);
}
);
width = 112;
}
);
note = quotesingle;
unicode = 39;
},
{
glyphname = parenleft;
kernRight = parenleft;
layers = (
{
hints = (
{
horizontal = 1;
place = (-118, 872);
place = (-118, 872);
type = Stem;
},
{
place = (71, 32);
place = (71, 32);
type = Stem;
}
);
layerId = m01;
shapes = (
{
closed = 1;
nodes = (
(300,754,l),
(154,594,o),
(68,418,o),
(71,181,cs),
(71,66,o),
(94,-28,o),
(132,-118,c),
(161,-118,l),
(123,-27,o),
(103,69,o),
(103,181,cs),
(103,409,o),
(186,592,o),
(333,754,c)
);
}
);
width = 250;
}
);
note = parenleft;
unicode = 40;
},
{
glyphname = parenright;
kernLeft = parenright;
layers = (
{
hints = (
{
horizontal = 1;
place = (-118, 872);
place = (-118, 872);
type = Stem;
},
{
place = (174, 32);
place = (174, 32);
type = Stem;
}
);
layerId = m01;
shapes = (
{
closed = 1;
nodes = (
(-24,-118,l),
(122,42,o),
(208,218,o),
(206,455,cs),
(205,570,o),
(182,664,o),
(144,754,c),
(116,754,l),
(153,663,o),
(174,567,o),
(174,455,cs),
(174,227,o),
(90,44,o),
(-57,-118,c)
);
}
);
width = 250;
}
);
note = parenright;
unicode = 41;
},
{
glyphname = asterisk;
kernLeft = asterisk;
kernRight = asterisk;
layers = (
{
hints = (
{
horizontal = 1;
place = (452, 259);
place = (452, 259);
type = Stem;
},
{
place = (107, 257);
place = (107, 257);
type = Stem;
}
);
layerId = m01;
shapes = (
{
closed = 1;
nodes = (
(134,454,l),
(225,555,l),
(276,452,l),
(298,464,l),
(248,564,l),
(364,596,l),
(358,618,l),
(338,614,o),
(263,592,o),
(243,587,c),
(267,709,l),
(241,711,l),
(217,588,l),
(118,633,l),
(107,611,l),
(204,567,l),
(117,471,l)
);
}
);
width = 340;
}
);
note = asterisk;
unicode = 42;
},
{
glyphname = plus;
kernLeft = minus;
kernRight = minus;
layers = (
{
hints = (
{
horizontal = 1;
place = (313, 28);
place = (313, 28);
type = Stem;
},
{
place = (61, 418);
place = (61, 418);
type = Stem;
}
);
layerId = m01;
shapes = (
{
closed = 1;
nodes = (
(61,313,l),
(252,313,l),
(212,110,l),
(243,110,l),
(282,313,l),
(473,313,l),
(479,341,l),
(288,341,l),
(327,542,l),
(297,542,l),
(257,341,l),
(66,341,l)
);
}
);
width = 514;
}
);
note = plus;
unicode = 43;
},
{
glyphname = comma;
kernLeft = comma;
kernRight = comma;
layers = (
{
hints = (
{
horizontal = 1;
place = (0, 66);
place = (0, 66);
type = Stem;
},
{
place = (-48, 88);
place = (-48, 88);
type = Stem;
}
);
layerId = m01;
shapes = (
{
closed = 1;
nodes = (
(-48,-108,l),
(-13,-102,o),
(10,-87,o),
(24,-15,cs),
(40,66,l),
(3,66,l),
(-10,0,l),
(4,0,l),
(-9,-73,o),
(-24,-81,o),
(-44,-86,c)
);
}
);
width = 116;
}
);
note = comma;
unicode = 44;
},
{
glyphname = hyphen;
kernLeft = hyphen;
kernRight = hyphen;
layers = (
{
hints = (
{
horizontal = 1;
place = (265, 27);
place = (265, 27);
type = Stem;
},
{
place = (33, 238);
place = (33, 238);
type = Stem;
}
);
layerId = m01;
shapes = (
{
closed = 1;
nodes = (
(33,265,l),
(265,265,l),
(271,292,l),
(38,292,l)
);
}
);
width = 296;
}
);
note = hyphen;
unicode = 45;
},
{
glyphname = period;
kernLeft = comma;
kernRight = comma;
layers = (
{
hints = (
{
horizontal = 1;
place = (0, 66);
place = (0, 66);
type = Stem;
},
{
place = (-8, 49);
place = (-8, 49);
type = Stem;
}
);
layerId = m01;
shapes = (
{
closed = 1;
nodes = (
(41,66,l),
(4,66,l),
(-8,0,l),
(28,0,l)
);
}
);
width = 116;
}
);
note = period;
unicode = 46;
},
{
glyphname = slash;
kernLeft = slash;
kernRight = slash;
layers = (
{
hints = (
{
horizontal = 1;
place = (0, 21);
target = up;
type = BottomGhost;
},
{
horizontal = 1;
place = (715, -20);
target = down;
type = TopGhost;
},
{
place = (-34, 456);
place = (-34, 456);
type = Stem;
}
);
layerId = m01;
shapes = (
{
closed = 1;
nodes = (
(422,715,l),
(390,715,l),
(-34,0,l),
(-1,0,l)
);
}
);
width = 350;
}
);
note = slash;
unicode = 47;
},
{
glyphname = zero;
kernLeft = zero;
kernRight = zero;
layers = (
{
hints = (
{
horizontal = 1;
place = (-10, 28);
place = (-10, 28);
type = Stem;
},
{
horizontal = 1;
place = (669, 27);
place = (669, 27);
type = Stem;
},
{
place = (46, 32);
place = (46, 32);
type = Stem;
},
{
place = (524, 32);
place = (524, 32);
type = Stem;
}
);
layerId = m01;
shapes = (
{
closed = 1;
nodes = (
(479,-10,o),
(556,259,o),
(556,437,cs),
(556,587,o),
(485,696,o),
(345,696,cs),
(130,696,o),
(46,426,o),
(46,250,cs),
(46,97,o),
(120,-10,o),
(262,-10,cs)
);
},
{
closed = 1;
nodes = (
(135,18,o),
(78,121,o),
(78,249,cs),
(78,413,o),
(152,669,o),
(345,669,cs),
(469,669,o),
(525,562,o),
(524,436,cs),
(524,272,o),
(455,18,o),
(262,18,cs)
);
}
);
width = 570;
}
);
note = zero;
unicode = 48;
},
{
glyphname = one;
kernLeft = one;
kernRight = one;
layers = (
{
hints = (
{
horizontal = 1;
place = (0, 21);
target = up;
type = BottomGhost;
},
{
horizontal = 1;
place = (527, 27);
place = (527, 27);
type = Stem;
},
{
horizontal = 1;
place = (688, -20);
target = down;
type = TopGhost;
},
{
place = (62, 212);
place = (62, 212);
type = Stem;
}
);
layerId = m01;
shapes = (
{
closed = 1;
nodes = (
(250,688,l),
(219,585,o),
(170,558,o),
(68,554,c),
(62,527,l),
(133,528,o),
(200,547,o),
(222,580,c),
(111,0,l),
(141,0,l),
(274,688,l)
);
}
);
width = 280;
}
);
note = one;
unicode = 49;
},
{
glyphname = two;
kernLeft = two;
kernRight = two;
layers = (
{
hints = (
{
horizontal = 1;
place = (0, 29);
place = (0, 29);
type = Stem;
},
{
horizontal = 1;
place = (668, 28);
place = (668, 28);
type = Stem;
},
{
place = (469, 32);
place = (469, 32);
type = Stem;
}
);
layerId = m01;
shapes = (
{
closed = 1;
nodes = (
(423,29,l),
(24,29,l),
(55,153,o),
(152,211,o),
(278,273,cs),
(399,333,o),
(501,386,o),
(501,519,cs),
(501,633,o),
(418,696,o),
(309,696,cs),
(180,696,o),
(94,612,o),
(71,467,c),
(101,467,l),
(126,593,o),
(193,668,o),
(308,668,cs),
(408,668,o),
(469,611,o),
(469,519,cs),
(469,400,o),
(381,356,o),
(266,299,cs),
(133,233,o),
(16,169,o),
(-15,0,c),
(418,0,l)
);
}
);
width = 503;
}
);
note = two;
unicode = 50;
},
{
glyphname = three;
kernLeft = three;
kernRight = three;
layers = (
{
hints = (
{
horizontal = 1;
place = (-10, 29);
place = (-10, 29);
type = Stem;
},
{
horizontal = 1;
place = (350, 27);
place = (350, 27);
type = Stem;
},
{
horizontal = 1;
place = (669, 27);
place = (669, 27);
type = Stem;
},
{
place = (11, 31);
place = (11, 31);
type = Stem;
},
{
place = (441, 32);
place = (441, 32);
type = Stem;
},
{
place = (466, 32);
place = (466, 32);
type = Stem;
}
);
layerId = m01;
shapes = (
{
closed = 1;
nodes = (
(11,209,l),
(15,71,o),
(104,-10,o),
(241,-10,cs),
(372,-10,o),
(473,74,o),
(473,205,cs),
(473,282,o),
(428,340,o),
(365,361,c),
(365,362,l),
(441,382,o),
(498,437,o),
(498,530,cs),
(498,644,o),
(408,696,o),
(309,696,cs),
(183,696,o),
(97,609,o),
(75,487,c),
(107,487,l),
(126,591,o),
(198,669,o),
(308,669,cs),
(393,669,o),
(466,626,o),
(466,529,cs),
(466,425,o),
(389,377,o),
(300,377,cs),
(241,377,l),
(236,350,l),
(287,350,ls),
(378,350,o),
(441,296,o),
(441,204,cs),
(441,86,o),
(353,19,o),
(241,19,cs),
(118,19,o),
(48,91,o),
(42,209,c)
);
}
);
width = 511;
}
);
note = three;
unicode = 51;
},
{
glyphname = four;
kernLeft = four;
kernRight = four;
layers = (
{
hints = (
{
horizontal = 1;
place = (0, 21);
target = up;
type = BottomGhost;
},
{
horizontal = 1;
place = (189, 27);
place = (189, 27);
type = Stem;
},
{
horizontal = 1;
place = (692, -20);
target = down;
type = TopGhost;
},
{
place = (7, 483);
place = (7, 483);
type = Stem;
},
{
horizontal = 1;
place = (637, 55);
place = (637, 55);
type = Stem;
}
);
layerId = m01;
shapes = (
{
closed = 1;
nodes = (
(341,0,l),
(377,189,l),
(485,189,l),
(490,216,l),
(383,216,l),
(476,692,l),
(446,692,l),
(13,218,l),
(7,189,l),
(347,189,l),
(310,0,l)
);
},
{
closed = 1;
nodes = (
(433,637,l),
(434,637,l),
(352,216,l),
(49,216,l),
(49,218,l)
);
}
);
width = 520;
}
);
note = four;
unicode = 52;
},
{
glyphname = five;
kernLeft = five;
kernRight = five;
layers = (
{
hints = (
{
horizontal = 1;
place = (-10, 29);
place = (-10, 29);
type = Stem;
},
{
horizontal = 1;
place = (419, 28);
place = (419, 28);
type = Stem;
},
{
horizontal = 1;
place = (652, 29);
place = (652, 29);
type = Stem;
},
{
place = (8, 32);
place = (8, 32);
type = Stem;
},
{
place = (432, 32);
place = (432, 32);
type = Stem;
}
);
layerId = m01;
shapes = (
{
closed = 1;
nodes = (
(493,681,l),
(160,681,l),
(56,326,l),
(86,326,l),
(116,369,o),
(174,419,o),
(267,419,cs),
(363,419,o),
(432,355,o),
(432,245,cs),
(432,110,o),
(353,19,o),
(222,19,cs),
(118,19,o),
(50,83,o),
(40,182,c),
(8,182,l),
(18,64,o),
(106,-10,o),
(221,-10,cs),
(371,-10,o),
(464,100,o),
(464,245,cs),
(464,374,o),
(379,447,o),
(271,447,cs),
(194,447,o),
(137,413,o),
(99,373,c),
(98,373,l),
(180,652,l),
(488,652,l)
);
}
);
width = 490;
}
);
note = five;
unicode = 53;
},
{
glyphname = six;
kernLeft = six;
kernRight = six;
layers = (
{
hints = (
{
horizontal = 1;
place = (-10, 27);
place = (-10, 27);
type = Stem;
},
{
horizontal = 1;
place = (413, 27);
place = (413, 27);
type = Stem;
},
{
horizontal = 1;
place = (668, 28);
place = (668, 28);
type = Stem;
},
{
place = (45, 34);
place = (45, 34);
type = Stem;
},
{
place = (494, 32);
place = (494, 32);
type = Stem;
},
{
place = (458, 32);
place = (458, 32);
type = Stem;
}
);
layerId = m01;
shapes = (
{
closed = 1;
nodes = (
(526,526,l),
(519,631,o),
(456,696,o),
(347,696,cs),
(139,696,o),
(45,432,o),
(45,234,cs),
(45,151,o),
(64,91,o),
(108,47,cs),
(140,13,o),
(190,-10,o),
(255,-10,cs),
(397,-10,o),
(490,97,o),
(490,238,cs),
(490,363,o),
(406,440,o),
(293,440,cs),
(186,440,o),
(107,370,o),
(79,280,c),
(96,484,o),
(186,668,o),
(346,668,cs),
(438,668,o),
(489,611,o),
(494,526,c)
);
},
{
closed = 1;
nodes = (
(80,292,o),
(150,413,o),
(292,413,cs),
(392,413,o),
(458,341,o),
(458,237,cs),
(458,113,o),
(382,17,o),
(255,17,cs),
(152,17,o),
(80,85,o),
(80,198,cs)
);
}
);
width = 532;
}
);
note = six;
unicode = 54;
},
{
glyphname = seven;
kernLeft = seven;
kernRight = seven;
layers = (
{
hints = (
{
horizontal = 1;
place = (0, 21);
target = up;
type = BottomGhost;
},
{
horizontal = 1;
place = (657, 28);
place = (657, 28);
type = Stem;
},
{
place = (89, 442);
place = (89, 442);
type = Stem;
}
);
layerId = m01;
shapes = (
{
closed = 1;
nodes = (
(141,0,l),
(198,259,o),
(314,474,o),
(525,657,c),
(531,685,l),
(95,685,l),
(89,657,l),
(488,657,l),
(488,656,l),
(283,475,o),
(162,249,o),
(108,0,c)
);
}
);
width = 468;
}
);
note = seven;
unicode = 55;
},
{
glyphname = eight;
kernLeft = eight;
kernRight = eight;
layers = (
{
hints = (
{
horizontal = 1;
place = (-10, 28);
place = (-10, 28);
type = Stem;
},
{
horizontal = 1;
place = (359, 27);
place = (359, 27);
type = Stem;
},
{
horizontal = 1;
place = (669, 27);
place = (669, 27);
type = Stem;
},
{
place = (20, 32);
place = (20, 32);
type = Stem;
},
{
place = (111, 31);
place = (111, 31);
type = Stem;
},
{
place = (463, 32);
place = (463, 32);
type = Stem;
},
{
place = (482, 31);
place = (482, 31);
type = Stem;
}
);
layerId = m01;
shapes = (
{
closed = 1;
nodes = (
(401,-10,o),
(496,79,o),
(495,205,cs),
(495,285,o),
(442,347,o),
(363,368,c),
(363,369,l),
(455,389,o),
(513,447,o),
(513,532,cs),
(513,641,o),
(423,696,o),
(323,696,cs),
(197,696,o),
(111,616,o),
(111,510,cs),
(111,447,o),
(149,399,o),
(210,379,c),
(210,377,l),
(89,357,o),
(20,280,o),
(20,176,cs),
(20,59,o),
(121,-10,o),
(250,-10,cs)
);
},
{
closed = 1;
nodes = (
(134,18,o),
(52,78,o),
(52,176,cs),
(52,286,o),
(136,359,o),
(271,359,cs),
(377,359,o),
(463,306,o),
(463,205,cs),
(464,92,o),
(381,18,o),
(250,18,cs)
);
},
{
closed = 1;
nodes = (
(210,386,o),
(142,431,o),
(142,510,cs),
(142,602,o),
(217,670,o),
(323,669,cs),
(411,669,o),
(482,618,o),
(482,531,cs),
(482,438,o),
(405,386,o),
(300,386,cs)
);
}
);
width = 532;
}
);
note = eight;
unicode = 56;
},
{
glyphname = nine;
kernLeft = nine;
kernRight = nine;
layers = (
{
hints = (
{
horizontal = 1;
place = (-10, 28);
place = (-10, 28);
type = Stem;
},
{
horizontal = 1;
place = (246, 27);
place = (246, 27);
type = Stem;
},
{
horizontal = 1;
place = (669, 27);
place = (669, 27);
type = Stem;
},
{
place = (22, 31);
place = (22, 31);
type = Stem;
},
{
place = (468, 36);
place = (468, 36);
type = Stem;
},
{
place = (58, 32);
place = (58, 32);
type = Stem;
}
);
layerId = m01;
shapes = (
{
closed = 1;
nodes = (
(22,160,l),
(28,53,o),
(99,-10,o),
(208,-10,cs),
(269,-10,o),
(321,10,o),
(363,46,cs),
(463,132,o),
(504,309,o),
(504,449,cs),
(504,548,o),
(476,617,o),
(417,660,cs),
(386,681,o),
(344,696,o),
(293,696,cs),
(156,696,o),
(58,588,o),
(58,450,cs),
(58,324,o),
(143,246,o),
(256,246,cs),
(363,246,o),
(443,316,o),
(470,407,c),
(471,407,l),
(461,270,o),
(421,133,o),
(345,68,cs),
(307,34,o),
(262,18,o),
(209,18,cs),
(117,18,o),
(58,72,o),
(53,160,c)
);
},
{
closed = 1;
nodes = (
(468,394,o),
(399,273,o),
(255,273,cs),
(157,273,o),
(90,345,o),
(90,450,cs),
(90,573,o),
(171,669,o),
(293,669,cs),
(411,669,o),
(468,588,o),
(468,488,cs)
);
}
);
width = 522;
}
);
note = nine;
unicode = 57;
},
{
glyphname = colon;
kernLeft = colon;
kernRight = colon;
layers = (
{
hints = (
{
horizontal = 1;
place = (0, 66);
place = (0, 66);
type = Stem;
},
{
horizontal = 1;
place = (319, 66);
place = (319, 66);
type = Stem;
},
{
place = (-6, 111);
place = (-6, 111);
type = Stem;
}
);
layerId = m01;
shapes = (
{
closed = 1;
nodes = (
(43,66,l),
(7,66,l),
(-6,0,l),
(30,0,l)
);
},
{
closed = 1;
nodes = (
(105,385,l),
(68,385,l),
(56,319,l),
(92,319,l)
);
}
);
width = 124;
}
);
note = colon;
unicode = 58;
},
{
glyphname = semicolon;
kernLeft = colon;
kernRight = colon;
layers = (
{
hints = (
{
horizontal = 1;
place = (0, 66);
place = (0, 66);
type = Stem;
},
{
horizontal = 1;
place = (319, 66);
place = (319, 66);
type = Stem;
},
{
place = (-45, 150);
place = (-45, 150);
type = Stem;
}
);
layerId = m01;
shapes = (
{
closed = 1;
nodes = (
(105,385,l),
(68,385,l),
(56,319,l),
(92,319,l)
);
},
{
closed = 1;
nodes = (
(-45,-108,l),
(-10,-102,o),
(13,-87,o),
(27,-15,cs),
(43,66,l),
(6,66,l),
(-7,0,l),
(7,0,l),
(-6,-73,o),
(-21,-81,o),
(-41,-86,c)
);
}
);
width = 124;
}
);
note = semicolon;
unicode = 59;
},
{
glyphname = less;
layers = (
{
hints = (
{
horizontal = 1;
place = (121, 382);
place = (121, 382);
type = Stem;
},
{
place = (52, 428);
place = (52, 428);
type = Stem;
}
);
layerId = m01;
shapes = (
{
closed = 1;
nodes = (
(405,121,l),
(411,150,l),
(84,311,l),
(84,312,l),
(474,472,l),
(480,503,l),
(58,330,l),
(52,297,l)
);
}
);
width = 482;
}
);
note = less;
unicode = 60;
},
{
glyphname = equal;
layers = (
{
hints = (
{
horizontal = 1;
place = (227, 28);
place = (227, 28);
type = Stem;
},
{
horizontal = 1;
place = (369, 28);
place = (369, 28);
type = Stem;
},
{
place = (42, 444);
place = (42, 444);
type = Stem;
}
);
layerId = m01;
shapes = (
{
closed = 1;
nodes = (
(69,369,l),
(480,369,l),
(486,397,l),
(76,397,l)
);
},
{
closed = 1;
nodes = (
(42,227,l),
(452,227,l),
(458,255,l),
(48,255,l)
);
}
);
width = 508;
}
);
note = equal;
unicode = 61;
},
{
glyphname = greater;
layers = (
{
hints = (
{
horizontal = 1;
place = (120, 383);
place = (120, 383);
type = Stem;
},
{
place = (23, 427);
place = (23, 427);
type = Stem;
}
);
layerId = m01;
shapes = (
{
closed = 1;
nodes = (
(97,503,l),
(90,473,l),
(418,313,l),
(418,312,l),
(29,153,l),
(23,120,l),
(444,294,l),
(450,326,l)
);
}
);
width = 482;
}
);
note = greater;
unicode = 62;
},
{
glyphname = question;
kernLeft = question;
layers = (
{
hints = (
{
horizontal = 1;
place = (0, 66);
place = (0, 66);
type = Stem;
},
{
horizontal = 1;
place = (697, 28);
place = (697, 28);
type = Stem;
},
{
place = (462, 32);
place = (462, 32);
type = Stem;
}
);
layerId = m01;
shapes = (
{
closed = 1;
nodes = (
(224,176,l),
(244,282,o),
(280,315,o),
(360,369,cs),
(431,419,o),
(494,464,o),
(494,562,cs),
(494,667,o),
(412,725,o),
(310,725,cs),
(175,725,o),
(93,633,o),
(72,518,c),
(103,518,l),
(127,626,o),
(196,697,o),
(308,697,cs),
(397,697,o),
(462,648,o),
(462,562,cs),
(462,473,o),
(403,434,o),
(343,392,cs),
(249,328,o),
(216,293,o),
(194,176,c)
);
},
{
closed = 1;
nodes = (
(207,66,l),
(171,66,l),
(158,0,l),
(195,0,l)
);
}
);
width = 474;
}
);
note = question;
unicode = 63;
},
{
glyphname = at;
kernLeft = at;
kernRight = at;
layers = (
{
hints = (
{
horizontal = 1;
place = (-98, 27);
place = (-98, 27);
type = Stem;
},
{
horizontal = 1;
place = (84, 26);
place = (84, 26);
type = Stem;
},
{
horizontal = 1;
place = (493, 25);
place = (493, 25);
type = Stem;
},
{
horizontal = 1;
place = (681, 26);
place = (681, 26);
type = Stem;
},
{
place = (38, 29);
place = (38, 29);
type = Stem;
},
{
place = (231, 31);
place = (231, 31);
type = Stem;
},
{
place = (566, 18);
place = (566, 18);
type = Stem;
},
{
place = (800, 29);
place = (800, 29);
type = Stem;
},
{
place = (543, 25);
place = (543, 25);
type = Stem;
},
{
horizontal = 1;
place = (94, 25);
place = (94, 25);
type = Stem;
}
);
layerId = m01;
shapes = (
{
closed = 1;
nodes = (
(636,513,l),
(609,514,l),
(584,402,l),
(583,402,l),
(573,467,o),
(529,518,o),
(446,518,cs),
(306,518,o),
(231,377,o),
(231,249,cs),
(231,150,o),
(287,84,o),
(384,84,cs),
(451,84,o),
(512,125,o),
(542,185,c),
(543,185,l),
(539,137,o),
(567,94,o),
(634,94,cs),
(762,94,o),
(828,224,o),
(829,363,cs),
(829,588,o),
(657,707,o),
(466,707,cs),
(236,707,o),
(38,529,o),
(38,269,cs),
(38,49,o),
(187,-98,o),
(422,-98,cs),
(495,-98,o),
(563,-82,o),
(627,-55,c),
(617,-31,l),
(556,-56,o),
(491,-71,o),
(422,-71,cs),
(200,-71,o),
(67,66,o),
(67,270,cs),
(67,524,o),
(257,681,o),
(466,681,cs),
(647,681,o),
(800,571,o),
(800,363,cs),
(799,234,o),
(744,119,o),
(635,119,cs),
(574,119,o),
(559,166,o),
(572,221,cs)
);
},
{
closed = 1;
nodes = (
(561,233,o),
(505,110,o),
(384,110,cs),
(303,110,o),
(262,168,o),
(262,249,cs),
(262,366,o),
(323,493,o),
(445,493,cs),
(536,493,o),
(569,425,o),
(566,346,cs)
);
}
);
width = 848;
}
);
note = at;
unicode = 64;
},
{
glyphname = A;
kernLeft = A;
kernRight = A;
layers = (
{
hints = (
{
horizontal = 1;
place = (0, 21);
target = up;
type = BottomGhost;
},
{
horizontal = 1;
place = (244, 27);
place = (244, 27);
type = Stem;
},
{
horizontal = 1;
place = (681, 34);
place = (681, 34);
type = Stem;
},
{
place = (-42, 576);
place = (-42, 576);
type = Stem;
}
);
layerId = m01;
shapes = (
{
closed = 1;
nodes = (
(503,0,l),
(534,0,l),
(385,715,l),
(351,715,l),
(-42,0,l),
(-10,0,l),
(124,244,l),
(452,244,l)
);
},
{
closed = 1;
nodes = (
(306,575,ls),
(331,621,o),
(362,681,o),
(362,681,c),
(363,681,l),
(363,681,o),
(377,611,o),
(384,577,cs),
(447,271,l),
(139,271,l)
);
}
);
width = 593;
}
);
note = A;
unicode = 65;
},
{
glyphname = B;
layers = (
{
hints = (
{
horizontal = 1;
place = (0, 29);
place = (0, 29);
type = Stem;
},
{
horizontal = 1;
place = (361, 28);
place = (361, 28);
type = Stem;
},
{
horizontal = 1;
place = (687, 28);
place = (687, 28);
type = Stem;
},
{
place = (554, 31);
place = (554, 31);
type = Stem;
},
{
place = (533, 32);
place = (533, 32);
type = Stem;
}
);
layerId = m01;
shapes = (
{
closed = 1;
nodes = (
(585,606,o),
(564,647,o),
(530,675,cs),
(496,702,o),
(450,715,o),
(397,715,cs),
(152,715,l),
(14,0,l),
(310,0,ls),
(384,0,o),
(454,20,o),
(500,63,cs),
(540,99,o),
(565,153,o),
(565,221,cs),
(565,300,o),
(523,354,o),
(446,375,c),
(446,376,l),
(538,400,o),
(585,463,o),
(585,549,cs)
);
},
{
closed = 1;
nodes = (
(373,361,ls),
(472,361,o),
(533,309,o),
(533,220,cs),
(533,159,o),
(511,112,o),
(474,81,cs),
(432,44,o),
(373,29,o),
(310,29,cs),
(51,29,l),
(115,361,l)
);
},
{
closed = 1;
nodes = (
(178,687,l),
(396,687,ls),
(482,687,o),
(554,645,o),
(554,548,cs),
(554,454,o),
(489,389,o),
(368,389,cs),
(121,389,l)
);
}
);
width = 600;
}
);
note = B;
unicode = 66;
},
{
glyphname = C;
kernLeft = C;
kernRight = C;
layers = (
{
hints = (
{
horizontal = 1;
place = (-10, 28);
place = (-10, 28);
type = Stem;
},
{
horizontal = 1;
place = (698, 27);
place = (698, 27);
type = Stem;
},
{
place = (48, 33);
place = (48, 33);
type = Stem;
}
);
layerId = m01;
shapes = (
{
closed = 1;
nodes = (
(652,517,l),
(635,650,o),
(544,725,o),
(409,725,cs),
(173,725,o),
(48,501,o),
(48,295,cs),
(48,116,o),
(144,-10,o),
(329,-10,cs),
(493,-10,o),
(595,105,o),
(629,253,c),
(599,253,l),
(568,121,o),
(475,18,o),
(329,18,cs),
(160,18,o),
(81,135,o),
(81,296,cs),
(81,488,o),
(189,698,o),
(408,698,cs),
(535,698,o),
(606,628,o),
(622,517,c)
);
}
);
width = 651;
}
);
note = C;
unicode = 67;
},
{
glyphname = D;
kernRight = Eth;
layers = (
{
hints = (
{
horizontal = 1;
place = (0, 28);
place = (0, 28);
type = Stem;
},
{
horizontal = 1;
place = (687, 28);
place = (687, 28);
type = Stem;
},
{
place = (593, 32);
place = (593, 32);
type = Stem;
}
);
layerId = m01;
shapes = (
{
closed = 1;
nodes = (
(14,0,l),
(251,0,ls),
(509,0,o),
(625,203,o),
(625,430,cs),
(625,598,o),
(539,715,o),
(358,715,cs),
(151,715,l)
);
},
{
closed = 1;
nodes = (
(177,687,l),
(357,687,ls),
(518,687,o),
(593,582,o),
(593,429,cs),
(593,213,o),
(486,28,o),
(250,28,cs),
(50,28,l)
);
}
);
width = 636;
}
);
note = D;
unicode = 68;
},
{
glyphname = E;
kernRight = E;
layers = (
{
hints = (
{
horizontal = 1;
place = (0, 29);
place = (0, 29);
type = Stem;
},
{
horizontal = 1;
place = (356, 28);
place = (356, 28);
type = Stem;
},
{
horizontal = 1;
place = (687, 28);
place = (687, 28);
type = Stem;
},
{
place = (14, 572);
place = (14, 572);
type = Stem;
}
);
layerId = m01;
shapes = (
{
closed = 1;
nodes = (
(14,0,l),
(471,0,l),
(477,29,l),
(51,29,l),
(114,356,l),
(489,356,l),
(494,384,l),
(119,384,l),
(178,687,l),
(581,687,l),
(586,715,l),
(151,715,l)
);
}
);
width = 556;
}
);
note = E;
unicode = 69;
},
{
glyphname = F;
kernRight = F;
layers = (
{
hints = (
{
horizontal = 1;
place = (0, 21);
target = up;
type = BottomGhost;
},
{
horizontal = 1;
place = (359, 28);
place = (359, 28);
type = Stem;
},
{
horizontal = 1;
place = (687, 28);
place = (687, 28);
type = Stem;
},
{
place = (14, 575);
place = (14, 575);
type = Stem;
}
);
layerId = m01;
shapes = (
{
closed = 1;
nodes = (
(14,0,l),
(45,0,l),
(115,359,l),
(473,359,l),
(479,387,l),
(120,387,l),
(177,687,l),
(583,687,l),
(589,715,l),
(151,715,l)
);
}
);
width = 527;
}
);
note = F;
unicode = 70;
},
{
glyphname = G;
kernLeft = C;
kernRight = G;
layers = (
{
hints = (
{
horizontal = 1;
place = (-10, 28);
place = (-10, 28);
type = Stem;
},
{
horizontal = 1;
place = (326, 28);
place = (326, 28);
type = Stem;
},
{
horizontal = 1;
place = (698, 27);
place = (698, 27);
type = Stem;
},
{
place = (48, 32);
place = (48, 32);
type = Stem;
},
{
horizontal = 1;
place = (0, 21);
target = up;
type = BottomGhost;
}
);
layerId = m01;
shapes = (
{
closed = 1;
nodes = (
(654,354,l),
(373,354,l),
(367,326,l),
(618,326,l),
(606,265,ls),
(582,136,o),
(491,18,o),
(330,18,cs),
(164,18,o),
(80,125,o),
(80,297,cs),
(80,498,o),
(196,698,o),
(412,698,cs),
(538,698,o),
(618,627,o),
(631,515,c),
(661,515,l),
(646,648,o),
(554,725,o),
(413,725,cs),
(179,725,o),
(48,510,o),
(48,295,cs),
(48,108,o),
(149,-10,o),
(328,-10,cs),
(460,-10,o),
(542,66,o),
(583,142,c),
(584,142,l),
(560,0,l),
(586,0,l)
);
}
);
width = 691;
}
);
note = G;
unicode = 71;
},
{
glyphname = H;
layers = (
{
hints = (
{
horizontal = 1;
place = (0, 21);
target = up;
type = BottomGhost;
},
{
horizontal = 1;
place = (367, 27);
place = (367, 27);
type = Stem;
},
{
horizontal = 1;
place = (715, -20);
target = down;
type = TopGhost;
},
{
place = (14, 647);
place = (14, 647);
type = Stem;
}
);
layerId = m01;
shapes = (
{
closed = 1;
nodes = (
(14,0,l),
(45,0,l),
(116,367,l),
(563,367,l),
(492,0,l),
(523,0,l),
(661,715,l),
(630,715,l),
(568,394,l),
(121,394,l),
(183,715,l),
(152,715,l)
);
}
);
width = 637;
}
);
note = H;
unicode = 72;
},
{
glyphname = I;
layers = (
{
hints = (
{
horizontal = 1;
place = (0, 21);
target = up;
type = BottomGhost;
},
{
horizontal = 1;
place = (715, -20);
target = down;
type = TopGhost;
},
{
place = (17, 169);
place = (17, 169);
type = Stem;
}
);
layerId = m01;
shapes = (
{
closed = 1;
nodes = (
(186,715,l),
(155,715,l),
(17,0,l),
(48,0,l)
);
}
);
width = 165;
}
);
note = I;
unicode = 73;
},
{
glyphname = J;
kernLeft = J;
kernRight = J;
layers = (
{
hints = (
{
horizontal = 1;
place = (-10, 29);
place = (-10, 29);
type = Stem;
},
{
horizontal = 1;
place = (715, -20);
target = down;
type = TopGhost;
},
{
place = (4, 31);
place = (4, 31);
type = Stem;
}
);
layerId = m01;
shapes = (
{
closed = 1;
nodes = (
(10,221,l),
(8,211,o),
(4,184,o),
(4,170,c),
(-9,52,o),
(59,-10,o),
(176,-10,cs),
(297,-10,o),
(356,62,o),
(375,160,cs),
(482,715,l),
(451,715,l),
(344,165,ls),
(326,73,o),
(274,19,o),
(177,19,cs),
(68,19,o),
(26,78,o),
(35,173,c),
(35,185,o),
(38,208,o),
(41,221,c)
);
}
);
width = 452;
}
);
note = J;
unicode = 74;
},
{
glyphname = K;
kernRight = K;
layers = (
{
hints = (
{
horizontal = 1;
place = (0, 21);
target = up;
type = BottomGhost;
},
{
horizontal = 1;
place = (715, -20);
target = down;
type = TopGhost;
},
{
place = (14, 610);
place = (14, 610);
type = Stem;
}
);
layerId = m01;
shapes = (
{
closed = 1;
nodes = (
(624,715,l),
(581,715,l),
(103,299,l),
(183,715,l),
(152,715,l),
(14,0,l),
(45,0,l),
(95,259,l),
(266,406,l),
(501,0,l),
(535,0,l),
(290,427,l)
);
}
);
width = 572;
}
);
note = K;
unicode = 75;
},
{
glyphname = L;
kernRight = L;
layers = (
{
hints = (
{
horizontal = 1;
place = (0, 29);
place = (0, 29);
type = Stem;
},
{
horizontal = 1;
place = (715, -20);
target = down;
type = TopGhost;
},
{
place = (14, 430);
place = (14, 430);
type = Stem;
}
);
layerId = m01;
shapes = (
{
closed = 1;
nodes = (
(183,715,l),
(152,715,l),
(14,0,l),
(438,0,l),
(444,29,l),
(50,29,l)
);
}
);
width = 505;
}
);
note = L;
unicode = 76;
},
{
glyphname = M;
layers = (
{
hints = (
{
horizontal = 1;
place = (0, 21);
target = up;
type = BottomGhost;
},
{
horizontal = 1;
place = (672, 43);
place = (672, 43);
type = Stem;
},
{
place = (14, 779);
place = (14, 779);
type = Stem;
},
{
horizontal = 1;
place = (0, 42);
place = (0, 42);
type = Stem;
}
);
layerId = m01;
shapes = (
{
closed = 1;
nodes = (
(793,715,l),
(745,715,l),
(343,42,l),
(341,42,l),
(195,715,l),
(152,715,l),
(14,0,l),
(44,0,l),
(174,672,l),
(175,672,l),
(175,672,o),
(186,613,o),
(196,566,cs),
(319,0,l),
(351,0,l),
(690,567,ls),
(718,614,o),
(752,672,o),
(752,672,c),
(753,672,l),
(623,0,l),
(654,0,l)
);
}
);
width = 769;
}
);
note = M;
unicode = 77;
},
{
glyphname = N;
layers = (
{
hints = (
{
horizontal = 1;
place = (0, 21);
target = up;
type = BottomGhost;
},
{
horizontal = 1;
place = (715, -20);
target = down;
type = TopGhost;
},
{
place = (14, 649);
place = (14, 649);
type = Stem;
},
{
horizontal = 1;
place = (670, 45);
place = (670, 45);
type = Stem;
}
);
layerId = m01;
shapes = (
{
closed = 1;
nodes = (
(663,715,l),
(633,715,l),
(503,47,l),
(502,47,l),
(502,47,o),
(475,111,o),
(447,170,cs),
(187,715,l),
(152,715,l),
(14,0,l),
(44,0,l),
(174,670,l),
(174,670,o),
(212,588,o),
(238,532,cs),
(492,0,l),
(525,0,l)
);
}
);
width = 639;
}
);
note = N;
unicode = 78;
},
{
glyphname = O;
kernLeft = C;
kernRight = O;
layers = (
{
hints = (
{
horizontal = 1;
place = (-10, 28);
place = (-10, 28);
type = Stem;
},
{
horizontal = 1;
place = (697, 29);
place = (697, 29);
type = Stem;
},
{
place = (48, 32);
place = (48, 32);
type = Stem;
},
{
place = (669, 32);
place = (669, 32);
type = Stem;
}
);
layerId = m01;
shapes = (
{
closed = 1;
nodes = (
(572,-10,o),
(701,189,o),
(701,409,cs),
(701,608,o),
(572,726,o),
(405,726,cs),
(186,726,o),
(48,523,o),
(48,305,cs),
(48,106,o),
(179,-10,o),
(346,-10,cs)
);
},
{
closed = 1;
nodes = (
(190,18,o),
(80,130,o),
(80,305,cs),
(80,511,o),
(203,697,o),
(404,697,cs),
(559,697,o),
(669,586,o),
(669,409,cs),
(669,202,o),
(551,18,o),
(347,18,cs)
);
}
);
width = 712;
}
);
note = O;
unicode = 79;
},
{
glyphname = P;
kernRight = P;
layers = (
{
hints = (
{
horizontal = 1;
place = (0, 21);
target = up;
type = BottomGhost;
},
{
horizontal = 1;
place = (327, 28);
place = (327, 28);
type = Stem;
},
{
horizontal = 1;
place = (687, 28);
place = (687, 28);
type = Stem;
},
{
place = (551, 32);
place = (551, 32);
type = Stem;
}
);
layerId = m01;
shapes = (
{
closed = 1;
nodes = (
(318,327,ls),
(475,327,o),
(583,392,o),
(583,542,cs),
(583,595,o),
(568,635,o),
(538,665,cs),
(504,699,o),
(451,715,o),
(387,715,cs),
(151,715,l),
(14,0,l),
(45,0,l),
(108,327,l)
);
},
{
closed = 1;
nodes = (
(177,687,l),
(386,687,ls),
(487,687,o),
(551,641,o),
(551,540,cs),
(551,405,o),
(451,355,o),
(318,355,cs),
(113,355,l)
);
}
);
width = 555;
}
);
note = P;
unicode = 80;
},
{
glyphname = Q;
kernLeft = C;
kernRight = Q;
layers = (
{
hints = (
{
horizontal = 1;
place = (-10, 28);
place = (-10, 28);
type = Stem;
},
{
horizontal = 1;
place = (697, 29);
place = (697, 29);
type = Stem;
},
{
place = (48, 32);
place = (48, 32);
type = Stem;
},
{
place = (669, 32);
place = (669, 32);
type = Stem;
}
);
layerId = m01;
shapes = (
{
closed = 1;
nodes = (
(642,-27,l),
(551,60,l),
(648,138,o),
(701,270,o),
(701,409,cs),
(701,608,o),
(572,726,o),
(405,726,cs),
(186,726,o),
(48,523,o),
(48,305,cs),
(48,106,o),
(179,-10,o),
(346,-10,cs),
(415,-10,o),
(476,9,o),
(526,42,c),
(622,-49,l)
);
},
{
closed = 1;
nodes = (
(190,18,o),
(80,130,o),
(80,305,cs),
(80,511,o),
(203,697,o),
(404,697,cs),
(559,697,o),
(669,586,o),
(669,409,cs),
(669,275,o),
(620,151,o),
(530,80,c),
(446,162,l),
(425,139,l),
(505,62,l),
(460,34,o),
(407,18,o),
(347,18,cs)
);
}
);
width = 712;
}
);
note = Q;
unicode = 81;
},
{
glyphname = R;
kernRight = R;
layers = (
{
hints = (
{
horizontal = 1;
place = (0, 21);
target = up;
type = BottomGhost;
},
{
horizontal = 1;
place = (334, 28);
place = (334, 28);
type = Stem;
},
{
horizontal = 1;
place = (687, 28);
place = (687, 28);
type = Stem;
},
{
place = (500, 32);
place = (500, 32);
type = Stem;
},
{
place = (572, 31);
place = (572, 31);
type = Stem;
}
);
layerId = m01;
shapes = (
{
closed = 1;
nodes = (
(550,3,l),
(540,15,o),
(532,32,o),
(532,93,cs),
(532,116,o),
(534,154,o),
(535,185,cs),
(539,281,o),
(512,328,o),
(449,346,c),
(449,347,l),
(542,371,o),
(603,436,o),
(603,538,cs),
(603,660,o),
(524,715,o),
(415,715,cs),
(152,715,l),
(13,0,l),
(44,0,l),
(109,334,l),
(357,334,ls),
(463,334,o),
(509,309,o),
(504,185,cs),
(502,149,o),
(500,115,o),
(500,93,cs),
(500,33,o),
(508,11,o),
(517,0,c),
(550,0,l)
);
},
{
closed = 1;
nodes = (
(177,687,l),
(413,687,ls),
(506,687,o),
(572,639,o),
(572,537,cs),
(572,419,o),
(487,362,o),
(366,362,cs),
(115,362,l)
);
}
);
width = 613;
}
);
note = R;
unicode = 82;
},
{
glyphname = S;
kernLeft = Scaron;
kernRight = Scaron;
layers = (
{
hints = (
{
horizontal = 1;
place = (-10, 27);
place = (-10, 27);
type = Stem;
},
{
horizontal = 1;
place = (698, 28);
place = (698, 28);
type = Stem;
},
{
place = (9, 31);
place = (9, 31);
type = Stem;
},
{
place = (92, 31);
place = (92, 31);
type = Stem;
},
{
place = (489, 32);
place = (489, 32);
type = Stem;
},
{
place = (523, 30);
place = (523, 30);
type = Stem;
}
);
layerId = m01;
shapes = (
{
closed = 1;
nodes = (
(9,229,l),
(9,63,o),
(127,-10,o),
(269,-10,cs),
(408,-10,o),
(521,65,o),
(521,198,cs),
(521,314,o),
(436,346,o),
(295,395,cs),
(177,436,o),
(123,468,o),
(123,546,cs),
(123,644,o),
(203,698,o),
(318,698,cs),
(447,698,o),
(517,630,o),
(523,526,c),
(553,526,l),
(548,650,o),
(465,726,o),
(318,726,cs),
(187,726,o),
(92,657,o),
(92,546,cs),
(92,450,o),
(154,412,o),
(287,366,cs),
(423,319,o),
(489,290,o),
(489,198,cs),
(489,77,o),
(389,17,o),
(270,17,cs),
(140,17,o),
(40,84,o),
(40,229,c)
);
}
);
width = 565;
}
);
note = S;
unicode = 83;
},
{
glyphname = T;
kernLeft = T;
kernRight = T;
layers = (
{
hints = (
{
horizontal = 1;
place = (0, 21);
target = up;
type = BottomGhost;
},
{
horizontal = 1;
place = (687, 28);
place = (687, 28);
type = Stem;
},
{
place = (92, 520);
place = (92, 520);
type = Stem;
}
);
layerId = m01;
shapes = (
{
closed = 1;
nodes = (
(232,0,l),
(365,687,l),
(607,687,l),
(612,715,l),
(97,715,l),
(92,687,l),
(334,687,l),
(201,0,l)
);
}
);
width = 543;
}
);
note = T;
unicode = 84;
},
{
glyphname = U;
kernLeft = U;
kernRight = U;
layers = (
{
hints = (
{
horizontal = 1;
place = (-9, 28);
place = (-9, 28);
type = Stem;
},
{
horizontal = 1;
place = (715, -20);
target = down;
type = TopGhost;
},
{
place = (46, 32);
place = (46, 32);
type = Stem;
}
);
layerId = m01;
shapes = (
{
closed = 1;
nodes = (
(142,715,l),
(53,253,ls),
(18,75,o),
(120,-9,o),
(280,-9,cs),
(424,-9,o),
(521,67,o),
(548,209,cs),
(647,715,l),
(616,715,l),
(517,212,ls),
(492,83,o),
(410,19,o),
(283,19,cs),
(124,19,o),
(55,103,o),
(84,252,cs),
(174,715,l)
);
}
);
width = 614;
}
);
note = U;
unicode = 85;
},
{
glyphname = V;
kernLeft = V;
kernRight = V;
layers = (
{
hints = (
{
horizontal = 1;
place = (0, 21);
target = up;
type = BottomGhost;
},
{
horizontal = 1;
place = (715, -20);
target = down;
type = TopGhost;
},
{
place = (87, 563);
place = (87, 563);
type = Stem;
}
);
layerId = m01;
shapes = (
{
closed = 1;
nodes = (
(118,715,l),
(87,715,l),
(230,0,l),
(262,0,l),
(650,715,l),
(618,715,l),
(326,177,ls),
(290,111,o),
(252,37,o),
(252,37,c),
(251,37,l),
(251,37,o),
(238,111,o),
(225,177,cs)
);
}
);
width = 570;
}
);
note = V;
unicode = 86;
},
{
glyphname = W;
kernLeft = W;
kernRight = W;
layers = (
{
hints = (
{
horizontal = 1;
place = (0, 21);
target = up;
type = BottomGhost;
},
{
horizontal = 1;
place = (675, 40);
place = (675, 40);
type = Stem;
},
{
place = (93, 831);
place = (93, 831);
type = Stem;
}
);
layerId = m01;
shapes = (
{
closed = 1;
nodes = (
(491,715,l),
(264,203,ls),
(231,130,o),
(195,44,o),
(195,44,c),
(194,44,l),
(194,44,o),
(186,136,o),
(178,208,cs),
(123,715,l),
(93,715,l),
(171,0,l),
(204,0,l),
(454,564,ls),
(475,611,o),
(500,675,o),
(500,675,c),
(501,675,l),
(501,675,o),
(506,614,o),
(511,564,cs),
(568,0,l),
(601,0,l),
(924,715,l),
(893,715,l),
(664,206,ls),
(630,130,o),
(593,44,o),
(593,44,c),
(592,44,l),
(592,44,o),
(584,131,o),
(577,203,cs),
(524,715,l)
);
}
);
width = 853;
}
);
note = W;
unicode = 87;
},
{
glyphname = X;
kernLeft = X;
kernRight = X;
layers = (
{
hints = (
{
horizontal = 1;
place = (0, 21);
target = up;
type = BottomGhost;
},
{
horizontal = 1;
place = (715, -20);
target = down;
type = TopGhost;
},
{
place = (-43, 649);
place = (-43, 649);
type = Stem;
}
);
layerId = m01;
shapes = (
{
closed = 1;
nodes = (
(-43,0,l),
(-7,0,l),
(286,342,l),
(287,342,l),
(460,0,l),
(494,0,l),
(309,364,l),
(606,715,l),
(570,715,l),
(295,389,l),
(294,389,l),
(129,715,l),
(96,715,l),
(272,368,l)
);
}
);
width = 541;
}
);
note = X;
unicode = 88;
},
{
glyphname = Y;
kernLeft = Yacute;
kernRight = Yacute;
layers = (
{
hints = (
{
horizontal = 1;
place = (0, 21);
target = up;
type = BottomGhost;
},
{
horizontal = 1;
place = (715, -20);
target = down;
type = TopGhost;
},
{
place = (81, 555);
place = (81, 555);
type = Stem;
}
);
layerId = m01;
shapes = (
{
closed = 1;
nodes = (
(115,715,l),
(81,715,l),
(274,324,l),
(211,0,l),
(242,0,l),
(305,321,l),
(636,715,l),
(600,715,l),
(295,350,l),
(294,350,l)
);
}
);
width = 552;
}
);
note = Y;
unicode = 89;
},
{
glyphname = Z;
kernLeft = Zcaron;
kernRight = Zcaron;
layers = (
{
hints = (
{
horizontal = 1;
place = (0, 28);
place = (0, 28);
type = Stem;
},
{
horizontal = 1;
place = (688, 27);
place = (688, 27);
type = Stem;
},
{
place = (-21, 620);
place = (-21, 620);
type = Stem;
}
);
layerId = m01;
shapes = (
{
closed = 1;
nodes = (
(485,28,l),
(22,28,l),
(22,29,l),
(594,686,l),
(599,715,l),
(140,715,l),
(134,688,l),
(555,688,l),
(555,686,l),
(-15,30,l),
(-21,0,l),
(480,0,l)
);
}
);
width = 557;
}
);
note = Z;
unicode = 90;
},
{
glyphname = bracketleft;
kernRight = bracketleft;
layers = (
{
hints = (
{
horizontal = 1;
place = (-118, 28);
place = (-118, 28);
type = Stem;
},
{
horizontal = 1;
place = (727, 27);
place = (727, 27);
type = Stem;
},
{
place = (5, 310);
place = (5, 310);
type = Stem;
}
);
layerId = m01;
shapes = (
{
closed = 1;
nodes = (
(41,-90,l),
(200,727,l),
(309,727,l),
(315,754,l),
(175,754,l),
(5,-118,l),
(145,-118,l),
(150,-90,l)
);
}
);
width = 250;
}
);
note = bracketleft;
unicode = 91;
},
{
glyphname = backslash;
kernLeft = backslash;
kernRight = backslash;
layers = (
{
hints = (
{
horizontal = 1;
place = (0, 21);
target = up;
type = BottomGhost;
},
{
horizontal = 1;
place = (715, -20);
target = down;
type = TopGhost;
},
{
place = (92, 196);
place = (92, 196);
type = Stem;
}
);
layerId = m01;
shapes = (
{
closed = 1;
nodes = (
(92,715,l),
(259,0,l),
(288,0,l),
(121,715,l)
);
}
);
width = 342;
}
);
note = backslash;
unicode = 92;
},
{
glyphname = bracketright;
kernLeft = bracketright;
layers = (
{
hints = (
{
horizontal = 1;
place = (-118, 28);
place = (-118, 28);
type = Stem;
},
{
horizontal = 1;
place = (727, 27);
place = (727, 27);
type = Stem;
},
{
place = (-41, 310);
place = (-41, 310);
type = Stem;
}
);
layerId = m01;
shapes = (
{
closed = 1;
nodes = (
(233,727,l),
(75,-90,l),
(-36,-90,l),
(-41,-118,l),
(100,-118,l),
(269,754,l),
(129,754,l),
(123,727,l)
);
}
);
width = 251;
}
);
note = bracketright;
unicode = 93;
},
{
glyphname = asciicircum;
layers = (
{
hints = (
{
horizontal = 1;
place = (691, 24);
place = (691, 24);
type = Stem;
},
{
place = (44, 350);
place = (44, 350);
type = Stem;
}
);
layerId = m01;
shapes = (
{
closed = 1;
nodes = (
(78,448,l),
(259,691,l),
(260,691,l),
(363,448,l),
(394,448,l),
(279,715,l),
(245,715,l),
(44,448,l)
);
}
);
width = 373;
}
);
note = asciicircum;
unicode = 94;
},
{
glyphname = underscore;
layers = (
{
hints = (
{
horizontal = 1;
place = (-166, 26);
place = (-166, 26);
type = Stem;
},
{
place = (-84, 380);
place = (-84, 380);
type = Stem;
}
);
layerId = m01;
shapes = (
{
closed = 1;
nodes = (
(-84,-166,l),
(291,-166,l),
(296,-140,l),
(-79,-140,l)
);
}
);
width = 367;
}
);
note = underscore;
unicode = 95;
},
{
glyphname = grave;
layers = (
{
hints = (
{
horizontal = 1;
place = (594, 127);
place = (594, 127);
type = Stem;
},
{
place = (226, 85);
place = (226, 85);
type = Stem;
}
);
layerId = m01;
shapes = (
{
closed = 1;
nodes = (
(311,594,l),
(263,721,l),
(226,721,l),
(283,594,l)
);
}
);
width = 452;
}
);
note = grave;
unicode = 96;
},
{
glyphname = a;
kernLeft = a;
kernRight = a;
layers = (
{
hints = (
{
horizontal = 1;
place = (-10, 26);
place = (-10, 26);
type = Stem;
},
{
horizontal = 1;
place = (500, 26);
place = (500, 26);
type = Stem;
},
{
place = (5, 30);
place = (5, 30);
type = Stem;
},
{
place = (408, 30);
place = (408, 30);
type = Stem;
},
{
place = (351, 27);
place = (351, 27);
type = Stem;
},
{
horizontal = 1;
place = (-4, 24);
place = (-4, 24);
type = Stem;
},
{
horizontal = 1;
place = (1, 21);
target = up;
type = BottomGhost;
}
);
layerId = m01;
shapes = (
{
closed = 1;
nodes = (
(61,277,o),
(5,223,o),
(5,133,cs),
(5,44,o),
(76,-10,o),
(168,-10,cs),
(264,-10,o),
(323,38,o),
(353,90,c),
(350,73,ls),
(341,30,o),
(356,-4,o),
(401,-4,cs),
(412,-4,o),
(420,-2,o),
(425,1,c),
(430,23,l),
(428,23,ls),
(423,22,o),
(415,20,o),
(408,20,cs),
(381,20,o),
(372,39,o),
(379,77,cs),
(434,346,ls),
(459,471,o),
(386,526,o),
(271,526,cs),
(146,526,o),
(80,459,o),
(63,372,c),
(93,372,l),
(109,447,o),
(161,500,o),
(270,500,cs),
(359,500,o),
(409,464,o),
(409,393,cs),
(409,350,o),
(399,326,o),
(370,311,cs),
(336,295,o),
(277,293,o),
(190,286,cs)
);
},
{
closed = 1;
nodes = (
(89,16,o),
(36,62,o),
(35,133,cs),
(35,208,o),
(74,251,o),
(191,261,cs),
(297,270,o),
(360,274,o),
(396,302,c),
(371,180,ls),
(354,93,o),
(284,16,o),
(170,16,cs)
);
}
);
width = 480;
}
);
note = a;
unicode = 97;
},
{
glyphname = b;
kernLeft = b;
kernRight = thorn;
layers = (
{
hints = (
{
horizontal = 1;
place = (-9, 25);
place = (-9, 25);
type = Stem;
},
{
horizontal = 1;
place = (500, 26);
place = (500, 26);
type = Stem;
},
{
horizontal = 1;
place = (715, -20);
target = down;
type = TopGhost;
},
{
place = (59, 15);
place = (59, 15);
type = Stem;
},
{
place = (463, 30);
place = (463, 30);
type = Stem;
},
{
horizontal = 1;
place = (0, 21);
target = up;
type = BottomGhost;
}
);
layerId = m01;
shapes = (
{
closed = 1;
nodes = (
(494,438,o),
(425,526,o),
(312,526,cs),
(215,526,o),
(150,473,o),
(108,396,c),
(170,715,l),
(140,715,l),
(2,0,l),
(32,0,l),
(58,138,l),
(59,138,l),
(76,61,o),
(135,-9,o),
(239,-9,cs),
(411,-9,o),
(493,162,o),
(493,315,cs)
);
},
{
closed = 1;
nodes = (
(463,179,o),
(392,16,o),
(240,16,cs),
(124,16,o),
(74,106,o),
(74,197,cs),
(75,328,o),
(148,500,o),
(308,500,cs),
(412,500,o),
(463,416,o),
(463,315,cs)
);
}
);
width = 516;
}
);
note = b;
unicode = 98;
},
{
glyphname = c;
kernLeft = c;
kernRight = c;
layers = (
{
hints = (
{
horizontal = 1;
place = (-10, 27);
place = (-10, 27);
type = Stem;
},
{
horizontal = 1;
place = (500, 26);
place = (500, 26);
type = Stem;
},
{
place = (23, 30);
place = (23, 30);
type = Stem;
},
{
place = (437, 28);
place = (437, 28);
type = Stem;
}
);
layerId = m01;
shapes = (
{
closed = 1;
nodes = (
(465,363,l),
(454,457,o),
(391,526,o),
(284,526,cs),
(115,526,o),
(23,364,o),
(23,208,cs),
(23,64,o),
(105,-10,o),
(225,-10,cs),
(333,-10,o),
(414,64,o),
(443,174,c),
(414,174,l),
(387,80,o),
(317,17,o),
(226,17,cs),
(115,17,o),
(53,89,o),
(53,208,cs),
(53,349,o),
(132,500,o),
(284,500,cs),
(381,500,o),
(428,434,o),
(437,363,c)
);
}
);
width = 474;
}
);
note = c;
unicode = 99;
},
{
glyphname = d;
kernLeft = d;
layers = (
{
hints = (
{
horizontal = 1;
place = (-10, 25);
place = (-10, 25);
type = Stem;
},
{
horizontal = 1;
place = (500, 26);
place = (500, 26);
type = Stem;
},
{
horizontal = 1;
place = (715, -20);
target = down;
type = TopGhost;
},
{
place = (21, 31);
place = (21, 31);
type = Stem;
},
{
place = (444, 16);
place = (444, 16);
type = Stem;
},
{
horizontal = 1;
place = (0, 21);
target = up;
type = BottomGhost;
}
);
layerId = m01;
shapes = (
{
closed = 1;
nodes = (
(21,74,o),
(96,-10,o),
(210,-10,cs),
(305,-10,o),
(369,43,o),
(409,119,c),
(387,0,l),
(417,0,l),
(555,715,l),
(525,715,l),
(460,377,l),
(459,377,l),
(442,455,o),
(386,526,o),
(286,526,cs),
(115,526,o),
(22,352,o),
(21,200,cs)
);
},
{
closed = 1;
nodes = (
(52,337,o),
(132,500,o),
(285,500,cs),
(395,500,o),
(445,407,o),
(444,319,cs),
(444,188,o),
(368,15,o),
(212,15,cs),
(107,15,o),
(52,97,o),
(52,200,cs)
);
}
);
width = 518;
}
);
note = d;
unicode = 100;
},
{
glyphname = e;
kernLeft = c;
kernRight = e;
layers = (
{
hints = (
{
horizontal = 1;
place = (-10, 26);
place = (-10, 26);
type = Stem;
},
{
horizontal = 1;
place = (256, 26);
place = (256, 26);
type = Stem;
},
{
horizontal = 1;
place = (500, 26);
place = (500, 26);
type = Stem;
},
{
place = (23, 30);
place = (23, 30);
type = Stem;
},
{
place = (438, 30);
place = (438, 30);
type = Stem;
}
);
layerId = m01;
shapes = (
{
closed = 1;
nodes = (
(463,256,l),
(475,336,o),
(467,421,o),
(416,474,cs),
(384,508,o),
(341,526,o),
(282,526,cs),
(118,526,o),
(23,363,o),
(23,210,cs),
(23,72,o),
(105,-10,o),
(226,-10,cs),
(337,-10,o),
(410,56,o),
(443,152,c),
(414,152,l),
(384,75,o),
(324,16,o),
(227,16,cs),
(116,16,o),
(53,94,o),
(53,210,cs),
(53,225,o),
(54,241,o),
(56,256,c)
);
},
{
closed = 1;
nodes = (
(406,500,o),
(450,399,o),
(435,282,c),
(60,282,l),
(83,398,o),
(162,500,o),
(281,500,cs)
);
}
);
width = 488;
}
);
note = e;
unicode = 101;
},
{
glyphname = f;
kernLeft = f;
kernRight = f;
layers = (
{
hints = (
{
horizontal = 1;
place = (0, 21);
target = up;
type = BottomGhost;
},
{
horizontal = 1;
place = (491, 26);
place = (491, 26);
type = Stem;
},
{
horizontal = 1;
place = (694, 26);
place = (694, 26);
type = Stem;
},
{
place = (40, 277);
place = (40, 277);
type = Stem;
}
);
layerId = m01;
shapes = (
{
closed = 1;
nodes = (
(317,719,l),
(311,720,o),
(283,720,o),
(276,720,cs),
(213,720,o),
(176,697,o),
(161,624,cs),
(140,517,l),
(68,517,l),
(63,491,l),
(136,491,l),
(40,0,l),
(70,0,l),
(165,491,l),
(273,491,l),
(278,517,l),
(170,517,l),
(191,620,ls),
(202,678,o),
(228,694,o),
(275,694,cs),
(282,694,o),
(306,693,o),
(311,692,c)
);
}
);
width = 252;
}
);
note = f;
unicode = 102;
},
{
glyphname = g;
kernLeft = g;
kernRight = g;
layers = (
{
hints = (
{
horizontal = 1;
place = (-179, 26);
place = (-179, 26);
type = Stem;
},
{
horizontal = 1;
place = (16, 26);
place = (16, 26);
type = Stem;
},
{
horizontal = 1;
place = (517, -20);
target = down;
type = TopGhost;
},
{
place = (8, 30);
place = (8, 30);
type = Stem;
},
{
place = (440, 16);
place = (440, 16);
type = Stem;
},
{
horizontal = 1;
place = (500, 26);
place = (500, 26);
type = Stem;
},
{
place = (23, 31);
place = (23, 31);
type = Stem;
}
);
layerId = m01;
shapes = (
{
closed = 1;
nodes = (
(8,-48,l),
(16,-137,o),
(95,-179,o),
(196,-179,cs),
(262,-179,o),
(313,-159,o),
(348,-125,cs),
(380,-94,o),
(401,-52,o),
(412,4,cs),
(512,517,l),
(482,517,l),
(456,381,l),
(455,381,l),
(436,467,o),
(374,526,o),
(280,526,cs),
(112,526,o),
(24,362,o),
(23,219,cs),
(23,100,o),
(89,16,o),
(211,16,cs),
(301,16,o),
(364,63,o),
(406,131,c),
(407,131,l),
(382,5,ls),
(364,-84,o),
(313,-153,o),
(196,-153,cs),
(110,-153,o),
(45,-118,o),
(38,-48,c)
);
},
{
closed = 1;
nodes = (
(54,349,o),
(129,500,o),
(279,500,cs),
(389,500,o),
(440,416,o),
(440,318,cs),
(440,194,o),
(365,42,o),
(214,42,cs),
(106,42,o),
(54,118,o),
(54,219,cs)
);
}
);
width = 514;
}
);
note = g;
unicode = 103;
},
{
glyphname = h;
kernLeft = b;
kernRight = h;
layers = (
{
hints = (
{
horizontal = 1;
place = (0, 21);
target = up;
type = BottomGhost;
},
{
horizontal = 1;
place = (499, 26);
place = (499, 26);
type = Stem;
},
{
horizontal = 1;
place = (715, -20);
target = down;
type = TopGhost;
},
{
place = (417, 30);
place = (417, 30);
type = Stem;
}
);
layerId = m01;
shapes = (
{
closed = 1;
nodes = (
(32,0,l),
(91,308,ls),
(109,402,o),
(207,499,o),
(320,499,cs),
(401,499,o),
(428,444,o),
(413,367,cs),
(342,0,l),
(372,0,l),
(443,367,ls),
(462,467,o),
(416,525,o),
(325,525,cs),
(227,525,o),
(152,464,o),
(110,397,c),
(108,397,l),
(170,715,l),
(140,715,l),
(2,0,l)
);
}
);
width = 471;
}
);
note = h;
unicode = 104;
},
{
glyphname = i;
kernLeft = b;
layers = (
{
hints = (
{
horizontal = 1;
place = (0, 21);
target = up;
type = BottomGhost;
},
{
horizontal = 1;
place = (517, -20);
target = down;
type = TopGhost;
},
{
horizontal = 1;
place = (644, 66);
place = (644, 66);
type = Stem;
},
{
place = (3, 167);
place = (3, 167);
type = Stem;
}
);
layerId = m01;
shapes = (
{
closed = 1;
nodes = (
(133,517,l),
(103,517,l),
(3,0,l),
(33,0,l)
);
},
{
closed = 1;
nodes = (
(170,710,l),
(141,710,l),
(128,644,l),
(158,644,l)
);
}
);
width = 136;
}
);
note = i;
unicode = 105;
},
{
glyphname = j;
kernLeft = j;
kernRight = j;
layers = (
{
hints = (
{
horizontal = 1;
place = (-156, 27);
place = (-156, 27);
type = Stem;
},
{
horizontal = 1;
place = (517, -20);
target = down;
type = TopGhost;
},
{
horizontal = 1;
place = (644, 66);
place = (644, 66);
type = Stem;
},
{
place = (-101, 285);
place = (-101, 285);
type = Stem;
}
);
layerId = m01;
shapes = (
{
closed = 1;
nodes = (
(117,517,l),
(3,-67,ls),
(-6,-110,o),
(-23,-129,o),
(-66,-129,cs),
(-73,-129,o),
(-89,-127,o),
(-95,-125,c),
(-96,-125,l),
(-101,-152,l),
(-94,-154,o),
(-75,-156,o),
(-66,-156,cs),
(-12,-156,o),
(20,-134,o),
(32,-72,cs),
(147,517,l)
);
},
{
closed = 1;
nodes = (
(184,710,l),
(154,710,l),
(141,644,l),
(171,644,l)
);
}
);
width = 149;
}
);
note = j;
unicode = 106;
},
{
glyphname = k;
kernLeft = b;
kernRight = k;
layers = (
{
hints = (
{
horizontal = 1;
place = (0, 21);
target = up;
type = BottomGhost;
},
{
horizontal = 1;
place = (517, -20);
target = down;
type = TopGhost;
},
{
horizontal = 1;
place = (715, -20);
target = down;
type = TopGhost;
},
{
place = (2, 449);
place = (2, 449);
type = Stem;
}
);
layerId = m01;
shapes = (
{
closed = 1;
nodes = (
(451,517,l),
(410,517,l),
(76,233,l),
(170,715,l),
(140,715,l),
(2,0,l),
(32,0,l),
(69,193,l),
(203,307,l),
(354,0,l),
(387,0,l),
(227,327,l)
);
}
);
width = 428;
}
);
note = k;
unicode = 107;
},
{
glyphname = l;
kernLeft = b;
layers = (
{
hints = (
{
horizontal = 1;
place = (0, 21);
target = up;
type = BottomGhost;
},
{
horizontal = 1;
place = (715, -20);
target = down;
type = TopGhost;
},
{
place = (5, 168);
place = (5, 168);
type = Stem;
}
);
layerId = m01;
shapes = (
{
closed = 1;
nodes = (
(173,715,l),
(143,715,l),
(5,0,l),
(35,0,l)
);
}
);
width = 139;
}
);
note = l;
unicode = 108;
},
{
glyphname = m;
kernLeft = m;
kernRight = h;
layers = (
{
hints = (
{
horizontal = 1;
place = (0, 21);
target = up;
type = BottomGhost;
},
{
horizontal = 1;
place = (499, 26);
place = (499, 26);
type = Stem;
},
{
place = (383, 24);
place = (383, 24);
type = Stem;
},
{
place = (688, 31);
place = (688, 31);
type = Stem;
},
{
horizontal = 1;
place = (517, -20);
target = down;
type = TopGhost;
}
);
layerId = m01;
shapes = (
{
closed = 1;
nodes = (
(32,0,l),
(91,310,ls),
(109,402,o),
(200,499,o),
(303,499,cs),
(374,499,o),
(393,441,o),
(378,367,cs),
(307,0,l),
(337,0,l),
(396,307,ls),
(414,399,o),
(506,499,o),
(608,499,cs),
(679,499,o),
(699,445,o),
(684,368,cs),
(613,0,l),
(643,0,l),
(714,368,ls),
(733,465,o),
(697,525,o),
(613,525,cs),
(523,525,o),
(446,454,o),
(408,391,c),
(407,391,l),
(415,472,o),
(384,525,o),
(307,525,cs),
(216,525,o),
(148,460,o),
(110,400,c),
(109,400,l),
(132,517,l),
(102,517,l),
(2,0,l)
);
}
);
width = 743;
}
);
note = m;
unicode = 109;
},
{
glyphname = n;
kernLeft = m;
kernRight = h;
layers = (
{
hints = (
{
horizontal = 1;
place = (0, 21);
target = up;
type = BottomGhost;
},
{
horizontal = 1;
place = (499, 26);
place = (499, 26);
type = Stem;
},
{
place = (417, 30);
place = (417, 30);
type = Stem;
},
{
horizontal = 1;
place = (517, -20);
target = down;
type = TopGhost;
}
);
layerId = m01;
shapes = (
{
closed = 1;
nodes = (
(32,0,l),
(91,308,ls),
(110,404,o),
(207,499,o),
(320,499,cs),
(401,499,o),
(428,444,o),
(413,367,cs),
(342,0,l),
(372,0,l),
(443,367,ls),
(462,467,o),
(416,525,o),
(325,525,cs),
(227,525,o),
(152,464,o),
(110,397,c),
(108,397,l),
(132,517,l),
(102,517,l),
(2,0,l)
);
}
);
width = 471;
}
);
note = n;
unicode = 110;
},
{
glyphname = o;
kernLeft = c;
kernRight = o;
layers = (
{
hints = (
{
horizontal = 1;
place = (-10, 26);
place = (-10, 26);
type = Stem;
},
{
horizontal = 1;
place = (500, 26);
place = (500, 26);
type = Stem;
},
{
place = (23, 30);
place = (23, 30);
type = Stem;
},
{
place = (458, 30);
place = (458, 30);
type = Stem;
}
);
layerId = m01;
shapes = (
{
closed = 1;
nodes = (
(399,-10,o),
(488,150,o),
(488,304,cs),
(488,440,o),
(401,526,o),
(283,526,cs),
(114,526,o),
(23,365,o),
(23,209,cs),
(23,71,o),
(113,-10,o),
(230,-10,cs)
);
},
{
closed = 1;
nodes = (
(124,16,o),
(53,93,o),
(53,211,cs),
(53,356,o),
(135,500,o),
(282,500,cs),
(392,500,o),
(458,417,o),
(458,302,cs),
(458,161,o),
(378,16,o),
(230,16,cs)
);
}
);
width = 511;
}
);
note = o;
unicode = 111;
},
{
glyphname = p;
kernLeft = p;
kernRight = thorn;
layers = (
{
hints = (
{
horizontal = 1;
place = (-166, 21);
target = up;
type = BottomGhost;
},
{
horizontal = 1;
place = (-9, 25);
place = (-9, 25);
type = Stem;
},
{
horizontal = 1;
place = (500, 26);
place = (500, 26);
type = Stem;
},
{
place = (59, 15);
place = (59, 15);
type = Stem;
},
{
place = (463, 30);
place = (463, 30);
type = Stem;
},
{
horizontal = 1;
place = (517, -20);
target = down;
type = TopGhost;
}
);
layerId = m01;
shapes = (
{
closed = 1;
nodes = (
(494,438,o),
(425,526,o),
(312,526,cs),
(215,526,o),
(150,472,o),
(108,396,c),
(132,517,l),
(102,517,l),
(-31,-166,l),
(-1,-166,l),
(58,138,l),
(59,138,l),
(75,61,o),
(135,-9,o),
(239,-9,cs),
(411,-9,o),
(493,162,o),
(493,315,cs)
);
},
{
closed = 1;
nodes = (
(463,179,o),
(392,16,o),
(240,16,cs),
(124,16,o),
(74,106,o),
(74,197,cs),
(75,328,o),
(148,500,o),
(308,500,cs),
(412,500,o),
(463,416,o),
(463,315,cs)
);
}
);
width = 516;
}
);
note = p;
unicode = 112;
},
{
glyphname = q;
kernLeft = d;
kernRight = q;
layers = (
{
hints = (
{
horizontal = 1;
place = (-166, 21);
target = up;
type = BottomGhost;
},
{
horizontal = 1;
place = (-10, 25);
place = (-10, 25);
type = Stem;
},
{
horizontal = 1;
place = (500, 26);
place = (500, 26);
type = Stem;
},
{
place = (21, 31);
place = (21, 31);
type = Stem;
},
{
place = (444, 16);
place = (444, 16);
type = Stem;
},
{
horizontal = 1;
place = (517, -20);
target = down;
type = TopGhost;
}
);
layerId = m01;
shapes = (
{
closed = 1;
nodes = (
(21,74,o),
(94,-10,o),
(207,-10,cs),
(303,-10,o),
(367,42,o),
(409,119,c),
(355,-166,l),
(384,-166,l),
(517,517,l),
(487,517,l),
(460,377,l),
(459,377,l),
(442,455,o),
(386,526,o),
(286,526,cs),
(115,526,o),
(22,352,o),
(21,200,cs)
);
},
{
closed = 1;
nodes = (
(52,337,o),
(132,500,o),
(285,500,cs),
(395,500,o),
(445,407,o),
(444,319,cs),
(444,188,o),
(368,15,o),
(210,15,cs),
(106,15,o),
(52,97,o),
(52,200,cs)
);
}
);
width = 519;
}
);
note = q;
unicode = 113;
},
{
glyphname = r;
kernLeft = m;
kernRight = r;
layers = (
{
hints = (
{
horizontal = 1;
place = (0, 21);
target = up;
type = BottomGhost;
},
{
horizontal = 1;
place = (488, 31);
place = (488, 31);
type = Stem;
},
{
place = (2, 318);
place = (2, 318);
type = Stem;
}
);
layerId = m01;
shapes = (
{
closed = 1;
nodes = (
(320,519,l),
(305,521,o),
(278,520,o),
(252,514,cs),
(182,498,o),
(137,446,o),
(108,388,c),
(107,388,l),
(132,517,l),
(102,517,l),
(2,0,l),
(32,0,l),
(87,287,ls),
(105,379,o),
(178,476,o),
(258,488,cs),
(280,492,o),
(302,491,o),
(314,490,cs),
(315,490,l)
);
}
);
width = 287;
}
);
note = r;
unicode = 114;
},
{
glyphname = s;
kernLeft = scaron;
kernRight = scaron;
layers = (
{
hints = (
{
horizontal = 1;
place = (-10, 26);
place = (-10, 26);
type = Stem;
},
{
horizontal = 1;
place = (499, 27);
place = (499, 27);
type = Stem;
},
{
place = (0, 30);
place = (0, 30);
type = Stem;
},
{
place = (61, 29);
place = (61, 29);
type = Stem;
},
{
place = (352, 29);
place = (352, 29);
type = Stem;
},
{
place = (376, 28);
place = (376, 28);
type = Stem;
}
);
layerId = m01;
shapes = (
{
closed = 1;
nodes = (
(0,154,l),
(2,49,o),
(84,-10,o),
(195,-10,cs),
(300,-10,o),
(381,42,o),
(381,138,cs),
(381,217,o),
(328,245,o),
(229,282,cs),
(134,317,o),
(90,339,o),
(90,398,cs),
(90,470,o),
(154,499,o),
(229,499,cs),
(313,499,o),
(369,457,o),
(376,380,c),
(404,380,l),
(398,470,o),
(332,526,o),
(230,526,cs),
(139,526,o),
(61,483,o),
(61,398,cs),
(61,321,o),
(117,292,o),
(213,257,cs),
(309,221,o),
(352,198,o),
(352,138,cs),
(352,54,o),
(284,16,o),
(196,16,cs),
(93,16,o),
(34,68,o),
(30,154,c)
);
}
);
width = 428;
}
);
note = s;
unicode = 115;
},
{
glyphname = t;
kernLeft = t;
kernRight = t;
layers = (
{
hints = (
{
horizontal = 1;
place = (-3, 26);
place = (-3, 26);
type = Stem;
},
{
horizontal = 1;
place = (491, 26);
place = (491, 26);
type = Stem;
},
{
place = (59, 133);
place = (59, 133);
type = Stem;
}
);
layerId = m01;
shapes = (
{
closed = 1;
nodes = (
(65,491,l),
(138,491,l),
(62,96,ls),
(50,35,o),
(74,-3,o),
(138,-3,cs),
(160,-3,o),
(179,1,o),
(190,6,c),
(195,32,l),
(193,32,l),
(181,27,o),
(163,23,o),
(142,23,cs),
(97,23,o),
(83,47,o),
(92,95,cs),
(169,491,l),
(279,491,l),
(285,517,l),
(173,517,l),
(204,677,l),
(174,677,l),
(143,517,l),
(70,517,l)
);
}
);
width = 266;
}
);
note = t;
unicode = 116;
},
{
glyphname = u;
kernLeft = u;
kernRight = u;
layers = (
{
hints = (
{
horizontal = 1;
place = (-9, 26);
place = (-9, 26);
type = Stem;
},
{
horizontal = 1;
place = (517, -20);
target = down;
type = TopGhost;
},
{
place = (23, 29);
place = (23, 29);
type = Stem;
},
{
horizontal = 1;
place = (0, 21);
target = up;
type = BottomGhost;
}
);
layerId = m01;
shapes = (
{
closed = 1;
nodes = (
(431,517,l),
(372,214,ls),
(353,114,o),
(257,17,o),
(146,17,cs),
(66,17,o),
(41,73,o),
(56,150,cs),
(128,517,l),
(98,517,l),
(27,151,ls),
(7,50,o),
(53,-9,o),
(141,-9,cs),
(237,-9,o),
(311,53,o),
(352,118,c),
(354,118,l),
(330,0,l),
(360,0,l),
(461,517,l)
);
}
);
width = 465;
}
);
note = u;
unicode = 117;
},
{
glyphname = v;
kernLeft = v;
kernRight = v;
layers = (
{
hints = (
{
horizontal = 1;
place = (0, 21);
target = up;
type = BottomGhost;
},
{
horizontal = 1;
place = (517, -20);
target = down;
type = TopGhost;
},
{
place = (53, 417);
place = (53, 417);
type = Stem;
}
);
layerId = m01;
shapes = (
{
closed = 1;
nodes = (
(83,517,l),
(53,517,l),
(150,0,l),
(186,0,l),
(470,517,l),
(439,517,l),
(265,200,ls),
(228,133,o),
(173,30,o),
(173,30,c),
(172,30,l),
(172,30,o),
(154,135,o),
(141,203,cs)
);
}
);
width = 428;
}
);
note = v;
unicode = 118;
},
{
glyphname = w;
kernLeft = w;
kernRight = w;
layers = (
{
hints = (
{
horizontal = 1;
place = (0, 21);
target = up;
type = BottomGhost;
},
{
horizontal = 1;
place = (480, 37);
place = (480, 37);
type = Stem;
},
{
place = (56, 670);
place = (56, 670);
type = Stem;
}
);
layerId = m01;
shapes = (
{
closed = 1;
nodes = (
(87,517,l),
(56,517,l),
(123,0,l),
(159,0,l),
(328,362,ls),
(349,408,o),
(381,480,o),
(381,480,c),
(382,480,l),
(382,480,o),
(388,413,o),
(394,363,cs),
(439,0,l),
(474,0,l),
(726,517,l),
(695,517,l),
(536,186,ls),
(504,121,o),
(463,32,o),
(463,32,c),
(462,32,l),
(462,32,o),
(454,118,o),
(446,182,cs),
(404,517,l),
(371,517,l),
(214,181,ls),
(185,119,o),
(146,34,o),
(146,34,c),
(145,34,l),
(145,34,o),
(139,119,o),
(129,187,cs)
);
}
);
width = 687;
}
);
note = w;
unicode = 119;
},
{
glyphname = x;
kernLeft = x;
kernRight = x;
layers = (
{
hints = (
{
horizontal = 1;
place = (0, 21);
target = up;
type = BottomGhost;
},
{
horizontal = 1;
place = (517, -20);
target = down;
type = TopGhost;
},
{
place = (-43, 490);
place = (-43, 490);
type = Stem;
}
);
layerId = m01;
shapes = (
{
closed = 1;
nodes = (
(-43,0,l),
(-7,0,l),
(214,254,l),
(344,0,l),
(378,0,l),
(236,273,l),
(447,517,l),
(411,517,l),
(221,297,l),
(110,517,l),
(76,517,l),
(199,278,l)
);
}
);
width = 433;
}
);
note = x;
unicode = 120;
},
{
glyphname = y;
kernLeft = yacute;
kernRight = yacute;
layers = (
{
hints = (
{
horizontal = 1;
place = (-169, 28);
place = (-169, 28);
type = Stem;
},
{
horizontal = 1;
place = (517, -20);
target = down;
type = TopGhost;
},
{
place = (-16, 494);
place = (-16, 494);
type = Stem;
},
{
horizontal = 1;
place = (-161, 20);
place = (-161, 20);
type = Stem;
}
);
layerId = m01;
shapes = (
{
closed = 1;
nodes = (
(478,517,l),
(447,517,l),
(257,166,ls),
(223,102,o),
(192,42,o),
(192,42,c),
(191,42,l),
(191,42,o),
(178,106,o),
(164,169,cs),
(83,517,l),
(52,517,l),
(172,8,l),
(136,-58,ls),
(100,-122,o),
(74,-141,o),
(34,-141,cs),
(13,-141,o),
(1,-137,o),
(-8,-133,c),
(-10,-133,l),
(-16,-161,l),
(-5,-165,o),
(10,-169,o),
(33,-169,cs),
(85,-169,o),
(118,-147,o),
(160,-70,cs)
);
}
);
width = 439;
}
);
note = y;
unicode = 121;
},
{
glyphname = z;
kernLeft = zcaron;
kernRight = zcaron;
layers = (
{
hints = (
{
horizontal = 1;
place = (0, 27);
place = (0, 27);
type = Stem;
},
{
horizontal = 1;
place = (490, 27);
place = (490, 27);
type = Stem;
},
{
place = (-21, 455);
place = (-21, 455);
type = Stem;
}
);
layerId = m01;
shapes = (
{
closed = 1;
nodes = (
(-21,0,l),
(346,0,l),
(351,27,l),
(22,27,l),
(22,28,l),
(429,492,l),
(434,517,l),
(96,517,l),
(90,490,l),
(389,490,l),
(389,489,l),
(-16,27,l)
);
}
);
width = 420;
}
);
note = z;
unicode = 122;
},
{
glyphname = braceleft;
kernRight = bracketleft;
layers = (
{
hints = (
{
horizontal = 1;
place = (-118, 28);
place = (-118, 28);
type = Stem;
},
{
horizontal = 1;
place = (309, 28);
place = (309, 28);
type = Stem;
},
{
horizontal = 1;
place = (727, 27);
place = (727, 27);
type = Stem;
},
{
place = (34, 30);
place = (34, 30);
type = Stem;
},
{
place = (91, 30);
place = (91, 30);
type = Stem;
}
);
layerId = m01;
shapes = (
{
closed = 1;
nodes = (
(304,754,l),
(287,754,ls),
(208,754,o),
(179,725,o),
(161,629,cs),
(118,402,ls),
(110,359,o),
(94,338,o),
(49,337,cs),
(41,337,l),
(35,309,l),
(46,309,ls),
(84,309,o),
(97,288,o),
(88,245,cs),
(39,3,ls),
(23,-74,o),
(42,-117,o),
(127,-118,cs),
(134,-118,l),
(140,-90,l),
(130,-90,ls),
(69,-90,o),
(55,-65,o),
(69,-2,cs),
(118,241,ls),
(127,283,o),
(117,307,o),
(92,321,c),
(92,322,l),
(125,333,o),
(140,357,o),
(148,396,cs),
(190,623,ls),
(206,707,o),
(227,727,o),
(287,727,cs),
(298,727,l)
);
}
);
width = 246;
}
);
note = braceleft;
unicode = 123;
},
{
glyphname = bar;
layers = (
{
hints = (
{
horizontal = 1;
place = (-118, 872);
place = (-118, 872);
type = Stem;
},
{
place = (96, 29);
place = (96, 29);
type = Stem;
}
);
layerId = m01;
shapes = (
{
closed = 1;
nodes = (
(96,-118,l),
(125,-118,l),
(125,754,l),
(96,754,l)
);
}
);
width = 180;
}
);
note = bar;
unicode = 124;
},
{
glyphname = braceright;
kernLeft = bracketright;
layers = (
{
hints = (
{
horizontal = 1;
place = (-118, 28);
place = (-118, 28);
type = Stem;
},
{
horizontal = 1;
place = (299, 28);
place = (299, 28);
type = Stem;
},
{
horizontal = 1;
place = (727, 27);
place = (727, 27);
type = Stem;
},
{
place = (206, 30);
place = (206, 30);
type = Stem;
},
{
place = (149, 30);
place = (149, 30);
type = Stem;
}
);
layerId = m01;
shapes = (
{
closed = 1;
nodes = (
(-17,-118,ls),
(62,-118,o),
(91,-89,o),
(109,7,cs),
(152,234,ls),
(160,278,o),
(176,298,o),
(220,299,cs),
(229,299,l),
(234,327,l),
(224,327,ls),
(186,327,o),
(173,348,o),
(182,391,cs),
(231,633,ls),
(246,710,o),
(228,753,o),
(143,754,cs),
(136,754,l),
(130,727,l),
(139,727,ls),
(201,727,o),
(214,700,o),
(201,637,cs),
(152,395,ls),
(143,353,o),
(153,329,o),
(178,315,c),
(178,314,l),
(145,303,o),
(130,279,o),
(122,240,cs),
(79,13,ls),
(63,-71,o),
(42,-90,o),
(-17,-90,cs),
(-29,-90,l),
(-34,-118,l)
);
}
);
width = 246;
}
);
note = braceright;
unicode = 125;
},
{
glyphname = asciitilde;
layers = (
{
hints = (
{
horizontal = 1;
place = (288, 28);
place = (288, 28);
type = Stem;
},
{
horizontal = 1;
place = (353, 28);
place = (353, 28);
type = Stem;
},
{
place = (43, 28);
place = (43, 28);
type = Stem;
},
{
place = (330, 29);
place = (330, 29);
type = Stem;
}
);
layerId = m01;
shapes = (
{
closed = 1;
nodes = (
(321,288,o),
(352,322,o),
(359,377,c),
(330,377,l),
(325,338,o),
(304,316,o),
(276,316,cs),
(249,316,o),
(232,330,o),
(209,347,cs),
(182,365,o),
(161,381,o),
(128,381,cs),
(81,381,o),
(51,347,o),
(43,291,c),
(71,291,l),
(77,330,o),
(97,353,o),
(126,353,cs),
(151,353,o),
(169,339,o),
(193,322,cs),
(221,303,o),
(242,288,o),
(274,288,cs)
);
}
);
width = 377;
}
);
note = asciitilde;
unicode = 126;
},
{
glyphname = Adieresis;
kernLeft = A;
kernRight = A;
layers = (
{
hints = (
{
horizontal = 1;
place = (0, 21);
target = up;
type = BottomGhost;
},
{
horizontal = 1;
place = (244, 27);
place = (244, 27);
type = Stem;
},
{
horizontal = 1;
place = (681, 34);
place = (681, 34);
type = Stem;
},
{
horizontal = 1;
place = (770, 66);
place = (770, 66);
type = Stem;
},
{
place = (-42, 576);
place = (-42, 576);
type = Stem;
}
);
layerId = m01;
shapes = (
{
closed = 1;
nodes = (
(503,0,l),
(534,0,l),
(385,715,l),
(351,715,l),
(-42,0,l),
(-10,0,l),
(124,244,l),
(452,244,l)
);
},
{
closed = 1;
nodes = (
(306,575,ls),
(331,621,o),
(362,681,o),
(362,681,c),
(363,681,l),
(363,681,o),
(377,611,o),
(384,577,cs),
(447,271,l),
(139,271,l)
);
},
{
closed = 1;
nodes = (
(281,770,l),
(311,770,l),
(325,836,l),
(294,836,l)
);
},
{
closed = 1;
nodes = (
(428,770,l),
(458,770,l),
(471,836,l),
(441,836,l)
);
}
);
width = 593;
}
);
note = Adieresis;
unicode = 196;
},
{
glyphname = Aring;
kernLeft = A;
kernRight = A;
layers = (
{
hints = (
{
horizontal = 1;
place = (0, 21);
target = up;
type = BottomGhost;
},
{
horizontal = 1;
place = (244, 27);
place = (244, 27);
type = Stem;
},
{
horizontal = 1;
place = (681, 34);
place = (681, 34);
type = Stem;
},
{
horizontal = 1;
place = (749, 22);
place = (749, 22);
type = Stem;
},
{
horizontal = 1;
place = (888, 22);
place = (888, 22);
type = Stem;
},
{
place = (297, 24);
place = (297, 24);
type = Stem;
},
{
place = (434, 25);
place = (434, 25);
type = Stem;
}
);
layerId = m01;
shapes = (
{
closed = 1;
nodes = (
(503,0,l),
(534,0,l),
(385,715,l),
(351,715,l),
(-42,0,l),
(-10,0,l),
(124,244,l),
(452,244,l)
);
},
{
closed = 1;
nodes = (
(306,575,ls),
(331,621,o),
(362,681,o),
(362,681,c),
(363,681,l),
(363,681,o),
(377,611,o),
(384,577,cs),
(447,271,l),
(139,271,l)
);
},
{
closed = 1;
nodes = (
(424,749,o),
(459,783,o),
(459,830,cs),
(459,876,o),
(424,910,o),
(378,910,cs),
(332,910,o),
(297,876,o),
(297,830,cs),
(297,783,o),
(332,749,o),
(378,749,cs)
);
},
{
closed = 1;
nodes = (
(344,771,o),
(321,796,o),
(321,830,cs),
(321,864,o),
(344,888,o),
(378,888,cs),
(412,888,o),
(434,864,o),
(434,830,cs),
(434,796,o),
(412,771,o),
(378,771,cs)
);
}
);
width = 593;
}
);
note = Aring;
unicode = 197;
},
{
glyphname = Ccedilla;
kernLeft = C;
kernRight = C;
layers = (
{
hints = (
{
horizontal = 1;
place = (-186, 23);
place = (-186, 23);
type = Stem;
},
{
horizontal = 1;
place = (-76, 22);
place = (-76, 22);
type = Stem;
},
{
horizontal = 1;
place = (-9, 27);
place = (-9, 27);
type = Stem;
},
{
horizontal = 1;
place = (698, 27);
place = (698, 27);
type = Stem;
},
{
place = (48, 33);
place = (48, 33);
type = Stem;
},
{
place = (339, 29);
place = (339, 29);
type = Stem;
},
{
horizontal = 1;
place = (-160, 21);
target = up;
type = BottomGhost;
}
);
layerId = m01;
shapes = (
{
closed = 1;
nodes = (
(312,-186,o),
(368,-169,o),
(368,-113,cs),
(368,-77,o),
(342,-53,o),
(295,-54,cs),
(289,-54,o),
(283,-55,o),
(278,-56,c),
(332,-10,l),
(494,-8,o),
(595,106,o),
(629,253,c),
(599,253,l),
(568,121,o),
(475,18,o),
(329,18,cs),
(160,18,o),
(81,135,o),
(81,296,cs),
(81,488,o),
(189,698,o),
(408,698,cs),
(535,698,o),
(606,628,o),
(622,517,c),
(652,517,l),
(635,650,o),
(544,725,o),
(409,725,cs),
(173,725,o),
(48,501,o),
(48,295,cs),
(48,125,o),
(134,3,o),
(301,-9,c),
(232,-70,l),
(240,-85,l),
(253,-81,o),
(271,-76,o),
(290,-76,cs),
(321,-76,o),
(339,-90,o),
(339,-114,cs),
(339,-151,o),
(301,-163,o),
(263,-163,cs),
(234,-163,o),
(207,-154,o),
(186,-142,c),
(175,-160,l),
(198,-176,o),
(232,-186,o),
(267,-186,cs)
);
}
);
width = 651;
}
);
note = Ccedilla;
unicode = 199;
},
{
glyphname = Eacute;
kernRight = E;
layers = (
{
hints = (
{
horizontal = 1;
place = (0, 29);
place = (0, 29);
type = Stem;
},
{
horizontal = 1;
place = (356, 28);
place = (356, 28);
type = Stem;
},
{
horizontal = 1;
place = (687, 180);
place = (687, 180);
type = Stem;
},
{
place = (14, 572);
place = (14, 572);
type = Stem;
},
{
horizontal = 1;
place = (687, 28);
place = (687, 28);
type = Stem;
}
);
layerId = m01;
shapes = (
{
closed = 1;
nodes = (
(359,755,l),
(387,755,l),
(467,867,l),
(428,867,l)
);
},
{
closed = 1;
nodes = (
(14,0,l),
(471,0,l),
(477,29,l),
(51,29,l),
(114,356,l),
(489,356,l),
(494,384,l),
(119,384,l),
(178,687,l),
(581,687,l),
(586,715,l),
(151,715,l)
);
}
);
width = 556;
}
);
note = Eacute;
unicode = 201;
},
{
glyphname = Ntilde;
layers = (
{
hints = (
{
horizontal = 1;
place = (0, 21);
target = up;
type = BottomGhost;
},
{
horizontal = 1;
place = (715, -20);
target = down;
type = TopGhost;
},
{
horizontal = 1;
place = (766, 27);
place = (766, 27);
type = Stem;
},
{
place = (292, 26);
place = (292, 26);
type = Stem;
},
{
place = (539, 26);
place = (539, 26);
type = Stem;
},
{
horizontal = 1;
place = (670, 45);
place = (670, 45);
type = Stem;
},
{
horizontal = 1;
place = (818, 27);
place = (818, 27);
type = Stem;
}
);
layerId = m01;
shapes = (
{
closed = 1;
nodes = (
(663,715,l),
(633,715,l),
(503,47,l),
(502,47,l),
(502,47,o),
(475,111,o),
(447,170,cs),
(187,715,l),
(152,715,l),
(14,0,l),
(44,0,l),
(174,670,l),
(174,670,o),
(212,588,o),
(238,532,cs),
(492,0,l),
(525,0,l)
);
},
{
closed = 1;
nodes = (
(529,766,o),
(557,793,o),
(565,845,c),
(539,845,l),
(533,810,o),
(516,793,o),
(494,793,cs),
(453,793,o),
(415,845,o),
(364,845,cs),
(329,845,o),
(300,816,o),
(292,766,c),
(318,766,l),
(324,801,o),
(342,818,o),
(363,818,cs),
(403,818,o),
(443,766,o),
(493,766,cs)
);
}
);
width = 639;
}
);
note = Ntilde;
unicode = 209;
},
{
glyphname = Odieresis;
kernLeft = C;
kernRight = O;
layers = (
{
hints = (
{
horizontal = 1;
place = (-10, 28);
place = (-10, 28);
type = Stem;
},
{
horizontal = 1;
place = (697, 29);
place = (697, 29);
type = Stem;
},
{
horizontal = 1;
place = (770, 66);
place = (770, 66);
type = Stem;
},
{
place = (48, 32);
place = (48, 32);
type = Stem;
},
{
place = (669, 32);
place = (669, 32);
type = Stem;
}
);
layerId = m01;
shapes = (
{
closed = 1;
nodes = (
(339,770,l),
(369,770,l),
(383,836,l),
(352,836,l)
);
},
{
closed = 1;
nodes = (
(486,770,l),
(516,770,l),
(529,836,l),
(499,836,l)
);
},
{
closed = 1;
nodes = (
(572,-10,o),
(701,189,o),
(701,409,cs),
(701,608,o),
(572,726,o),
(405,726,cs),
(186,726,o),
(48,523,o),
(48,305,cs),
(48,106,o),
(179,-10,o),
(346,-10,cs)
);
},
{
closed = 1;
nodes = (
(190,18,o),
(80,130,o),
(80,305,cs),
(80,511,o),
(203,697,o),
(404,697,cs),
(559,697,o),
(669,586,o),
(669,409,cs),
(669,202,o),
(551,18,o),
(347,18,cs)
);
}
);
width = 712;
}
);
note = Odieresis;
unicode = 214;
},
{
glyphname = Udieresis;
kernLeft = U;
kernRight = U;
layers = (
{
hints = (
{
horizontal = 1;
place = (-9, 28);
place = (-9, 28);
type = Stem;
},
{
horizontal = 1;
place = (715, -20);
target = down;
type = TopGhost;
},
{
horizontal = 1;
place = (770, 66);
place = (770, 66);
type = Stem;
},
{
place = (46, 32);
place = (46, 32);
type = Stem;
}
);
layerId = m01;
shapes = (
{
closed = 1;
nodes = (
(314,770,l),
(344,770,l),
(358,836,l),
(327,836,l)
);
},
{
closed = 1;
nodes = (
(461,770,l),
(491,770,l),
(504,836,l),
(474,836,l)
);
},
{
closed = 1;
nodes = (
(142,715,l),
(53,253,ls),
(18,75,o),
(120,-9,o),
(280,-9,cs),
(424,-9,o),
(521,67,o),
(548,209,cs),
(647,715,l),
(616,715,l),
(517,212,ls),
(492,83,o),
(410,19,o),
(283,19,cs),
(124,19,o),
(55,103,o),
(84,252,cs),
(174,715,l)
);
}
);
width = 614;
}
);
note = Udieresis;
unicode = 220;
},
{
glyphname = aacute;
kernLeft = a;
kernRight = a;
layers = (
{
hints = (
{
horizontal = 1;
place = (-10, 26);
place = (-10, 26);
type = Stem;
},
{
horizontal = 1;
place = (500, 26);
place = (500, 26);
type = Stem;
},
{
horizontal = 1;
place = (721, -20);
target = down;
type = TopGhost;
},
{
place = (5, 30);
place = (5, 30);
type = Stem;
},
{
place = (408, 30);
place = (408, 30);
type = Stem;
},
{
place = (351, 27);
place = (351, 27);
type = Stem;
},
{
horizontal = 1;
place = (-4, 24);
place = (-4, 24);
type = Stem;
},
{
horizontal = 1;
place = (1, 21);
target = up;
type = BottomGhost;
},
{
horizontal = 1;
place = (594, 127);
place = (594, 127);
type = Stem;
}
);
layerId = m01;
shapes = (
{
closed = 1;
nodes = (
(61,277,o),
(5,223,o),
(5,133,cs),
(5,44,o),
(76,-10,o),
(168,-10,cs),
(264,-10,o),
(323,38,o),
(353,90,c),
(350,73,ls),
(341,30,o),
(356,-4,o),
(401,-4,cs),
(412,-4,o),
(420,-2,o),
(425,1,c),
(430,23,l),
(428,23,ls),
(423,22,o),
(415,20,o),
(408,20,cs),
(381,20,o),
(372,39,o),
(379,77,cs),
(434,346,ls),
(459,471,o),
(386,526,o),
(271,526,cs),
(146,526,o),
(80,459,o),
(63,372,c),
(93,372,l),
(109,447,o),
(161,500,o),
(270,500,cs),
(359,500,o),
(409,464,o),
(409,393,cs),
(409,350,o),
(399,326,o),
(370,311,cs),
(336,295,o),
(277,293,o),
(190,286,cs)
);
},
{
closed = 1;
nodes = (
(89,16,o),
(36,62,o),
(35,133,cs),
(35,208,o),
(74,251,o),
(191,261,cs),
(297,270,o),
(360,274,o),
(396,302,c),
(371,180,ls),
(354,93,o),
(284,16,o),
(170,16,cs)
);
},
{
closed = 1;
nodes = (
(269,594,l),
(297,594,l),
(381,721,l),
(342,721,l)
);
}
);
width = 480;
}
);
note = aacute;
unicode = 225;
},
{
glyphname = agrave;
kernLeft = a;
kernRight = a;
layers = (
{
hints = (
{
horizontal = 1;
place = (-10, 26);
place = (-10, 26);
type = Stem;
},
{
horizontal = 1;
place = (500, 26);
place = (500, 26);
type = Stem;
},
{
horizontal = 1;
place = (721, -20);
target = down;
type = TopGhost;
},
{
place = (5, 30);
place = (5, 30);
type = Stem;
},
{
place = (408, 30);
place = (408, 30);
type = Stem;
},
{
place = (351, 27);
place = (351, 27);
type = Stem;
},
{
horizontal = 1;
place = (-4, 24);
place = (-4, 24);
type = Stem;
},
{
horizontal = 1;
place = (1, 21);
target = up;
type = BottomGhost;
},
{
horizontal = 1;
place = (594, 127);
place = (594, 127);
type = Stem;
}
);
layerId = m01;
shapes = (
{
closed = 1;
nodes = (
(61,277,o),
(5,223,o),
(5,133,cs),
(5,44,o),
(76,-10,o),
(168,-10,cs),
(264,-10,o),
(323,38,o),
(353,90,c),
(350,73,ls),
(341,30,o),
(356,-4,o),
(401,-4,cs),
(412,-4,o),
(420,-2,o),
(425,1,c),
(430,23,l),
(428,23,ls),
(423,22,o),
(415,20,o),
(408,20,cs),
(381,20,o),
(372,39,o),
(379,77,cs),
(434,346,ls),
(459,471,o),
(386,526,o),
(271,526,cs),
(146,526,o),
(80,459,o),
(63,372,c),
(93,372,l),
(109,447,o),
(161,500,o),
(270,500,cs),
(359,500,o),
(409,464,o),
(409,393,cs),
(409,350,o),
(399,326,o),
(370,311,cs),
(336,295,o),
(277,293,o),
(190,286,cs)
);
},
{
closed = 1;
nodes = (
(89,16,o),
(36,62,o),
(35,133,cs),
(35,208,o),
(74,251,o),
(191,261,cs),
(297,270,o),
(360,274,o),
(396,302,c),
(371,180,ls),
(354,93,o),
(284,16,o),
(170,16,cs)
);
},
{
closed = 1;
nodes = (
(308,594,l),
(260,721,l),
(223,721,l),
(280,594,l)
);
}
);
width = 480;
}
);
note = agrave;
unicode = 224;
},
{
glyphname = acircumflex;
kernLeft = a;
kernRight = a;
layers = (
{
hints = (
{
horizontal = 1;
place = (-10, 26);
place = (-10, 26);
type = Stem;
},
{
horizontal = 1;
place = (500, 26);
place = (500, 26);
type = Stem;
},
{
horizontal = 1;
place = (683, 21);
place = (683, 21);
type = Stem;
},
{
place = (5, 30);
place = (5, 30);
type = Stem;
},
{
place = (408, 30);
place = (408, 30);
type = Stem;
},
{
place = (351, 27);
place = (351, 27);
type = Stem;
},
{
horizontal = 1;
place = (-4, 24);
place = (-4, 24);
type = Stem;
},
{
horizontal = 1;
place = (1, 21);
target = up;
type = BottomGhost;
}
);
layerId = m01;
shapes = (
{
closed = 1;
nodes = (
(61,277,o),
(5,223,o),
(5,133,cs),
(5,44,o),
(76,-10,o),
(168,-10,cs),
(264,-10,o),
(323,38,o),
(353,90,c),
(350,73,ls),
(341,30,o),
(356,-4,o),
(401,-4,cs),
(412,-4,o),
(420,-2,o),
(425,1,c),
(430,23,l),
(428,23,ls),
(423,22,o),
(415,20,o),
(408,20,cs),
(381,20,o),
(372,39,o),
(379,77,cs),
(434,346,ls),
(459,471,o),
(386,526,o),
(271,526,cs),
(146,526,o),
(80,459,o),
(63,372,c),
(93,372,l),
(109,447,o),
(161,500,o),
(270,500,cs),
(359,500,o),
(409,464,o),
(409,393,cs),
(409,350,o),
(399,326,o),
(370,311,cs),
(336,295,o),
(277,293,o),
(190,286,cs)
);
},
{
closed = 1;
nodes = (
(89,16,o),
(36,62,o),
(35,133,cs),
(35,208,o),
(74,251,o),
(191,261,cs),
(297,270,o),
(360,274,o),
(396,302,c),
(371,180,ls),
(354,93,o),
(284,16,o),
(170,16,cs)
);
},
{
closed = 1;
nodes = (
(321,704,l),
(284,704,l),
(182,599,l),
(217,599,l),
(300,683,l),
(301,683,l),
(359,599,l),
(392,599,l)
);
}
);
width = 480;
}
);
note = acircumflex;
unicode = 226;
},
{
glyphname = adieresis;
kernLeft = a;
kernRight = a;
layers = (
{
hints = (
{
horizontal = 1;
place = (-10, 26);
place = (-10, 26);
type = Stem;
},
{
horizontal = 1;
place = (500, 26);
place = (500, 26);
type = Stem;
},
{
horizontal = 1;
place = (644, 65);
place = (644, 65);
type = Stem;
},
{
place = (5, 30);
place = (5, 30);
type = Stem;
},
{
place = (408, 30);
place = (408, 30);
type = Stem;
},
{
place = (351, 27);
place = (351, 27);
type = Stem;
},
{
horizontal = 1;
place = (-4, 24);
place = (-4, 24);
type = Stem;
},
{
horizontal = 1;
place = (1, 21);
target = up;
type = BottomGhost;
}
);
layerId = m01;
shapes = (
{
closed = 1;
nodes = (
(61,277,o),
(5,223,o),
(5,133,cs),
(5,44,o),
(76,-10,o),
(168,-10,cs),
(264,-10,o),
(323,38,o),
(353,90,c),
(350,73,ls),
(341,30,o),
(356,-4,o),
(401,-4,cs),
(412,-4,o),
(420,-2,o),
(425,1,c),
(430,23,l),
(428,23,ls),
(423,22,o),
(415,20,o),
(408,20,cs),
(381,20,o),
(372,39,o),
(379,77,cs),
(434,346,ls),
(459,471,o),
(386,526,o),
(271,526,cs),
(146,526,o),
(80,459,o),
(63,372,c),
(93,372,l),
(109,447,o),
(161,500,o),
(270,500,cs),
(359,500,o),
(409,464,o),
(409,393,cs),
(409,350,o),
(399,326,o),
(370,311,cs),
(336,295,o),
(277,293,o),
(190,286,cs)
);
},
{
closed = 1;
nodes = (
(89,16,o),
(36,62,o),
(35,133,cs),
(35,208,o),
(74,251,o),
(191,261,cs),
(297,270,o),
(360,274,o),
(396,302,c),
(371,180,ls),
(354,93,o),
(284,16,o),
(170,16,cs)
);
},
{
closed = 1;
nodes = (
(195,644,l),
(226,644,l),
(238,709,l),
(208,709,l)
);
},
{
closed = 1;
nodes = (
(342,644,l),
(372,644,l),
(385,709,l),
(355,709,l)
);
}
);
width = 480;
}
);
note = adieresis;
unicode = 228;
},
{
glyphname = atilde;
kernLeft = a;
kernRight = a;
layers = (
{
hints = (
{
horizontal = 1;
place = (-10, 26);
place = (-10, 26);
type = Stem;
},
{
horizontal = 1;
place = (500, 26);
place = (500, 26);
type = Stem;
},
{
horizontal = 1;
place = (659, 27);
place = (659, 27);
type = Stem;
},
{
place = (5, 30);
place = (5, 30);
type = Stem;
},
{
place = (408, 30);
place = (408, 30);
type = Stem;
},
{
place = (351, 27);
place = (351, 27);
type = Stem;
},
{
horizontal = 1;
place = (-4, 24);
place = (-4, 24);
type = Stem;
},
{
horizontal = 1;
place = (1, 21);
target = up;
type = BottomGhost;
},
{
horizontal = 1;
place = (607, 27);
place = (607, 27);
type = Stem;
},
{
place = (406, 26);
place = (406, 26);
type = Stem;
},
{
place = (161, 26);
place = (161, 26);
type = Stem;
}
);
layerId = m01;
shapes = (
{
closed = 1;
nodes = (
(61,277,o),
(5,223,o),
(5,133,cs),
(5,44,o),
(76,-10,o),
(168,-10,cs),
(264,-10,o),
(323,38,o),
(353,90,c),
(350,73,ls),
(341,30,o),
(356,-4,o),
(401,-4,cs),
(412,-4,o),
(420,-2,o),
(425,1,c),
(430,23,l),
(428,23,ls),
(423,22,o),
(415,20,o),
(408,20,cs),
(381,20,o),
(372,39,o),
(379,77,cs),
(434,346,ls),
(459,471,o),
(386,526,o),
(271,526,cs),
(146,526,o),
(80,459,o),
(63,372,c),
(93,372,l),
(109,447,o),
(161,500,o),
(270,500,cs),
(359,500,o),
(409,464,o),
(409,393,cs),
(409,350,o),
(399,326,o),
(370,311,cs),
(336,295,o),
(277,293,o),
(190,286,cs)
);
},
{
closed = 1;
nodes = (
(89,16,o),
(36,62,o),
(35,133,cs),
(35,208,o),
(74,251,o),
(191,261,cs),
(297,270,o),
(360,274,o),
(396,302,c),
(371,180,ls),
(354,93,o),
(284,16,o),
(170,16,cs)
);
},
{
closed = 1;
nodes = (
(396,607,o),
(425,634,o),
(433,686,c),
(407,686,l),
(401,651,o),
(384,634,o),
(362,634,cs),
(320,634,o),
(284,686,o),
(233,686,cs),
(198,686,o),
(169,657,o),
(161,607,c),
(187,607,l),
(193,642,o),
(211,659,o),
(232,659,cs),
(272,659,o),
(311,607,o),
(361,607,cs)
);
}
);
width = 480;
}
);
note = atilde;
unicode = 227;
},
{
glyphname = aring;
kernLeft = a;
kernRight = a;
layers = (
{
hints = (
{
horizontal = 1;
place = (-10, 26);
place = (-10, 26);
type = Stem;
},
{
horizontal = 1;
place = (500, 26);
place = (500, 26);
type = Stem;
},
{
horizontal = 1;
place = (571, 22);
place = (571, 22);
type = Stem;
},
{
horizontal = 1;
place = (710, 22);
place = (710, 22);
type = Stem;
},
{
place = (5, 30);
place = (5, 30);
type = Stem;
},
{
place = (217, 25);
place = (217, 25);
type = Stem;
},
{
place = (408, 30);
place = (408, 30);
type = Stem;
},
{
place = (351, 27);
place = (351, 27);
type = Stem;
},
{
horizontal = 1;
place = (-4, 24);
place = (-4, 24);
type = Stem;
},
{
horizontal = 1;
place = (1, 21);
target = up;
type = BottomGhost;
},
{
place = (353, 25);
place = (353, 25);
type = Stem;
}
);
layerId = m01;
shapes = (
{
closed = 1;
nodes = (
(61,277,o),
(5,223,o),
(5,133,cs),
(5,44,o),
(76,-10,o),
(168,-10,cs),
(264,-10,o),
(323,38,o),
(353,90,c),
(350,73,ls),
(341,30,o),
(356,-4,o),
(401,-4,cs),
(412,-4,o),
(420,-2,o),
(425,1,c),
(430,23,l),
(428,23,ls),
(423,22,o),
(415,20,o),
(408,20,cs),
(381,20,o),
(372,39,o),
(379,77,cs),
(434,346,ls),
(459,471,o),
(386,526,o),
(271,526,cs),
(146,526,o),
(80,459,o),
(63,372,c),
(93,372,l),
(109,447,o),
(161,500,o),
(270,500,cs),
(359,500,o),
(409,464,o),
(409,393,cs),
(409,350,o),
(399,326,o),
(370,311,cs),
(336,295,o),
(277,293,o),
(190,286,cs)
);
},
{
closed = 1;
nodes = (
(89,16,o),
(36,62,o),
(35,133,cs),
(35,208,o),
(74,251,o),
(191,261,cs),
(297,270,o),
(360,274,o),
(396,302,c),
(371,180,ls),
(354,93,o),
(284,16,o),
(170,16,cs)
);
},
{
closed = 1;
nodes = (
(345,571,o),
(379,605,o),
(379,652,cs),
(379,698,o),
(345,732,o),
(298,732,cs),
(252,732,o),
(217,698,o),
(217,652,cs),
(217,605,o),
(252,571,o),
(298,571,cs)
);
},
{
closed = 1;
nodes = (
(264,593,o),
(242,618,o),
(242,652,cs),
(242,685,o),
(264,710,o),
(298,710,cs),
(332,710,o),
(354,685,o),
(354,652,cs),
(354,618,o),
(332,593,o),
(298,593,cs)
);
}
);
width = 480;
}
);
note = aring;
unicode = 229;
},
{
glyphname = ccedilla;
kernLeft = c;
kernRight = c;
layers = (
{
hints = (
{
horizontal = 1;
place = (-186, 23);
place = (-186, 23);
type = Stem;
},
{
horizontal = 1;
place = (-76, 22);
place = (-76, 22);
type = Stem;
},
{
horizontal = 1;
place = (-9, 26);
place = (-9, 26);
type = Stem;
},
{
horizontal = 1;
place = (500, 26);
place = (500, 26);
type = Stem;
},
{
place = (23, 30);
place = (23, 30);
type = Stem;
},
{
place = (245, 29);
place = (245, 29);
type = Stem;
},
{
place = (437, 28);
place = (437, 28);
type = Stem;
},
{
horizontal = 1;
place = (-160, 21);
target = up;
type = BottomGhost;
}
);
layerId = m01;
shapes = (
{
closed = 1;
nodes = (
(218,-186,o),
(274,-169,o),
(274,-113,cs),
(274,-77,o),
(248,-53,o),
(201,-54,cs),
(195,-54,o),
(189,-55,o),
(184,-56,c),
(238,-10,l),
(339,-4,o),
(415,68,o),
(443,174,c),
(414,174,l),
(387,80,o),
(317,17,o),
(226,17,cs),
(115,17,o),
(53,89,o),
(53,208,cs),
(53,349,o),
(132,500,o),
(284,500,cs),
(381,500,o),
(428,434,o),
(437,363,c),
(465,363,l),
(454,457,o),
(391,526,o),
(284,526,cs),
(115,526,o),
(23,364,o),
(23,208,cs),
(23,71,o),
(98,-3,o),
(207,-9,c),
(138,-70,l),
(146,-85,l),
(159,-81,o),
(177,-76,o),
(196,-76,cs),
(227,-76,o),
(245,-90,o),
(245,-114,cs),
(245,-151,o),
(207,-163,o),
(169,-163,cs),
(140,-163,o),
(113,-154,o),
(92,-142,c),
(81,-160,l),
(104,-176,o),
(138,-186,o),
(173,-186,cs)
);
}
);
width = 474;
}
);
note = ccedilla;
unicode = 231;
},
{
glyphname = eacute;
kernLeft = c;
kernRight = e;
layers = (
{
hints = (
{
horizontal = 1;
place = (-10, 26);
place = (-10, 26);
type = Stem;
},
{
horizontal = 1;
place = (256, 26);
place = (256, 26);
type = Stem;
},
{
horizontal = 1;
place = (500, 26);
place = (500, 26);
type = Stem;
},
{
horizontal = 1;
place = (721, -20);
target = down;
type = TopGhost;
},
{
place = (23, 30);
place = (23, 30);
type = Stem;
},
{
place = (438, 30);
place = (438, 30);
type = Stem;
},
{
horizontal = 1;
place = (594, 127);
place = (594, 127);
type = Stem;
}
);
layerId = m01;
shapes = (
{
closed = 1;
nodes = (
(463,256,l),
(475,336,o),
(467,421,o),
(416,474,cs),
(384,508,o),
(341,526,o),
(282,526,cs),
(118,526,o),
(23,363,o),
(23,210,cs),
(23,72,o),
(105,-10,o),
(226,-10,cs),
(337,-10,o),
(410,56,o),
(443,152,c),
(414,152,l),
(384,75,o),
(324,16,o),
(227,16,cs),
(116,16,o),
(53,94,o),
(53,210,cs),
(53,225,o),
(54,241,o),
(56,256,c)
);
},
{
closed = 1;
nodes = (
(406,500,o),
(450,399,o),
(435,282,c),
(60,282,l),
(83,398,o),
(162,500,o),
(281,500,cs)
);
},
{
closed = 1;
nodes = (
(273,594,l),
(301,594,l),
(385,721,l),
(346,721,l)
);
}
);
width = 488;
}
);
note = eacute;
unicode = 233;
},
{
glyphname = egrave;
kernLeft = c;
kernRight = e;
layers = (
{
hints = (
{
horizontal = 1;
place = (-10, 26);
place = (-10, 26);
type = Stem;
},
{
horizontal = 1;
place = (256, 26);
place = (256, 26);
type = Stem;
},
{
horizontal = 1;
place = (500, 26);
place = (500, 26);
type = Stem;
},
{
horizontal = 1;
place = (721, -20);
target = down;
type = TopGhost;
},
{
place = (23, 30);
place = (23, 30);
type = Stem;
},
{
place = (438, 30);
place = (438, 30);
type = Stem;
},
{
horizontal = 1;
place = (594, 127);
place = (594, 127);
type = Stem;
}
);
layerId = m01;
shapes = (
{
closed = 1;
nodes = (
(463,256,l),
(475,336,o),
(467,421,o),
(416,474,cs),
(384,508,o),
(341,526,o),
(282,526,cs),
(118,526,o),
(23,363,o),
(23,210,cs),
(23,72,o),
(105,-10,o),
(226,-10,cs),
(337,-10,o),
(410,56,o),
(443,152,c),
(414,152,l),
(384,75,o),
(324,16,o),
(227,16,cs),
(116,16,o),
(53,94,o),
(53,210,cs),
(53,225,o),
(54,241,o),
(56,256,c)
);
},
{
closed = 1;
nodes = (
(406,500,o),
(450,399,o),
(435,282,c),
(60,282,l),
(83,398,o),
(162,500,o),
(281,500,cs)
);
},
{
closed = 1;
nodes = (
(313,594,l),
(265,721,l),
(228,721,l),
(285,594,l)
);
}
);
width = 488;
}
);
note = egrave;
unicode = 232;
},
{
glyphname = ecircumflex;
kernLeft = c;
kernRight = e;
layers = (
{
hints = (
{
horizontal = 1;
place = (-10, 26);
place = (-10, 26);
type = Stem;
},
{
horizontal = 1;
place = (256, 26);
place = (256, 26);
type = Stem;
},
{
horizontal = 1;
place = (500, 26);
place = (500, 26);
type = Stem;
},
{
horizontal = 1;
place = (683, 21);
place = (683, 21);
type = Stem;
},
{
place = (23, 30);
place = (23, 30);
type = Stem;
},
{
place = (438, 30);
place = (438, 30);
type = Stem;
}
);
layerId = m01;
shapes = (
{
closed = 1;
nodes = (
(463,256,l),
(475,336,o),
(467,421,o),
(416,474,cs),
(384,508,o),
(341,526,o),
(282,526,cs),
(118,526,o),
(23,363,o),
(23,210,cs),
(23,72,o),
(105,-10,o),
(226,-10,cs),
(337,-10,o),
(410,56,o),
(443,152,c),
(414,152,l),
(384,75,o),
(324,16,o),
(227,16,cs),
(116,16,o),
(53,94,o),
(53,210,cs),
(53,225,o),
(54,241,o),
(56,256,c)
);
},
{
closed = 1;
nodes = (
(406,500,o),
(450,399,o),
(435,282,c),
(60,282,l),
(83,398,o),
(162,500,o),
(281,500,cs)
);
},
{
closed = 1;
nodes = (
(328,704,l),
(291,704,l),
(189,599,l),
(224,599,l),
(307,683,l),
(308,683,l),
(366,599,l),
(399,599,l)
);
}
);
width = 488;
}
);
note = ecircumflex;
unicode = 234;
},
{
glyphname = edieresis;
kernLeft = c;
kernRight = e;
layers = (
{
hints = (
{
horizontal = 1;
place = (-10, 26);
place = (-10, 26);
type = Stem;
},
{
horizontal = 1;
place = (256, 26);
place = (256, 26);
type = Stem;
},
{
horizontal = 1;
place = (500, 26);
place = (500, 26);
type = Stem;
},
{
horizontal = 1;
place = (644, 65);
place = (644, 65);
type = Stem;
},
{
place = (23, 30);
place = (23, 30);
type = Stem;
},
{
place = (438, 30);
place = (438, 30);
type = Stem;
}
);
layerId = m01;
shapes = (
{
closed = 1;
nodes = (
(463,256,l),
(475,336,o),
(467,421,o),
(416,474,cs),
(384,508,o),
(341,526,o),
(282,526,cs),
(118,526,o),
(23,363,o),
(23,210,cs),
(23,72,o),
(105,-10,o),
(226,-10,cs),
(337,-10,o),
(410,56,o),
(443,152,c),
(414,152,l),
(384,75,o),
(324,16,o),
(227,16,cs),
(116,16,o),
(53,94,o),
(53,210,cs),
(53,225,o),
(54,241,o),
(56,256,c)
);
},
{
closed = 1;
nodes = (
(406,500,o),
(450,399,o),
(435,282,c),
(60,282,l),
(83,398,o),
(162,500,o),
(281,500,cs)
);
},
{
closed = 1;
nodes = (
(216,644,l),
(247,644,l),
(259,709,l),
(229,709,l)
);
},
{
closed = 1;
nodes = (
(363,644,l),
(393,644,l),
(406,709,l),
(376,709,l)
);
}
);
width = 488;
}
);
note = edieresis;
unicode = 235;
},
{
glyphname = iacute;
kernLeft = b;
layers = (
{
hints = (
{
horizontal = 1;
place = (0, 21);
target = up;
type = BottomGhost;
},
{
horizontal = 1;
place = (517, -20);
target = down;
type = TopGhost;
},
{
horizontal = 1;
place = (594, 127);
place = (594, 127);
type = Stem;
},
{
place = (3, 223);
place = (3, 223);
type = Stem;
}
);
layerId = m01;
shapes = (
{
closed = 1;
nodes = (
(148,594,l),
(226,721,l),
(188,721,l),
(121,594,l)
);
},
{
closed = 1;
nodes = (
(133,517,l),
(103,517,l),
(3,0,l),
(33,0,l)
);
}
);
width = 136;
}
);
note = iacute;
unicode = 237;
},
{
glyphname = igrave;
kernLeft = b;
layers = (
{
hints = (
{
horizontal = 1;
place = (0, 21);
target = up;
type = BottomGhost;
},
{
horizontal = 1;
place = (517, -20);
target = down;
type = TopGhost;
},
{
horizontal = 1;
place = (721, -20);
target = down;
type = TopGhost;
},
{
place = (3, 135);
place = (3, 135);
type = Stem;
},
{
horizontal = 1;
place = (594, 127);
place = (594, 127);
type = Stem;
}
);
layerId = m01;
shapes = (
{
closed = 1;
nodes = (
(62,721,l),
(111,594,l),
(138,594,l),
(98,721,l)
);
},
{
closed = 1;
nodes = (
(133,517,l),
(103,517,l),
(3,0,l),
(33,0,l)
);
}
);
width = 136;
}
);
note = igrave;
unicode = 236;
},
{
glyphname = icircumflex;
kernLeft = b;
layers = (
{
hints = (
{
horizontal = 1;
place = (0, 21);
target = up;
type = BottomGhost;
},
{
horizontal = 1;
place = (517, -20);
target = down;
type = TopGhost;
},
{
horizontal = 1;
place = (684, 20);
place = (684, 20);
type = Stem;
},
{
place = (3, 218);
place = (3, 218);
type = Stem;
}
);
layerId = m01;
shapes = (
{
closed = 1;
nodes = (
(164,704,l),
(128,704,l),
(38,599,l),
(71,599,l),
(144,684,l),
(145,684,l),
(191,599,l),
(221,599,l)
);
},
{
closed = 1;
nodes = (
(133,517,l),
(103,517,l),
(3,0,l),
(33,0,l)
);
}
);
width = 136;
}
);
note = icircumflex;
unicode = 238;
},
{
glyphname = idieresis;
kernLeft = b;
layers = (
{
hints = (
{
horizontal = 1;
place = (0, 21);
target = up;
type = BottomGhost;
},
{
horizontal = 1;
place = (517, -20);
target = down;
type = TopGhost;
},
{
horizontal = 1;
place = (644, 65);
place = (644, 65);
type = Stem;
},
{
place = (3, 216);
place = (3, 216);
type = Stem;
}
);
layerId = m01;
shapes = (
{
closed = 1;
nodes = (
(116,709,l),
(86,709,l),
(73,644,l),
(103,644,l)
);
},
{
closed = 1;
nodes = (
(219,709,l),
(189,709,l),
(177,644,l),
(206,644,l)
);
},
{
closed = 1;
nodes = (
(133,517,l),
(103,517,l),
(3,0,l),
(33,0,l)
);
}
);
width = 136;
}
);
note = idieresis;
unicode = 239;
},
{
glyphname = ntilde;
kernLeft = m;
kernRight = h;
layers = (
{
hints = (
{
horizontal = 1;
place = (0, 21);
target = up;
type = BottomGhost;
},
{
horizontal = 1;
place = (499, 26);
place = (499, 26);
type = Stem;
},
{
horizontal = 1;
place = (659, 27);
place = (659, 27);
type = Stem;
},
{
place = (417, 30);
place = (417, 30);
type = Stem;
},
{
horizontal = 1;
place = (517, -20);
target = down;
type = TopGhost;
},
{
horizontal = 1;
place = (607, 27);
place = (607, 27);
type = Stem;
},
{
place = (410, 26);
place = (410, 26);
type = Stem;
},
{
place = (164, 26);
place = (164, 26);
type = Stem;
}
);
layerId = m01;
shapes = (
{
closed = 1;
nodes = (
(32,0,l),
(91,308,ls),
(110,404,o),
(207,499,o),
(320,499,cs),
(401,499,o),
(428,444,o),
(413,367,cs),
(342,0,l),
(372,0,l),
(443,367,ls),
(462,467,o),
(416,525,o),
(325,525,cs),
(227,525,o),
(152,464,o),
(110,397,c),
(108,397,l),
(132,517,l),
(102,517,l),
(2,0,l)
);
},
{
closed = 1;
nodes = (
(399,607,o),
(428,634,o),
(436,686,c),
(410,686,l),
(404,651,o),
(387,634,o),
(365,634,cs),
(323,634,o),
(287,686,o),
(236,686,cs),
(201,686,o),
(172,657,o),
(164,607,c),
(190,607,l),
(196,642,o),
(214,659,o),
(235,659,cs),
(275,659,o),
(314,607,o),
(364,607,cs)
);
}
);
width = 471;
}
);
note = ntilde;
unicode = 241;
},
{
glyphname = oacute;
kernLeft = c;
kernRight = o;
layers = (
{
hints = (
{
horizontal = 1;
place = (-10, 26);
place = (-10, 26);
type = Stem;
},
{
horizontal = 1;
place = (500, 26);
place = (500, 26);
type = Stem;
},
{
horizontal = 1;
place = (594, 127);
place = (594, 127);
type = Stem;
},
{
place = (23, 30);
place = (23, 30);
type = Stem;
},
{
place = (458, 30);
place = (458, 30);
type = Stem;
}
);
layerId = m01;
shapes = (
{
closed = 1;
nodes = (
(282,594,l),
(310,594,l),
(394,721,l),
(355,721,l)
);
},
{
closed = 1;
nodes = (
(399,-10,o),
(488,150,o),
(488,304,cs),
(488,440,o),
(401,526,o),
(283,526,cs),
(114,526,o),
(23,365,o),
(23,209,cs),
(23,71,o),
(113,-10,o),
(230,-10,cs)
);
},
{
closed = 1;
nodes = (
(124,16,o),
(53,93,o),
(53,211,cs),
(53,356,o),
(135,500,o),
(282,500,cs),
(392,500,o),
(458,417,o),
(458,302,cs),
(458,161,o),
(378,16,o),
(230,16,cs)
);
}
);
width = 511;
}
);
note = oacute;
unicode = 243;
},
{
glyphname = ograve;
kernLeft = c;
kernRight = o;
layers = (
{
hints = (
{
horizontal = 1;
place = (-10, 26);
place = (-10, 26);
type = Stem;
},
{
horizontal = 1;
place = (500, 26);
place = (500, 26);
type = Stem;
},
{
horizontal = 1;
place = (721, -20);
target = down;
type = TopGhost;
},
{
place = (23, 30);
place = (23, 30);
type = Stem;
},
{
place = (458, 30);
place = (458, 30);
type = Stem;
},
{
horizontal = 1;
place = (594, 127);
place = (594, 127);
type = Stem;
}
);
layerId = m01;
shapes = (
{
closed = 1;
nodes = (
(399,-10,o),
(488,150,o),
(488,304,cs),
(488,440,o),
(401,526,o),
(283,526,cs),
(114,526,o),
(23,365,o),
(23,209,cs),
(23,71,o),
(113,-10,o),
(230,-10,cs)
);
},
{
closed = 1;
nodes = (
(124,16,o),
(53,93,o),
(53,211,cs),
(53,356,o),
(135,500,o),
(282,500,cs),
(392,500,o),
(458,417,o),
(458,302,cs),
(458,161,o),
(378,16,o),
(230,16,cs)
);
},
{
closed = 1;
nodes = (
(318,594,l),
(270,721,l),
(233,721,l),
(290,594,l)
);
}
);
width = 511;
}
);
note = ograve;
unicode = 242;
},
{
glyphname = ocircumflex;
kernLeft = c;
kernRight = o;
layers = (
{
hints = (
{
horizontal = 1;
place = (-10, 26);
place = (-10, 26);
type = Stem;
},
{
horizontal = 1;
place = (500, 26);
place = (500, 26);
type = Stem;
},
{
horizontal = 1;
place = (683, 21);
place = (683, 21);
type = Stem;
},
{
place = (23, 30);
place = (23, 30);
type = Stem;
},
{
place = (458, 30);
place = (458, 30);
type = Stem;
}
);
layerId = m01;
shapes = (
{
closed = 1;
nodes = (
(338,704,l),
(301,704,l),
(199,599,l),
(234,599,l),
(317,683,l),
(318,683,l),
(376,599,l),
(409,599,l)
);
},
{
closed = 1;
nodes = (
(399,-10,o),
(488,150,o),
(488,304,cs),
(488,440,o),
(401,526,o),
(283,526,cs),
(114,526,o),
(23,365,o),
(23,209,cs),
(23,71,o),
(113,-10,o),
(230,-10,cs)
);
},
{
closed = 1;
nodes = (
(124,16,o),
(53,93,o),
(53,211,cs),
(53,356,o),
(135,500,o),
(282,500,cs),
(392,500,o),
(458,417,o),
(458,302,cs),
(458,161,o),
(378,16,o),
(230,16,cs)
);
}
);
width = 511;
}
);
note = ocircumflex;
unicode = 244;
},
{
glyphname = odieresis;
kernLeft = c;
kernRight = o;
layers = (
{
hints = (
{
horizontal = 1;
place = (-10, 26);
place = (-10, 26);
type = Stem;
},
{
horizontal = 1;
place = (500, 26);
place = (500, 26);
type = Stem;
},
{
horizontal = 1;
place = (644, 65);
place = (644, 65);
type = Stem;
},
{
place = (23, 30);
place = (23, 30);
type = Stem;
},
{
place = (458, 30);
place = (458, 30);
type = Stem;
}
);
layerId = m01;
shapes = (
{
closed = 1;
nodes = (
(225,644,l),
(256,644,l),
(268,709,l),
(238,709,l)
);
},
{
closed = 1;
nodes = (
(372,644,l),
(402,644,l),
(415,709,l),
(385,709,l)
);
},
{
closed = 1;
nodes = (
(399,-10,o),
(488,150,o),
(488,304,cs),
(488,440,o),
(401,526,o),
(283,526,cs),
(114,526,o),
(23,365,o),
(23,209,cs),
(23,71,o),
(113,-10,o),
(230,-10,cs)
);
},
{
closed = 1;
nodes = (
(124,16,o),
(53,93,o),
(53,211,cs),
(53,356,o),
(135,500,o),
(282,500,cs),
(392,500,o),
(458,417,o),
(458,302,cs),
(458,161,o),
(378,16,o),
(230,16,cs)
);
}
);
width = 511;
}
);
note = odieresis;
unicode = 246;
},
{
glyphname = otilde;
kernLeft = c;
kernRight = o;
layers = (
{
hints = (
{
horizontal = 1;
place = (-10, 26);
place = (-10, 26);
type = Stem;
},
{
horizontal = 1;
place = (500, 26);
place = (500, 26);
type = Stem;
},
{
horizontal = 1;
place = (659, 27);
place = (659, 27);
type = Stem;
},
{
place = (23, 30);
place = (23, 30);
type = Stem;
},
{
place = (458, 30);
place = (458, 30);
type = Stem;
},
{
horizontal = 1;
place = (607, 27);
place = (607, 27);
type = Stem;
},
{
place = (422, 26);
place = (422, 26);
type = Stem;
},
{
place = (176, 26);
place = (176, 26);
type = Stem;
}
);
layerId = m01;
shapes = (
{
closed = 1;
nodes = (
(399,-10,o),
(488,150,o),
(488,304,cs),
(488,440,o),
(401,526,o),
(283,526,cs),
(114,526,o),
(23,365,o),
(23,209,cs),
(23,71,o),
(113,-10,o),
(230,-10,cs)
);
},
{
closed = 1;
nodes = (
(124,16,o),
(53,93,o),
(53,211,cs),
(53,356,o),
(135,500,o),
(282,500,cs),
(392,500,o),
(458,417,o),
(458,302,cs),
(458,161,o),
(378,16,o),
(230,16,cs)
);
},
{
closed = 1;
nodes = (
(411,607,o),
(440,634,o),
(448,686,c),
(422,686,l),
(416,651,o),
(399,634,o),
(377,634,cs),
(335,634,o),
(299,686,o),
(248,686,cs),
(213,686,o),
(184,657,o),
(176,607,c),
(202,607,l),
(208,642,o),
(226,659,o),
(247,659,cs),
(287,659,o),
(326,607,o),
(376,607,cs)
);
}
);
width = 511;
}
);
note = otilde;
unicode = 245;
},
{
glyphname = uacute;
kernLeft = u;
kernRight = u;
layers = (
{
hints = (
{
horizontal = 1;
place = (-9, 26);
place = (-9, 26);
type = Stem;
},
{
horizontal = 1;
place = (517, -20);
target = down;
type = TopGhost;
},
{
horizontal = 1;
place = (594, 127);
place = (594, 127);
type = Stem;
},
{
place = (23, 29);
place = (23, 29);
type = Stem;
},
{
horizontal = 1;
place = (0, 21);
target = up;
type = BottomGhost;
},
{
horizontal = 1;
place = (721, -20);
target = down;
type = TopGhost;
}
);
layerId = m01;
shapes = (
{
closed = 1;
nodes = (
(267,594,l),
(295,594,l),
(379,721,l),
(340,721,l)
);
},
{
closed = 1;
nodes = (
(431,517,l),
(372,214,ls),
(353,114,o),
(257,17,o),
(146,17,cs),
(66,17,o),
(41,73,o),
(56,150,cs),
(128,517,l),
(98,517,l),
(27,151,ls),
(7,50,o),
(53,-9,o),
(141,-9,cs),
(237,-9,o),
(311,53,o),
(352,118,c),
(354,118,l),
(330,0,l),
(360,0,l),
(461,517,l)
);
}
);
width = 465;
}
);
note = uacute;
unicode = 250;
},
{
glyphname = ugrave;
kernLeft = u;
kernRight = u;
layers = (
{
hints = (
{
horizontal = 1;
place = (-9, 26);
place = (-9, 26);
type = Stem;
},
{
horizontal = 1;
place = (517, -20);
target = down;
type = TopGhost;
},
{
horizontal = 1;
place = (721, -20);
target = down;
type = TopGhost;
},
{
place = (23, 29);
place = (23, 29);
type = Stem;
},
{
horizontal = 1;
place = (0, 21);
target = up;
type = BottomGhost;
},
{
horizontal = 1;
place = (594, 127);
place = (594, 127);
type = Stem;
}
);
layerId = m01;
shapes = (
{
closed = 1;
nodes = (
(431,517,l),
(372,214,ls),
(353,114,o),
(257,17,o),
(146,17,cs),
(66,17,o),
(41,73,o),
(56,150,cs),
(128,517,l),
(98,517,l),
(27,151,ls),
(7,50,o),
(53,-9,o),
(141,-9,cs),
(237,-9,o),
(311,53,o),
(352,118,c),
(354,118,l),
(330,0,l),
(360,0,l),
(461,517,l)
);
},
{
closed = 1;
nodes = (
(308,594,l),
(260,721,l),
(223,721,l),
(280,594,l)
);
}
);
width = 465;
}
);
note = ugrave;
unicode = 249;
},
{
glyphname = ucircumflex;
kernLeft = u;
kernRight = u;
layers = (
{
hints = (
{
horizontal = 1;
place = (-9, 26);
place = (-9, 26);
type = Stem;
},
{
horizontal = 1;
place = (517, -20);
target = down;
type = TopGhost;
},
{
horizontal = 1;
place = (683, 21);
place = (683, 21);
type = Stem;
},
{
place = (23, 29);
place = (23, 29);
type = Stem;
},
{
horizontal = 1;
place = (0, 21);
target = up;
type = BottomGhost;
}
);
layerId = m01;
shapes = (
{
closed = 1;
nodes = (
(326,704,l),
(289,704,l),
(187,599,l),
(222,599,l),
(305,683,l),
(306,683,l),
(364,599,l),
(397,599,l)
);
},
{
closed = 1;
nodes = (
(431,517,l),
(372,214,ls),
(353,114,o),
(257,17,o),
(146,17,cs),
(66,17,o),
(41,73,o),
(56,150,cs),
(128,517,l),
(98,517,l),
(27,151,ls),
(7,50,o),
(53,-9,o),
(141,-9,cs),
(237,-9,o),
(311,53,o),
(352,118,c),
(354,118,l),
(330,0,l),
(360,0,l),
(461,517,l)
);
}
);
width = 465;
}
);
note = ucircumflex;
unicode = 251;
},
{
glyphname = udieresis;
kernLeft = u;
kernRight = u;
layers = (
{
hints = (
{
horizontal = 1;
place = (-9, 26);
place = (-9, 26);
type = Stem;
},
{
horizontal = 1;
place = (517, -20);
target = down;
type = TopGhost;
},
{
horizontal = 1;
place = (644, 65);
place = (644, 65);
type = Stem;
},
{
place = (23, 29);
place = (23, 29);
type = Stem;
},
{
horizontal = 1;
place = (0, 21);
target = up;
type = BottomGhost;
}
);
layerId = m01;
shapes = (
{
closed = 1;
nodes = (
(211,644,l),
(242,644,l),
(254,709,l),
(224,709,l)
);
},
{
closed = 1;
nodes = (
(358,644,l),
(388,644,l),
(401,709,l),
(371,709,l)
);
},
{
closed = 1;
nodes = (
(431,517,l),
(372,214,ls),
(353,114,o),
(257,17,o),
(146,17,cs),
(66,17,o),
(41,73,o),
(56,150,cs),
(128,517,l),
(98,517,l),
(27,151,ls),
(7,50,o),
(53,-9,o),
(141,-9,cs),
(237,-9,o),
(311,53,o),
(352,118,c),
(354,118,l),
(330,0,l),
(360,0,l),
(461,517,l)
);
}
);
width = 465;
}
);
note = udieresis;
unicode = 252;
},
{
glyphname = dagger;
layers = (
{
hints = (
{
horizontal = 1;
place = (479, 27);
place = (479, 27);
type = Stem;
},
{
horizontal = 1;
place = (715, -20);
target = down;
type = TopGhost;
},
{
place = (75, 437);
place = (75, 437);
type = Stem;
}
);
layerId = m01;
shapes = (
{
closed = 1;
nodes = (
(75,479,l),
(275,479,l),
(162,-104,l),
(193,-104,l),
(306,479,l),
(506,479,l),
(512,506,l),
(311,506,l),
(352,715,l),
(321,715,l),
(281,506,l),
(80,506,l)
);
}
);
width = 496;
}
);
note = dagger;
unicode = 8224;
},
{
glyphname = degree;
layers = (
{
hints = (
{
horizontal = 1;
place = (462, 24);
place = (462, 24);
type = Stem;
},
{
horizontal = 1;
place = (671, 25);
place = (671, 25);
type = Stem;
},
{
place = (96, 29);
place = (96, 29);
type = Stem;
},
{
place = (302, 28);
place = (302, 28);
type = Stem;
}
);
layerId = m01;
shapes = (
{
closed = 1;
nodes = (
(281,462,o),
(330,513,o),
(330,579,cs),
(330,644,o),
(281,696,o),
(214,696,cs),
(148,696,o),
(96,644,o),
(96,579,cs),
(96,513,o),
(148,462,o),
(214,462,cs)
);
},
{
closed = 1;
nodes = (
(162,486,o),
(125,526,o),
(125,579,cs),
(125,632,o),
(162,671,o),
(214,671,cs),
(266,671,o),
(302,631,o),
(302,579,cs),
(302,526,o),
(266,486,o),
(214,486,cs)
);
}
);
width = 304;
}
);
note = degree;
unicode = 176;
},
{
glyphname = cent;
layers = (
{
hints = (
{
horizontal = 1;
place = (-10, 27);
place = (-10, 27);
type = Stem;
},
{
horizontal = 1;
place = (500, 26);
place = (500, 26);
type = Stem;
},
{
place = (23, 30);
place = (23, 30);
type = Stem;
},
{
place = (436, 29);
place = (436, 29);
type = Stem;
},
{
horizontal = 1;
place = (-9, 26);
place = (-9, 26);
type = Stem;
}
);
layerId = m01;
shapes = (
{
closed = 1;
nodes = (
(333,-10,o),
(414,64,o),
(443,174,c),
(414,173,l),
(387,80,o),
(317,17,o),
(226,17,cs),
(216,17,l),
(310,498,l),
(389,487,o),
(428,427,o),
(436,363,c),
(465,363,l),
(456,449,o),
(403,512,o),
(315,524,c),
(328,591,l),
(303,591,l),
(290,526,l),
(285,526,ls),
(117,526,o),
(23,364,o),
(23,208,cs),
(23,79,o),
(88,7,o),
(187,-7,c),
(172,-85,l),
(197,-85,l),
(211,-9,l),
(216,-9,o),
(220,-10,o),
(225,-10,cs)
);
},
{
closed = 1;
nodes = (
(53,349,o),
(132,500,o),
(284,500,cs),
(285,500,l),
(192,19,l),
(102,33,o),
(53,101,o),
(53,208,cs)
);
}
);
width = 474;
}
);
note = cent;
unicode = 162;
},
{
glyphname = sterling;
layers = (
{
hints = (
{
horizontal = 1;
place = (-1, 20);
place = (-1, 20);
type = Stem;
},
{
horizontal = 1;
place = (321, 26);
place = (321, 26);
type = Stem;
},
{
horizontal = 1;
place = (669, 27);
place = (669, 27);
type = Stem;
},
{
place = (143, 29);
place = (143, 29);
type = Stem;
},
{
place = (485, 30);
place = (485, 30);
type = Stem;
},
{
horizontal = 1;
place = (-8, 27);
place = (-8, 27);
type = Stem;
},
{
horizontal = 1;
place = (43, 25);
place = (43, 25);
type = Stem;
},
{
place = (106, 32);
place = (106, 32);
type = Stem;
}
);
layerId = m01;
shapes = (
{
closed = 1;
nodes = (
(57,347,l),
(52,321,l),
(135,321,l),
(139,299,o),
(143,277,o),
(143,254,cs),
(143,148,o),
(81,86,o),
(-5,25,c),
(10,-1,l),
(53,28,o),
(89,43,o),
(141,43,cs),
(213,43,o),
(259,-8,o),
(341,-8,cs),
(395,-8,o),
(440,20,o),
(480,52,c),
(464,74,l),
(429,45,o),
(387,19,o),
(341,19,cs),
(267,19,o),
(222,68,o),
(148,68,cs),
(116,68,o),
(94,64,o),
(69,53,c),
(68,54,l),
(132,107,o),
(172,169,o),
(172,254,cs),
(172,277,o),
(169,299,o),
(165,321,c),
(328,321,l),
(334,347,l),
(160,347,l),
(150,392,o),
(138,435,o),
(138,479,cs),
(138,592,o),
(206,669,o),
(322,669,cs),
(437,669,o),
(487,591,o),
(485,485,c),
(515,485,l),
(518,606,o),
(454,696,o),
(323,696,cs),
(188,696,o),
(106,604,o),
(106,478,cs),
(106,432,o),
(119,390,o),
(129,347,c)
);
}
);
width = 517;
}
);
note = sterling;
unicode = 163;
},
{
glyphname = section;
layers = (
{
hints = (
{
horizontal = 1;
place = (-177, 27);
place = (-177, 27);
type = Stem;
},
{
horizontal = 1;
place = (667, 28);
place = (667, 28);
type = Stem;
},
{
place = (42, 31);
place = (42, 31);
type = Stem;
},
{
place = (161, 32);
place = (161, 32);
type = Stem;
},
{
place = (355, 31);
place = (355, 31);
type = Stem;
},
{
place = (468, 31);
place = (468, 31);
type = Stem;
},
{
place = (27, 32);
place = (27, 32);
type = Stem;
}
);
layerId = m01;
shapes = (
{
closed = 1;
nodes = (
(42,244,o),
(101,203,o),
(206,126,cs),
(311,52,o),
(355,16,o),
(355,-46,cs),
(355,-112,o),
(301,-150,o),
(221,-150,cs),
(111,-150,o),
(60,-83,o),
(59,-1,c),
(27,-1,l),
(27,-98,o),
(95,-177,o),
(220,-177,cs),
(318,-177,o),
(386,-127,o),
(386,-46,cs),
(386,-11,o),
(374,17,o),
(352,45,c),
(431,64,o),
(499,103,o),
(499,190,cs),
(499,274,o),
(431,324,o),
(342,386,cs),
(235,460,o),
(193,490,o),
(193,554,cs),
(193,629,o),
(253,667,o),
(330,667,cs),
(419,667,o),
(463,611,o),
(468,531,c),
(499,531,l),
(494,631,o),
(437,695,o),
(330,695,cs),
(237,695,o),
(161,643,o),
(161,553,cs),
(161,521,o),
(171,495,o),
(191,470,c),
(107,454,o),
(42,405,o),
(42,326,cs)
);
},
{
closed = 1;
nodes = (
(126,220,o),
(73,257,o),
(73,327,cs),
(73,399,o),
(131,436,o),
(211,448,c),
(238,422,o),
(277,395,o),
(326,361,cs),
(411,301,o),
(468,257,o),
(468,189,cs),
(468,112,o),
(404,80,o),
(334,64,c),
(307,91,o),
(270,118,o),
(223,151,cs)
);
}
);
width = 540;
}
);
note = section;
unicode = 167;
},
{
glyphname = bullet;
layers = (
{
hints = (
{
horizontal = 1;
place = (243, 165);
place = (243, 165);
type = Stem;
},
{
place = (46, 165);
place = (46, 165);
type = Stem;
}
);
layerId = m01;
shapes = (
{
closed = 1;
nodes = (
(174,243,o),
(211,279,o),
(211,325,cs),
(211,372,o),
(174,408,o),
(129,408,cs),
(83,408,o),
(46,371,o),
(46,325,cs),
(46,279,o),
(83,243,o),
(129,243,cs)
);
}
);
width = 232;
}
);
note = bullet;
unicode = 8226;
},
{
glyphname = paragraph;
layers = (
{
hints = (
{
horizontal = 1;
place = (0, 21);
target = up;
type = BottomGhost;
},
{
horizontal = 1;
place = (685, 30);
place = (685, 30);
type = Stem;
},
{
place = (80, 392);
place = (80, 392);
type = Stem;
}
);
layerId = m01;
shapes = (
{
closed = 1;
nodes = (
(271,384,l),
(196,0,l),
(226,0,l),
(359,685,l),
(436,685,l),
(303,0,l),
(334,0,l),
(472,715,l),
(284,715,ls),
(225,715,o),
(180,700,o),
(146,672,cs),
(104,639,o),
(80,589,o),
(80,530,cs),
(81,441,o),
(141,384,o),
(246,384,cs)
);
}
);
width = 448;
}
);
note = paragraph;
unicode = 182;
},
{
glyphname = germandbls;
kernLeft = germandbls;
kernRight = germandbls;
layers = (
{
hints = (
{
horizontal = 1;
place = (-6, 26);
place = (-6, 26);
type = Stem;
},
{
horizontal = 1;
place = (389, 27);
place = (389, 27);
type = Stem;
},
{
horizontal = 1;
place = (697, 25);
place = (697, 25);
type = Stem;
},
{
place = (403, 30);
place = (403, 30);
type = Stem;
},
{
horizontal = 1;
place = (1, 21);
target = up;
type = BottomGhost;
},
{
place = (419, 28);
place = (419, 28);
type = Stem;
}
);
layerId = m01;
shapes = (
{
closed = 1;
nodes = (
(130,6,l),
(150,-1,o),
(176,-6,o),
(207,-6,cs),
(345,-6,o),
(433,84,o),
(433,228,cs),
(433,301,o),
(394,376,o),
(321,401,c),
(321,402,l),
(399,424,o),
(447,486,o),
(447,568,cs),
(447,668,o),
(379,722,o),
(296,722,cs),
(188,722,o),
(127,649,o),
(108,549,cs),
(2,1,l),
(31,-1,l),
(137,546,ls),
(154,632,o),
(204,697,o),
(295,697,cs),
(365,697,o),
(419,649,o),
(419,567,cs),
(419,485,o),
(364,417,o),
(255,416,cs),
(220,416,l),
(215,389,l),
(254,389,ls),
(354,389,o),
(403,310,o),
(403,227,cs),
(403,98,o),
(327,21,o),
(208,20,cs),
(182,20,o),
(156,24,o),
(136,32,c),
(135,32,l)
);
}
);
width = 460;
}
);
note = germandbls;
unicode = 223;
},
{
glyphname = registered;
layers = (
{
hints = (
{
horizontal = 1;
place = (247, 21);
place = (247, 21);
type = Stem;
},
{
horizontal = 1;
place = (474, 21);
place = (474, 21);
type = Stem;
},
{
horizontal = 1;
place = (597, 22);
place = (597, 22);
type = Stem;
},
{
horizontal = 1;
place = (704, 21);
place = (704, 21);
type = Stem;
},
{
place = (67, 24);
place = (67, 24);
type = Stem;
},
{
place = (212, 25);
place = (212, 25);
type = Stem;
},
{
place = (376, 25);
place = (376, 25);
type = Stem;
},
{
place = (512, 25);
place = (512, 25);
type = Stem;
}
);
layerId = m01;
shapes = (
{
closed = 1;
nodes = (
(432,247,o),
(537,348,o),
(537,486,cs),
(537,623,o),
(432,725,o),
(302,725,cs),
(172,725,o),
(67,623,o),
(67,486,cs),
(67,348,o),
(172,247,o),
(302,247,cs)
);
},
{
closed = 1;
nodes = (
(183,268,o),
(91,360,o),
(91,486,cs),
(91,611,o),
(183,704,o),
(302,704,cs),
(420,704,o),
(512,611,o),
(512,486,cs),
(512,360,o),
(420,268,o),
(302,268,cs)
);
},
{
closed = 1;
nodes = (
(212,360,l),
(237,360,l),
(237,474,l),
(307,474,ls),
(345,474,o),
(367,463,o),
(369,421,cs),
(372,380,o),
(374,364,o),
(380,360,c),
(405,360,l),
(405,363,l),
(399,367,o),
(397,380,o),
(394,424,cs),
(392,457,o),
(382,476,o),
(353,484,c),
(353,485,l),
(386,494,o),
(401,516,o),
(401,548,cs),
(401,593,o),
(369,619,o),
(320,619,cs),
(212,619,l)
);
},
{
closed = 1;
nodes = (
(237,597,l),
(316,597,ls),
(354,597,o),
(376,578,o),
(376,546,cs),
(376,514,o),
(355,495,o),
(314,495,cs),
(237,495,l)
);
}
);
width = 514;
}
);
note = registered;
unicode = 174;
},
{
glyphname = copyright;
kernLeft = copyright;
kernRight = copyright;
layers = (
{
hints = (
{
horizontal = 1;
place = (-14, 22);
place = (-14, 22);
type = Stem;
},
{
horizontal = 1;
place = (125, 27);
place = (125, 27);
type = Stem;
},
{
horizontal = 1;
place = (562, 27);
place = (562, 27);
type = Stem;
},
{
horizontal = 1;
place = (703, 22);
place = (703, 22);
type = Stem;
},
{
place = (53, 26);
place = (53, 26);
type = Stem;
},
{
place = (216, 32);
place = (216, 32);
type = Stem;
},
{
place = (751, 26);
place = (751, 26);
type = Stem;
}
);
layerId = m01;
shapes = (
{
closed = 1;
nodes = (
(619,-14,o),
(777,145,o),
(777,355,cs),
(777,565,o),
(619,725,o),
(415,725,cs),
(212,725,o),
(53,565,o),
(53,355,cs),
(53,145,o),
(212,-14,o),
(415,-14,cs)
);
},
{
closed = 1;
nodes = (
(224,8,o),
(79,158,o),
(79,355,cs),
(79,553,o),
(224,703,o),
(415,703,cs),
(607,703,o),
(751,553,o),
(751,355,cs),
(751,158,o),
(607,8,o),
(415,8,cs)
);
},
{
closed = 1;
nodes = (
(477,125,o),
(521,144,o),
(551,175,cs),
(580,203,o),
(596,243,o),
(600,285,c),
(569,285,l),
(561,209,o),
(511,152,o),
(420,152,cs),
(315,152,o),
(248,235,o),
(248,357,cs),
(248,475,o),
(309,562,o),
(422,562,cs),
(505,562,o),
(554,511,o),
(565,451,c),
(595,451,l),
(583,528,o),
(523,589,o),
(422,589,cs),
(293,589,o),
(216,490,o),
(216,357,cs),
(216,216,o),
(302,125,o),
(420,125,cs)
);
}
);
width = 792;
}
);
note = copyright;
unicode = 169;
},
{
glyphname = trademark;
layers = (
{
hints = (
{
horizontal = 1;
place = (691, 24);
place = (691, 24);
type = Stem;
},
{
place = (109, 544);
place = (109, 544);
type = Stem;
}
);
layerId = m01;
shapes = (
{
closed = 1;
nodes = (
(352,429,l),
(400,677,l),
(401,677,l),
(401,677,o),
(408,632,o),
(415,592,cs),
(447,429,l),
(474,429,l),
(569,588,ls),
(591,625,o),
(619,676,o),
(619,676,c),
(620,676,l),
(573,429,l),
(598,429,l),
(653,715,l),
(617,715,l),
(532,585,o),
(467,461,o),
(467,461,c),
(466,461,l),
(466,461,o),
(447,585,o),
(417,715,c),
(383,715,l),
(328,429,l)
);
},
{
closed = 1;
nodes = (
(109,691,l),
(207,691,l),
(156,429,l),
(182,429,l),
(233,691,l),
(331,691,l),
(336,715,l),
(113,715,l)
);
}
);
width = 610;
}
);
note = trademark;
unicode = 8482;
},
{
glyphname = acute;
layers = (
{
hints = (
{
horizontal = 1;
place = (594, 127);
place = (594, 127);
type = Stem;
},
{
place = (273, 112);
place = (273, 112);
type = Stem;
}
);
layerId = m01;
shapes = (
{
closed = 1;
nodes = (
(273,594,l),
(301,594,l),
(385,721,l),
(346,721,l)
);
}
);
width = 451;
}
);
note = acute;
unicode = 180;
},
{
glyphname = dieresis;
layers = (
{
hints = (
{
horizontal = 1;
place = (644, 65);
place = (644, 65);
type = Stem;
},
{
place = (211, 190);
place = (211, 190);
type = Stem;
}
);
layerId = m01;
shapes = (
{
closed = 1;
nodes = (
(211,644,l),
(242,644,l),
(254,709,l),
(224,709,l)
);
},
{
closed = 1;
nodes = (
(358,644,l),
(388,644,l),
(401,709,l),
(371,709,l)
);
}
);
width = 454;
}
);
note = dieresis;
unicode = 168;
},
{
glyphname = notequal;
layers = (
{
hints = (
{
horizontal = 1;
place = (227, 28);
place = (227, 28);
type = Stem;
},
{
horizontal = 1;
place = (369, 28);
place = (369, 28);
type = Stem;
},
{
place = (42, 444);
place = (42, 444);
type = Stem;
}
);
layerId = m01;
shapes = (
{
closed = 1;
nodes = (
(70,369,l),
(283,369,l),
(213,255,l),
(48,255,l),
(42,227,l),
(196,227,l),
(119,101,l),
(150,101,l),
(227,227,l),
(453,227,l),
(459,255,l),
(244,255,l),
(314,369,l),
(481,369,l),
(486,397,l),
(331,397,l),
(402,512,l),
(371,512,l),
(300,397,l),
(76,397,l)
);
}
);
width = 508;
}
);
note = notequal;
unicode = 8800;
},
{
glyphname = AE;
kernLeft = AE;
kernRight = E;
layers = (
{
hints = (
{
horizontal = 1;
place = (0, 29);
place = (0, 29);
type = Stem;
},
{
horizontal = 1;
place = (244, 27);
place = (244, 27);
type = Stem;
},
{
horizontal = 1;
place = (356, 28);
place = (356, 28);
type = Stem;
},
{
horizontal = 1;
place = (687, 28);
place = (687, 28);
type = Stem;
},
{
place = (-39, 980);
place = (-39, 980);
type = Stem;
}
);
layerId = m01;
shapes = (
{
closed = 1;
nodes = (
(941,715,l),
(385,715,l),
(-39,0,l),
(-6,0,l),
(139,244,l),
(443,244,l),
(396,0,l),
(826,0,l),
(832,29,l),
(433,29,l),
(496,356,l),
(844,356,l),
(850,384,l),
(502,384,l),
(560,687,l),
(936,687,l)
);
},
{
closed = 1;
nodes = (
(402,687,l),
(528,687,l),
(448,271,l),
(155,271,l)
);
}
);
width = 913;
}
);
note = AE;
unicode = 198;
},
{
glyphname = Oslash;
kernLeft = C;
kernRight = O;
layers = (
{
hints = (
{
horizontal = 1;
place = (-10, 28);
place = (-10, 28);
type = Stem;
},
{
horizontal = 1;
place = (697, 29);
place = (697, 29);
type = Stem;
},
{
place = (43, 33);
place = (43, 33);
type = Stem;
},
{
place = (665, 33);
place = (665, 33);
type = Stem;
},
{
horizontal = 1;
place = (723, -20);
target = down;
type = TopGhost;
}
);
layerId = m01;
shapes = (
{
closed = 1;
nodes = (
(49,-14,l),
(129,74,l),
(183,19,o),
(257,-10,o),
(341,-10,cs),
(567,-10,o),
(698,189,o),
(698,409,cs),
(698,496,o),
(672,569,o),
(629,622,c),
(705,705,l),
(686,723,l),
(612,641,l),
(558,696,o),
(484,726,o),
(400,726,cs),
(182,726,o),
(43,523,o),
(43,305,cs),
(43,217,o),
(69,145,o),
(112,92,c),
(31,3,l)
);
},
{
closed = 1;
nodes = (
(263,18,o),
(197,46,o),
(150,96,c),
(608,598,l),
(644,550,o),
(665,486,o),
(665,409,cs),
(665,202,o),
(546,18,o),
(342,18,cs)
);
},
{
closed = 1;
nodes = (
(76,511,o),
(199,697,o),
(400,697,cs),
(478,697,o),
(544,669,o),
(591,619,c),
(133,116,l),
(97,164,o),
(76,228,o),
(76,305,cs)
);
}
);
width = 712;
}
);
note = Oslash;
unicode = 216;
},
{
glyphname = infinity;
layers = (
{
hints = (
{
horizontal = 1;
place = (137, 26);
place = (137, 26);
type = Stem;
},
{
horizontal = 1;
place = (445, 26);
place = (445, 26);
type = Stem;
},
{
place = (40, 31);
place = (40, 31);
type = Stem;
},
{
place = (643, 31);
place = (643, 31);
type = Stem;
}
);
layerId = m01;
shapes = (
{
closed = 1;
nodes = (
(267,137,o),
(312,191,o),
(361,276,c),
(402,203,o),
(451,137,o),
(530,137,cs),
(628,137,o),
(674,216,o),
(674,304,cs),
(674,395,o),
(627,471,o),
(528,471,cs),
(450,471,o),
(406,411,o),
(362,332,c),
(320,406,o),
(267,471,o),
(186,471,cs),
(83,471,o),
(40,387,o),
(40,304,cs),
(40,222,o),
(84,137,o),
(187,137,cs)
);
},
{
closed = 1;
nodes = (
(256,445,o),
(303,382,o),
(346,303,c),
(298,218,o),
(257,163,o),
(187,163,cs),
(104,163,o),
(71,235,o),
(71,304,cs),
(71,374,o),
(103,445,o),
(186,445,cs)
);
},
{
closed = 1;
nodes = (
(463,163,o),
(419,225,o),
(377,304,c),
(423,386,o),
(461,445,o),
(528,445,cs),
(610,445,o),
(643,378,o),
(643,304,cs),
(643,235,o),
(611,163,o),
(530,163,cs)
);
}
);
width = 707;
}
);
note = infinity;
unicode = 8734;
},
{
glyphname = plusminus;
layers = (
{
hints = (
{
horizontal = 1;
place = (0, 28);
place = (0, 28);
type = Stem;
},
{
horizontal = 1;
place = (329, 28);
place = (329, 28);
type = Stem;
},
{
place = (3, 482);
place = (3, 482);
type = Stem;
}
);
layerId = m01;
shapes = (
{
closed = 1;
nodes = (
(66,329,l),
(257,329,l),
(220,140,l),
(251,140,l),
(288,329,l),
(479,329,l),
(485,357,l),
(293,357,l),
(330,543,l),
(299,543,l),
(263,357,l),
(72,357,l)
);
},
{
closed = 1;
nodes = (
(3,0,l),
(416,0,l),
(421,28,l),
(9,28,l)
);
}
);
width = 517;
}
);
note = plusminus;
unicode = 177;
},
{
glyphname = lessequal;
layers = (
{
hints = (
{
horizontal = 1;
place = (0, 28);
place = (0, 28);
type = Stem;
},
{
place = (60, 30);
place = (60, 30);
type = Stem;
}
);
layerId = m01;
shapes = (
{
closed = 1;
nodes = (
(-1,0,l),
(383,0,l),
(389,28,l),
(4,28,l)
);
},
{
closed = 1;
nodes = (
(408,129,l),
(414,158,l),
(90,314,l),
(90,315,l),
(474,469,l),
(480,501,l),
(63,333,l),
(57,301,l)
);
}
);
width = 483;
}
);
note = lessequal;
unicode = 8804;
},
{
glyphname = greaterequal;
layers = (
{
hints = (
{
horizontal = 1;
place = (0, 28);
place = (0, 28);
type = Stem;
},
{
place = (418, 30);
place = (418, 30);
type = Stem;
}
);
layerId = m01;
shapes = (
{
closed = 1;
nodes = (
(3,0,l),
(387,0,l),
(392,28,l),
(8,28,l)
);
},
{
closed = 1;
nodes = (
(100,501,l),
(94,472,l),
(418,316,l),
(418,315,l),
(34,161,l),
(28,129,l),
(445,297,l),
(451,329,l)
);
}
);
width = 482;
}
);
note = greaterequal;
unicode = 8805;
},
{
glyphname = yen;
layers = (
{
hints = (
{
horizontal = 1;
place = (0, 21);
target = up;
type = BottomGhost;
},
{
horizontal = 1;
place = (190, 26);
place = (190, 26);
type = Stem;
},
{
horizontal = 1;
place = (309, 26);
place = (309, 26);
type = Stem;
},
{
horizontal = 1;
place = (685, -20);
target = down;
type = TopGhost;
},
{
place = (38, 545);
place = (38, 545);
type = Stem;
}
);
layerId = m01;
shapes = (
{
closed = 1;
nodes = (
(62,309,l),
(252,309,l),
(234,216,l),
(44,216,l),
(38,190,l),
(230,190,l),
(193,0,l),
(223,0,l),
(260,190,l),
(450,190,l),
(455,216,l),
(264,216,l),
(282,309,l),
(473,309,l),
(478,335,l),
(298,335,l),
(583,685,l),
(547,685,l),
(274,347,l),
(273,347,l),
(118,685,l),
(84,685,l),
(246,335,l),
(67,335,l)
);
}
);
width = 511;
}
);
note = yen;
unicode = 165;
},
{
glyphname = mu;
layers = (
{
hints = (
{
horizontal = 1;
place = (-166, 21);
target = up;
type = BottomGhost;
},
{
horizontal = 1;
place = (-9, 26);
place = (-9, 26);
type = Stem;
},
{
horizontal = 1;
place = (517, -20);
target = down;
type = TopGhost;
},
{
place = (42, 14);
place = (42, 14);
type = Stem;
},
{
horizontal = 1;
place = (0, 21);
target = up;
type = BottomGhost;
}
);
layerId = m01;
shapes = (
{
closed = 1;
nodes = (
(434,517,l),
(376,214,ls),
(356,114,o),
(260,17,o),
(149,17,cs),
(69,17,o),
(45,73,o),
(60,150,cs),
(131,517,l),
(101,517,l),
(-32,-166,l),
(-2,-166,l),
(42,59,l),
(43,59,l),
(56,14,o),
(95,-9,o),
(146,-9,cs),
(241,-9,o),
(315,53,o),
(356,118,c),
(357,118,l),
(334,0,l),
(363,0,l),
(464,517,l)
);
}
);
width = 466;
}
);
note = mu;
unicode = 181;
},
{
glyphname = partialdiff;
layers = (
{
hints = (
{
horizontal = 1;
place = (-10, 27);
place = (-10, 27);
type = Stem;
},
{
horizontal = 1;
place = (439, 27);
place = (439, 27);
type = Stem;
},
{
horizontal = 1;
place = (719, -20);
target = down;
type = TopGhost;
},
{
place = (34, 32);
place = (34, 32);
type = Stem;
},
{
place = (427, 35);
place = (427, 35);
type = Stem;
}
);
layerId = m01;
shapes = (
{
closed = 1;
nodes = (
(404,416,o),
(342,466,o),
(256,466,cs),
(126,466,o),
(34,353,o),
(34,205,cs),
(34,82,o),
(111,-10,o),
(231,-10,cs),
(383,-10,o),
(462,128,o),
(462,295,cs),
(462,494,o),
(393,675,o),
(135,719,c),
(135,692,l),
(352,651,o),
(419,508,o),
(430,343,c)
);
},
{
closed = 1;
nodes = (
(66,338,o),
(140,439,o),
(256,439,cs),
(368,439,o),
(427,350,o),
(427,252,cs),
(427,157,o),
(369,17,o),
(231,17,cs),
(124,17,o),
(66,106,o),
(66,206,cs)
);
}
);
width = 504;
}
);
note = partialdiff;
unicode = 8706;
},
{
glyphname = summation;
layers = (
{
hints = (
{
horizontal = 1;
place = (-100, 28);
place = (-100, 28);
type = Stem;
},
{
horizontal = 1;
place = (687, 28);
place = (687, 28);
type = Stem;
},
{
place = (75, 39);
place = (75, 39);
type = Stem;
},
{
place = (386, 32);
place = (386, 32);
type = Stem;
}
);
layerId = m01;
shapes = (
{
closed = 1;
nodes = (
(580,-100,l),
(580,-72,l),
(114,-72,l),
(114,-71,l),
(418,316,l),
(418,335,l),
(114,686,l),
(114,687,l),
(574,687,l),
(574,715,l),
(75,715,l),
(75,684,l),
(386,325,l),
(386,324,l),
(74,-74,l),
(74,-100,l)
);
}
);
width = 606;
}
);
note = summation;
unicode = 8721;
},
{
glyphname = product;
layers = (
{
hints = (
{
horizontal = 1;
place = (686, 29);
place = (686, 29);
type = Stem;
},
{
place = (93, 31);
place = (93, 31);
type = Stem;
},
{
place = (579, 32);
place = (579, 32);
type = Stem;
}
);
layerId = m01;
shapes = (
{
closed = 1;
nodes = (
(579,686,l),
(579,-100,l),
(611,-100,l),
(611,715,l),
(93,715,l),
(93,-100,l),
(124,-100,l),
(124,686,l)
);
}
);
width = 665;
}
);
note = product;
unicode = 8719;
},
{
glyphname = pi;
layers = (
{
hints = (
{
horizontal = 1;
place = (-3, 26);
place = (-3, 26);
type = Stem;
},
{
horizontal = 1;
place = (491, 26);
place = (491, 26);
type = Stem;
},
{
place = (370, 32);
place = (370, 32);
type = Stem;
},
{
horizontal = 1;
place = (0, 21);
target = up;
type = BottomGhost;
}
);
layerId = m01;
shapes = (
{
closed = 1;
nodes = (
(580,517,l),
(60,517,l),
(55,491,l),
(144,491,l),
(49,0,l),
(79,0,l),
(174,491,l),
(450,491,l),
(373,98,ls),
(361,38,o),
(383,-3,o),
(446,-3,cs),
(461,-3,o),
(477,1,o),
(484,5,c),
(490,31,l),
(487,31,l),
(479,27,o),
(464,23,o),
(449,23,cs),
(405,23,o),
(394,51,o),
(402,95,cs),
(479,491,l),
(575,491,l)
);
}
);
width = 562;
}
);
note = pi;
unicode = 960;
},
{
glyphname = integral;
layers = (
{
hints = (
{
horizontal = 1;
place = (-174, 27);
place = (-174, 27);
type = Stem;
},
{
horizontal = 1;
place = (712, 27);
place = (712, 27);
type = Stem;
},
{
place = (157, 30);
place = (157, 30);
type = Stem;
},
{
horizontal = 1;
place = (-163, 21);
target = up;
type = BottomGhost;
}
);
layerId = m01;
shapes = (
{
closed = 1;
nodes = (
(187,619,ls),
(187,686,o),
(211,712,o),
(265,712,cs),
(285,712,o),
(306,709,o),
(322,702,c),
(324,702,l),
(324,729,l),
(305,736,o),
(287,739,o),
(262,739,cs),
(194,739,o),
(157,702,o),
(157,619,cs),
(157,-54,ls),
(157,-118,o),
(136,-147,o),
(80,-147,cs),
(56,-147,o),
(37,-143,o),
(21,-136,c),
(19,-136,l),
(19,-163,l),
(38,-171,o),
(57,-174,o),
(82,-174,cs),
(154,-174,o),
(187,-134,o),
(187,-54,cs)
);
}
);
width = 343;
}
);
note = integral;
unicode = 8747;
},
{
glyphname = ordfeminine;
layers = (
{
hints = (
{
horizontal = 1;
place = (228, 26);
place = (228, 26);
type = Stem;
},
{
horizontal = 1;
place = (674, 26);
place = (674, 26);
type = Stem;
},
{
place = (56, 31);
place = (56, 31);
type = Stem;
},
{
place = (410, 31);
place = (410, 31);
type = Stem;
},
{
place = (360, 28);
place = (360, 28);
type = Stem;
},
{
horizontal = 1;
place = (234, 25);
place = (234, 25);
type = Stem;
}
);
layerId = m01;
shapes = (
{
closed = 1;
nodes = (
(109,483,o),
(56,437,o),
(56,354,cs),
(56,277,o),
(117,228,o),
(200,228,cs),
(282,228,o),
(333,269,o),
(361,315,c),
(359,301,ls),
(351,263,o),
(365,234,o),
(405,234,cs),
(416,234,o),
(423,236,o),
(428,237,c),
(433,261,l),
(431,261,ls),
(426,260,o),
(419,259,o),
(413,259,cs),
(389,259,o),
(382,276,o),
(388,309,cs),
(436,543,ls),
(459,651,o),
(393,700,o),
(291,700,cs),
(182,700,o),
(122,641,o),
(108,563,c),
(137,563,l),
(152,629,o),
(196,674,o),
(291,674,cs),
(368,674,o),
(410,644,o),
(410,582,cs),
(410,548,o),
(402,527,o),
(378,514,cs),
(350,500,o),
(300,495,o),
(224,491,cs)
);
},
{
closed = 1;
nodes = (
(132,254,o),
(88,294,o),
(87,355,cs),
(87,423,o),
(124,459,o),
(224,466,cs),
(314,472,o),
(365,477,o),
(399,501,c),
(378,397,ls),
(362,319,o),
(301,254,o),
(203,254,cs)
);
}
);
width = 454;
}
);
note = ordfeminine;
unicode = 170;
},
{
glyphname = ordmasculine;
layers = (
{
hints = (
{
horizontal = 1;
place = (225, 26);
place = (225, 26);
type = Stem;
},
{
horizontal = 1;
place = (675, 25);
place = (675, 25);
type = Stem;
},
{
place = (66, 31);
place = (66, 31);
type = Stem;
},
{
place = (451, 31);
place = (451, 31);
type = Stem;
}
);
layerId = m01;
shapes = (
{
closed = 1;
nodes = (
(401,225,o),
(482,365,o),
(482,502,cs),
(482,624,o),
(403,700,o),
(299,700,cs),
(150,700,o),
(66,561,o),
(66,421,cs),
(66,297,o),
(148,225,o),
(251,225,cs)
);
},
{
closed = 1;
nodes = (
(159,251,o),
(97,318,o),
(97,422,cs),
(97,548,o),
(169,675,o),
(298,675,cs),
(393,675,o),
(451,602,o),
(451,501,cs),
(451,376,o),
(381,251,o),
(252,251,cs)
);
}
);
width = 476;
}
);
note = ordmasculine;
unicode = 186;
},
{
glyphname = Omega;
layers = (
{
hints = (
{
horizontal = 1;
place = (0, 28);
place = (0, 28);
type = Stem;
},
{
horizontal = 1;
place = (697, 29);
place = (697, 29);
type = Stem;
},
{
place = (47, 33);
place = (47, 33);
type = Stem;
},
{
place = (645, 33);
place = (645, 33);
type = Stem;
}
);
layerId = m01;
shapes = (
{
closed = 1;
nodes = (
(-3,0,l),
(240,0,l),
(245,30,l),
(149,70,o),
(80,175,o),
(80,313,cs),
(80,495,o),
(183,697,o),
(395,697,cs),
(543,697,o),
(645,598,o),
(645,429,cs),
(645,223,o),
(542,73,o),
(355,29,c),
(349,0,l),
(602,0,l),
(608,28,l),
(428,28,l),
(428,29,l),
(589,89,o),
(678,236,o),
(678,429,cs),
(678,609,o),
(567,726,o),
(396,726,cs),
(172,726,o),
(47,516,o),
(47,312,cs),
(47,180,o),
(109,79,o),
(193,29,c),
(193,28,l),
(2,28,l)
);
}
);
width = 689;
}
);
note = Omega;
unicode = 8486;
},
{
glyphname = ae;
kernLeft = a;
kernRight = e;
layers = (
{
hints = (
{
horizontal = 1;
place = (-10, 26);
place = (-10, 26);
type = Stem;
},
{
horizontal = 1;
place = (256, 26);
place = (256, 26);
type = Stem;
},
{
horizontal = 1;
place = (500, 26);
place = (500, 26);
type = Stem;
},
{
place = (5, 30);
place = (5, 30);
type = Stem;
},
{
place = (400, 26);
place = (400, 26);
type = Stem;
},
{
place = (771, 30);
place = (771, 30);
type = Stem;
},
{
place = (380, 23);
place = (380, 23);
type = Stem;
}
);
layerId = m01;
shapes = (
{
closed = 1;
nodes = (
(140,526,o),
(79,459,o),
(62,372,c),
(92,372,l),
(108,447,o),
(157,500,o),
(264,500,cs),
(351,500,o),
(400,464,o),
(400,393,cs),
(400,350,o),
(390,324,o),
(362,308,cs),
(330,291,o),
(275,288,o),
(190,283,cs),
(67,276,o),
(5,222,o),
(5,130,cs),
(5,42,o),
(75,-10,o),
(164,-10,cs),
(251,-10,o),
(342,25,o),
(380,164,c),
(393,54,o),
(461,-10,o),
(566,-10,cs),
(676,-10,o),
(743,56,o),
(777,152,c),
(747,152,l),
(717,75,o),
(663,16,o),
(567,16,cs),
(457,16,o),
(403,94,o),
(403,210,cs),
(403,225,o),
(404,241,o),
(406,256,c),
(796,256,l),
(808,341,o),
(799,430,o),
(744,482,cs),
(715,511,o),
(676,526,o),
(623,526,cs),
(534,526,o),
(468,474,o),
(426,402,c),
(422,486,o),
(359,526,o),
(264,526,cs)
);
},
{
closed = 1;
nodes = (
(88,16,o),
(36,60,o),
(35,130,cs),
(35,208,o),
(82,250,o),
(191,258,cs),
(290,264,o),
(346,270,o),
(384,296,c),
(364,196,ls),
(342,81,o),
(280,16,o),
(166,16,cs)
);
},
{
closed = 1;
nodes = (
(744,500,o),
(783,399,o),
(768,282,c),
(409,282,l),
(431,398,o),
(505,500,o),
(622,500,cs)
);
}
);
width = 820;
}
);
note = ae;
unicode = 230;
},
{
glyphname = oslash;
kernLeft = c;
kernRight = o;
layers = (
{
hints = (
{
horizontal = 1;
place = (-10, 26);
place = (-10, 26);
type = Stem;
},
{
horizontal = 1;
place = (500, 26);
place = (500, 26);
type = Stem;
},
{
place = (19, 31);
place = (19, 31);
type = Stem;
},
{
place = (455, 30);
place = (455, 30);
type = Stem;
}
);
layerId = m01;
shapes = (
{
closed = 1;
nodes = (
(20,-10,l),
(76,51,l),
(113,12,o),
(166,-10,o),
(226,-10,cs),
(395,-10,o),
(485,150,o),
(485,304,cs),
(485,362,o),
(468,412,o),
(440,450,c),
(493,508,l),
(476,524,l),
(424,468,l),
(388,505,o),
(337,526,o),
(280,526,cs),
(110,526,o),
(19,365,o),
(19,209,cs),
(19,153,o),
(34,106,o),
(60,70,c),
(2,6,l)
);
},
{
closed = 1;
nodes = (
(172,16,o),
(126,37,o),
(95,73,c),
(420,428,l),
(442,394,o),
(455,351,o),
(455,302,cs),
(455,161,o),
(375,16,o),
(227,16,cs)
);
},
{
closed = 1;
nodes = (
(50,356,o),
(132,500,o),
(279,500,cs),
(332,500,o),
(375,480,o),
(405,447,c),
(81,92,l),
(61,124,o),
(50,164,o),
(50,211,cs)
);
}
);
width = 511;
}
);
note = oslash;
unicode = 248;
},
{
glyphname = questiondown;
kernRight = questiondown;
layers = (
{
hints = (
{
horizontal = 1;
place = (-137, 28);
place = (-137, 28);
type = Stem;
},
{
horizontal = 1;
place = (522, 66);
place = (522, 66);
type = Stem;
},
{
place = (-8, 32);
place = (-8, 32);
type = Stem;
}
);
layerId = m01;
shapes = (
{
closed = 1;
nodes = (
(280,522,l),
(316,522,l),
(329,588,l),
(293,588,l)
);
},
{
closed = 1;
nodes = (
(262,412,l),
(242,306,o),
(206,273,o),
(127,219,cs),
(55,169,o),
(-8,124,o),
(-8,26,cs),
(-8,-79,o),
(74,-137,o),
(176,-137,cs),
(311,-137,o),
(393,-45,o),
(415,70,c),
(383,70,l),
(359,-38,o),
(290,-109,o),
(179,-109,cs),
(89,-109,o),
(24,-60,o),
(24,26,cs),
(24,115,o),
(83,154,o),
(144,196,cs),
(237,260,o),
(270,295,o),
(292,412,c)
);
}
);
width = 474;
}
);
note = questiondown;
unicode = 191;
},
{
glyphname = exclamdown;
kernRight = exclamdown;
layers = (
{
hints = (
{
horizontal = 1;
place = (522, 66);
place = (522, 66);
type = Stem;
},
{
place = (-4, 173);
place = (-4, 173);
type = Stem;
}
);
layerId = m01;
shapes = (
{
closed = 1;
nodes = (
(46,132,l),
(-4,-127,l),
(29,-127,l),
(78,130,l),
(128,413,l),
(107,413,l)
);
},
{
closed = 1;
nodes = (
(120,522,l),
(156,522,l),
(169,588,l),
(133,588,l)
);
}
);
width = 174;
}
);
note = exclamdown;
unicode = 161;
},
{
glyphname = logicalnot;
layers = (
{
hints = (
{
horizontal = 1;
place = (355, 28);
place = (355, 28);
type = Stem;
},
{
place = (72, 386);
place = (72, 386);
type = Stem;
}
);
layerId = m01;
shapes = (
{
closed = 1;
nodes = (
(72,355,l),
(422,355,l),
(382,147,l),
(412,147,l),
(458,383,l),
(78,383,l)
);
}
);
width = 512;
}
);
note = logicalnot;
unicode = 172;
},
{
glyphname = radical;
layers = (
{
hints = (
{
horizontal = 1;
place = (271, 27);
place = (271, 27);
type = Stem;
},
{
horizontal = 1;
place = (715, -20);
target = down;
type = TopGhost;
},
{
place = (32, 528);
place = (32, 528);
type = Stem;
}
);
layerId = m01;
shapes = (
{
closed = 1;
nodes = (
(32,271,l),
(111,271,l),
(259,-100,l),
(292,-100,l),
(560,715,l),
(529,715,l),
(315,65,ls),
(307,40,o),
(276,-63,o),
(276,-63,c),
(275,-63,l),
(275,-63,o),
(237,39,o),
(227,64,cs),
(135,298,l),
(32,298,l)
);
}
);
width = 534;
}
);
note = radical;
unicode = 8730;
},
{
glyphname = florin;
layers = (
{
hints = (
{
horizontal = 1;
place = (-150, 27);
place = (-150, 27);
type = Stem;
},
{
horizontal = 1;
place = (362, 26);
place = (362, 26);
type = Stem;
},
{
horizontal = 1;
place = (662, 27);
place = (662, 27);
type = Stem;
},
{
place = (-46, 411);
place = (-46, 411);
type = Stem;
}
);
layerId = m01;
shapes = (
{
closed = 1;
nodes = (
(293,388,l),
(193,388,l),
(235,572,ls),
(250,636,o),
(269,662,o),
(316,662,cs),
(325,662,o),
(355,661,o),
(361,660,c),
(365,687,l),
(360,688,o),
(325,689,o),
(316,689,cs),
(255,689,o),
(224,656,o),
(205,575,cs),
(162,388,l),
(78,388,l),
(73,362,l),
(157,362,l),
(66,-34,ls),
(51,-99,o),
(29,-123,o),
(-14,-123,cs),
(-21,-123,o),
(-34,-123,o),
(-42,-122,c),
(-46,-149,l),
(-38,-150,o),
(-19,-150,o),
(-11,-150,cs),
(47,-150,o),
(77,-120,o),
(96,-36,cs),
(187,362,l),
(288,362,l)
);
}
);
width = 326;
}
);
note = florin;
unicode = 402;
},
{
glyphname = approxequal;
layers = (
{
hints = (
{
horizontal = 1;
place = (195, 28);
place = (195, 28);
type = Stem;
},
{
horizontal = 1;
place = (260, 29);
place = (260, 29);
type = Stem;
},
{
horizontal = 1;
place = (333, 28);
place = (333, 28);
type = Stem;
},
{
horizontal = 1;
place = (398, 29);
place = (398, 29);
type = Stem;
},
{
place = (33, 461);
place = (33, 461);
type = Stem;
}
);
layerId = m01;
shapes = (
{
closed = 1;
nodes = (
(425,195,o),
(461,229,o),
(471,290,c),
(443,290,l),
(435,247,o),
(411,223,o),
(368,223,cs),
(337,223,o),
(313,231,o),
(255,254,cs),
(197,279,o),
(169,289,o),
(135,289,cs),
(78,289,o),
(44,255,o),
(33,194,c),
(61,194,l),
(69,237,o),
(92,260,o),
(134,260,cs),
(160,260,o),
(185,251,o),
(245,228,cs),
(296,208,o),
(328,195,o),
(367,195,cs)
);
},
{
closed = 1;
nodes = (
(448,333,o),
(484,366,o),
(494,427,c),
(466,427,l),
(458,385,o),
(434,361,o),
(391,361,cs),
(360,361,o),
(336,369,o),
(279,392,cs),
(220,417,o),
(192,427,o),
(158,427,cs),
(101,427,o),
(67,393,o),
(56,332,c),
(84,332,l),
(92,374,o),
(116,398,o),
(157,398,cs),
(184,398,o),
(208,389,o),
(268,366,cs),
(319,346,o),
(351,333,o),
(390,333,cs)
);
}
);
width = 518;
}
);
note = approxequal;
unicode = 8776;
},
{
glyphname = Delta;
layers = (
{
hints = (
{
horizontal = 1;
place = (0, 27);
place = (0, 27);
type = Stem;
},
{
horizontal = 1;
place = (682, 33);
place = (682, 33);
type = Stem;
},
{
place = (-30, 607);
place = (-30, 607);
type = Stem;
}
);
layerId = m01;
shapes = (
{
closed = 1;
nodes = (
(-25,26,l),
(-30,0,l),
(572,0,l),
(577,26,l),
(415,715,l),
(381,715,l)
);
},
{
closed = 1;
nodes = (
(10,27,l),
(319,554,ls),
(331,576,o),
(392,682,o),
(392,682,c),
(393,682,l),
(393,682,o),
(419,572,o),
(423,553,cs),
(545,27,l)
);
}
);
width = 636;
}
);
note = Delta;
unicode = 8710;
},
{
glyphname = guillemotleft;
kernLeft = guillemotleft;
kernRight = guillemotleft;
layers = (
{
hints = (
{
horizontal = 1;
place = (132, 279);
place = (132, 279);
type = Stem;
},
{
place = (52, 21);
place = (52, 21);
type = Stem;
},
{
place = (191, 20);
place = (191, 20);
type = Stem;
}
);
layerId = m01;
shapes = (
{
closed = 1;
nodes = (
(165,168,l),
(74,274,l),
(74,275,l),
(204,370,l),
(212,411,l),
(56,294,l),
(49,257,l),
(158,132,l)
);
},
{
closed = 1;
nodes = (
(304,168,l),
(213,274,l),
(213,275,l),
(343,370,l),
(351,411,l),
(196,294,l),
(189,257,l),
(298,132,l)
);
}
);
width = 373;
}
);
note = guillemotleft;
unicode = 171;
},
{
glyphname = guillemotright;
kernLeft = guillemotright;
kernRight = guillemotright;
layers = (
{
hints = (
{
horizontal = 1;
place = (132, 279);
place = (132, 279);
type = Stem;
},
{
place = (165, 20);
place = (165, 20);
type = Stem;
},
{
place = (303, 21);
place = (303, 21);
type = Stem;
}
);
layerId = m01;
shapes = (
{
closed = 1;
nodes = (
(74,375,l),
(165,270,l),
(165,269,l),
(34,173,l),
(26,132,l),
(182,249,l),
(189,286,l),
(80,411,l)
);
},
{
closed = 1;
nodes = (
(213,375,l),
(304,270,l),
(304,269,l),
(174,173,l),
(166,132,l),
(322,249,l),
(328,286,l),
(220,411,l)
);
}
);
width = 373;
}
);
note = guillemotright;
unicode = 187;
},
{
glyphname = ellipsis;
kernLeft = comma;
kernRight = comma;
layers = (
{
hints = (
{
horizontal = 1;
place = (0, 66);
place = (0, 66);
type = Stem;
},
{
place = (-8, 346);
place = (-8, 346);
type = Stem;
}
);
layerId = m01;
shapes = (
{
closed = 1;
nodes = (
(-8,0,l),
(28,0,l),
(41,66,l),
(4,66,l)
);
},
{
closed = 1;
nodes = (
(289,0,l),
(325,0,l),
(338,66,l),
(302,66,l)
);
},
{
closed = 1;
nodes = (
(140,0,l),
(177,0,l),
(189,66,l),
(153,66,l)
);
}
);
width = 413;
}
);
note = ellipsis;
unicode = 8230;
},
{
glyphname = Agrave;
kernLeft = A;
kernRight = A;
layers = (
{
hints = (
{
horizontal = 1;
place = (0, 21);
target = up;
type = BottomGhost;
},
{
horizontal = 1;
place = (244, 27);
place = (244, 27);
type = Stem;
},
{
horizontal = 1;
place = (681, 34);
place = (681, 34);
type = Stem;
},
{
horizontal = 1;
place = (755, 112);
place = (755, 112);
type = Stem;
},
{
place = (-42, 576);
place = (-42, 576);
type = Stem;
}
);
layerId = m01;
shapes = (
{
closed = 1;
nodes = (
(503,0,l),
(534,0,l),
(385,715,l),
(351,715,l),
(-42,0,l),
(-10,0,l),
(124,244,l),
(452,244,l)
);
},
{
closed = 1;
nodes = (
(306,575,ls),
(331,621,o),
(362,681,o),
(362,681,c),
(363,681,l),
(363,681,o),
(377,611,o),
(384,577,cs),
(447,271,l),
(139,271,l)
);
},
{
closed = 1;
nodes = (
(387,755,l),
(342,867,l),
(304,867,l),
(358,755,l)
);
}
);
width = 593;
}
);
note = Agrave;
unicode = 192;
},
{
glyphname = Atilde;
kernLeft = A;
kernRight = A;
layers = (
{
hints = (
{
horizontal = 1;
place = (0, 21);
target = up;
type = BottomGhost;
},
{
horizontal = 1;
place = (244, 27);
place = (244, 27);
type = Stem;
},
{
horizontal = 1;
place = (681, 34);
place = (681, 34);
type = Stem;
},
{
horizontal = 1;
place = (766, 27);
place = (766, 27);
type = Stem;
},
{
place = (238, 26);
place = (238, 26);
type = Stem;
},
{
place = (485, 26);
place = (485, 26);
type = Stem;
},
{
horizontal = 1;
place = (818, 27);
place = (818, 27);
type = Stem;
}
);
layerId = m01;
shapes = (
{
closed = 1;
nodes = (
(503,0,l),
(534,0,l),
(385,715,l),
(351,715,l),
(-42,0,l),
(-10,0,l),
(124,244,l),
(452,244,l)
);
},
{
closed = 1;
nodes = (
(306,575,ls),
(331,621,o),
(362,681,o),
(362,681,c),
(363,681,l),
(363,681,o),
(377,611,o),
(384,577,cs),
(447,271,l),
(139,271,l)
);
},
{
closed = 1;
nodes = (
(475,766,o),
(503,793,o),
(511,845,c),
(485,845,l),
(479,810,o),
(462,793,o),
(440,793,cs),
(399,793,o),
(361,845,o),
(310,845,cs),
(275,845,o),
(246,816,o),
(238,766,c),
(264,766,l),
(270,801,o),
(288,818,o),
(309,818,cs),
(349,818,o),
(389,766,o),
(439,766,cs)
);
}
);
width = 593;
}
);
note = Atilde;
unicode = 195;
},
{
glyphname = Otilde;
kernLeft = C;
kernRight = O;
layers = (
{
hints = (
{
horizontal = 1;
place = (-10, 28);
place = (-10, 28);
type = Stem;
},
{
horizontal = 1;
place = (697, 29);
place = (697, 29);
type = Stem;
},
{
horizontal = 1;
place = (766, 27);
place = (766, 27);
type = Stem;
},
{
place = (48, 32);
place = (48, 32);
type = Stem;
},
{
place = (542, 26);
place = (542, 26);
type = Stem;
},
{
place = (669, 32);
place = (669, 32);
type = Stem;
},
{
horizontal = 1;
place = (818, 27);
place = (818, 27);
type = Stem;
},
{
place = (295, 26);
place = (295, 26);
type = Stem;
}
);
layerId = m01;
shapes = (
{
closed = 1;
nodes = (
(532,766,o),
(560,793,o),
(568,845,c),
(542,845,l),
(536,810,o),
(519,793,o),
(497,793,cs),
(456,793,o),
(418,845,o),
(367,845,cs),
(332,845,o),
(303,816,o),
(295,766,c),
(321,766,l),
(327,801,o),
(345,818,o),
(366,818,cs),
(406,818,o),
(446,766,o),
(496,766,cs)
);
},
{
closed = 1;
nodes = (
(572,-10,o),
(701,189,o),
(701,409,cs),
(701,608,o),
(572,726,o),
(405,726,cs),
(186,726,o),
(48,523,o),
(48,305,cs),
(48,106,o),
(179,-10,o),
(346,-10,cs)
);
},
{
closed = 1;
nodes = (
(190,18,o),
(80,130,o),
(80,305,cs),
(80,511,o),
(203,697,o),
(404,697,cs),
(559,697,o),
(669,586,o),
(669,409,cs),
(669,202,o),
(551,18,o),
(347,18,cs)
);
}
);
width = 712;
}
);
note = Otilde;
unicode = 213;
},
{
glyphname = OE;
kernLeft = C;
kernRight = E;
layers = (
{
hints = (
{
horizontal = 1;
place = (0, 29);
place = (0, 29);
type = Stem;
},
{
horizontal = 1;
place = (356, 28);
place = (356, 28);
type = Stem;
},
{
horizontal = 1;
place = (687, 28);
place = (687, 28);
type = Stem;
},
{
place = (53, 32);
place = (53, 32);
type = Stem;
},
{
place = (625, 16);
place = (625, 16);
type = Stem;
},
{
horizontal = 1;
place = (-10, 28);
place = (-10, 28);
type = Stem;
},
{
horizontal = 1;
place = (697, 29);
place = (697, 29);
type = Stem;
}
);
layerId = m01;
shapes = (
{
closed = 1;
nodes = (
(527,0,l),
(976,0,l),
(981,29,l),
(564,29,l),
(626,356,l),
(993,356,l),
(999,384,l),
(632,384,l),
(691,687,l),
(1085,687,l),
(1091,715,l),
(665,715,l),
(641,589,l),
(618,663,o),
(541,726,o),
(420,726,cs),
(195,726,o),
(53,514,o),
(53,297,cs),
(53,103,o),
(157,-10,o),
(314,-10,cs),
(423,-10,o),
(506,40,o),
(546,97,c)
);
},
{
closed = 1;
nodes = (
(169,18,o),
(85,127,o),
(85,297,cs),
(85,500,o),
(210,697,o),
(420,697,cs),
(553,697,o),
(644,607,o),
(622,494,cs),
(564,192,ls),
(544,89,o),
(434,18,o),
(315,18,cs)
);
}
);
width = 1058;
}
);
note = OE;
unicode = 338;
},
{
glyphname = oe;
kernLeft = c;
kernRight = e;
layers = (
{
hints = (
{
horizontal = 1;
place = (-10, 26);
place = (-10, 26);
type = Stem;
},
{
horizontal = 1;
place = (256, 26);
place = (256, 26);
type = Stem;
},
{
horizontal = 1;
place = (500, 26);
place = (500, 26);
type = Stem;
},
{
place = (23, 30);
place = (23, 30);
type = Stem;
},
{
place = (432, 25);
place = (432, 25);
type = Stem;
},
{
place = (824, 30);
place = (824, 30);
type = Stem;
}
);
layerId = m01;
shapes = (
{
closed = 1;
nodes = (
(324,-10,o),
(398,63,o),
(433,158,c),
(449,52,o),
(515,-10,o),
(617,-10,cs),
(726,-10,o),
(796,56,o),
(829,152,c),
(800,152,l),
(770,75,o),
(712,16,o),
(619,16,cs),
(511,16,o),
(457,95,o),
(457,210,cs),
(457,225,o),
(458,241,o),
(460,256,c),
(849,256,l),
(861,341,o),
(852,430,o),
(797,482,cs),
(768,511,o),
(729,526,o),
(676,526,cs),
(567,526,o),
(492,450,o),
(455,353,c),
(440,459,o),
(373,526,o),
(274,526,cs),
(112,526,o),
(23,365,o),
(23,209,cs),
(23,70,o),
(104,-10,o),
(215,-10,cs)
);
},
{
closed = 1;
nodes = (
(113,16,o),
(53,94,o),
(53,211,cs),
(53,356,o),
(133,500,o),
(273,500,cs),
(378,500,o),
(432,417,o),
(432,302,cs),
(432,161,o),
(356,16,o),
(215,16,cs)
);
},
{
closed = 1;
nodes = (
(797,500,o),
(835,399,o),
(821,282,c),
(463,282,l),
(485,398,o),
(558,500,o),
(675,500,cs)
);
}
);
width = 872;
}
);
note = oe;
unicode = 339;
},
{
glyphname = endash;
kernLeft = hyphen;
kernRight = hyphen;
layers = (
{
hints = (
{
horizontal = 1;
place = (242, 27);
place = (242, 27);
type = Stem;
},
{
place = (36, 403);
place = (36, 403);
type = Stem;
}
);
layerId = m01;
shapes = (
{
closed = 1;
nodes = (
(36,242,l),
(434,242,l),
(439,269,l),
(41,269,l)
);
}
);
width = 478;
}
);
note = endash;
unicode = 8211;
},
{
glyphname = emdash;
kernLeft = hyphen;
kernRight = hyphen;
layers = (
{
hints = (
{
horizontal = 1;
place = (242, 27);
place = (242, 27);
type = Stem;
},
{
place = (36, 670);
place = (36, 670);
type = Stem;
}
);
layerId = m01;
shapes = (
{
closed = 1;
nodes = (
(36,242,l),
(701,242,l),
(706,269,l),
(41,269,l)
);
}
);
width = 744;
}
);
note = emdash;
unicode = 8212;
},
{
glyphname = quotedblleft;
kernLeft = quotedblleft;
kernRight = quotedblleft;
layers = (
{
hints = (
{
horizontal = 1;
place = (545, 66);
place = (545, 66);
type = Stem;
},
{
horizontal = 1;
place = (716, -20);
target = down;
type = TopGhost;
},
{
place = (93, 183);
place = (93, 183);
type = Stem;
}
);
layerId = m01;
shapes = (
{
closed = 1;
nodes = (
(180,716,l),
(146,709,o),
(121,692,o),
(108,623,cs),
(93,545,l),
(130,545,l),
(143,611,l),
(129,611,l),
(140,677,o),
(155,688,o),
(176,695,c)
);
},
{
closed = 1;
nodes = (
(276,716,l),
(242,709,o),
(217,692,o),
(204,623,cs),
(189,545,l),
(226,545,l),
(239,611,l),
(225,611,l),
(236,677,o),
(251,688,o),
(272,695,c)
);
}
);
width = 219;
}
);
note = quotedblleft;
unicode = 8220;
},
{
glyphname = quotedblright;
kernLeft = quotedblright;
kernRight = quotedblright;
layers = (
{
hints = (
{
horizontal = 1;
place = (649, 66);
place = (649, 66);
type = Stem;
},
{
place = (83, 183);
place = (83, 183);
type = Stem;
}
);
layerId = m01;
shapes = (
{
closed = 1;
nodes = (
(83,544,l),
(117,551,o),
(141,568,o),
(154,633,cs),
(170,715,l),
(133,715,l),
(120,649,l),
(134,649,l),
(122,582,o),
(107,572,o),
(87,565,c)
);
},
{
closed = 1;
nodes = (
(179,544,l),
(213,551,o),
(237,568,o),
(250,633,cs),
(266,715,l),
(229,715,l),
(216,649,l),
(230,649,l),
(218,582,o),
(203,572,o),
(183,565,c)
);
}
);
width = 219;
}
);
note = quotedblright;
unicode = 8221;
},
{
glyphname = quoteleft;
kernLeft = quotedblleft;
kernRight = quotedblleft;
layers = (
{
hints = (
{
horizontal = 1;
place = (545, 66);
place = (545, 66);
type = Stem;
},
{
horizontal = 1;
place = (716, -20);
target = down;
type = TopGhost;
},
{
place = (93, 87);
place = (93, 87);
type = Stem;
}
);
layerId = m01;
shapes = (
{
closed = 1;
nodes = (
(180,716,l),
(146,709,o),
(121,692,o),
(108,623,cs),
(93,545,l),
(130,545,l),
(143,611,l),
(129,611,l),
(140,677,o),
(155,688,o),
(176,695,c)
);
}
);
width = 123;
}
);
note = quoteleft;
unicode = 8216;
},
{
glyphname = quoteright;
kernLeft = quotedblright;
kernRight = quotedblright;
layers = (
{
hints = (
{
horizontal = 1;
place = (649, 66);
place = (649, 66);
type = Stem;
},
{
place = (83, 87);
place = (83, 87);
type = Stem;
}
);
layerId = m01;
shapes = (
{
closed = 1;
nodes = (
(83,544,l),
(117,551,o),
(141,568,o),
(154,633,cs),
(170,715,l),
(133,715,l),
(120,649,l),
(134,649,l),
(122,582,o),
(107,572,o),
(87,565,c)
);
}
);
width = 123;
}
);
note = quoteright;
unicode = 8217;
},
{
glyphname = divide;
kernLeft = minus;
kernRight = minus;
layers = (
{
hints = (
{
horizontal = 1;
place = (137, 62);
place = (137, 62);
type = Stem;
},
{
horizontal = 1;
place = (313, 28);
place = (313, 28);
type = Stem;
},
{
horizontal = 1;
place = (454, 62);
place = (454, 62);
type = Stem;
},
{
place = (61, 417);
place = (61, 417);
type = Stem;
}
);
layerId = m01;
shapes = (
{
closed = 1;
nodes = (
(61,313,l),
(473,313,l),
(478,341,l),
(66,341,l)
);
},
{
closed = 1;
nodes = (
(214,137,l),
(251,137,l),
(263,199,l),
(227,199,l)
);
},
{
closed = 1;
nodes = (
(276,454,l),
(312,454,l),
(325,516,l),
(288,516,l)
);
}
);
width = 514;
}
);
note = divide;
unicode = 247;
},
{
glyphname = lozenge;
layers = (
{
hints = (
{
horizontal = 1;
place = (0, 32);
place = (0, 32);
type = Stem;
},
{
horizontal = 1;
place = (683, 32);
place = (683, 32);
type = Stem;
},
{
place = (46, 440);
place = (46, 440);
type = Stem;
}
);
layerId = m01;
shapes = (
{
closed = 1;
nodes = (
(268,32,l),
(267,32,l),
(81,359,l),
(265,683,l),
(266,683,l),
(451,358,l)
);
},
{
closed = 1;
nodes = (
(282,0,l),
(486,358,l),
(281,715,l),
(251,715,l),
(46,359,l),
(252,0,l)
);
}
);
width = 500;
}
);
note = lozenge;
unicode = 9674;
},
{
glyphname = ydieresis;
kernLeft = yacute;
kernRight = yacute;
layers = (
{
hints = (
{
horizontal = 1;
place = (-169, 28);
place = (-169, 28);
type = Stem;
},
{
horizontal = 1;
place = (517, -20);
target = down;
type = TopGhost;
},
{
horizontal = 1;
place = (644, 65);
place = (644, 65);
type = Stem;
},
{
place = (-16, 494);
place = (-16, 494);
type = Stem;
},
{
horizontal = 1;
place = (-161, 20);
place = (-161, 20);
type = Stem;
}
);
layerId = m01;
shapes = (
{
closed = 1;
nodes = (
(478,517,l),
(447,517,l),
(257,166,ls),
(223,102,o),
(192,42,o),
(192,42,c),
(191,42,l),
(191,42,o),
(178,106,o),
(164,169,cs),
(83,517,l),
(52,517,l),
(172,8,l),
(136,-58,ls),
(100,-122,o),
(74,-141,o),
(34,-141,cs),
(13,-141,o),
(1,-137,o),
(-8,-133,c),
(-10,-133,l),
(-16,-161,l),
(-5,-165,o),
(10,-169,o),
(33,-169,cs),
(85,-169,o),
(118,-147,o),
(160,-70,cs)
);
},
{
closed = 1;
nodes = (
(193,644,l),
(224,644,l),
(236,709,l),
(206,709,l)
);
},
{
closed = 1;
nodes = (
(340,644,l),
(370,644,l),
(383,709,l),
(353,709,l)
);
}
);
width = 439;
}
);
note = ydieresis;
unicode = 255;
},
{
glyphname = Ydieresis;
kernLeft = Yacute;
kernRight = Yacute;
layers = (
{
hints = (
{
horizontal = 1;
place = (0, 21);
target = up;
type = BottomGhost;
},
{
horizontal = 1;
place = (715, -20);
target = down;
type = TopGhost;
},
{
horizontal = 1;
place = (770, 66);
place = (770, 66);
type = Stem;
},
{
place = (81, 555);
place = (81, 555);
type = Stem;
}
);
layerId = m01;
shapes = (
{
closed = 1;
nodes = (
(115,715,l),
(81,715,l),
(274,324,l),
(211,0,l),
(242,0,l),
(305,321,l),
(636,715,l),
(600,715,l),
(295,350,l),
(294,350,l)
);
},
{
closed = 1;
nodes = (
(284,770,l),
(314,770,l),
(328,836,l),
(297,836,l)
);
},
{
closed = 1;
nodes = (
(431,770,l),
(461,770,l),
(474,836,l),
(444,836,l)
);
}
);
width = 552;
}
);
note = Ydieresis;
unicode = 376;
},
{
glyphname = fraction;
layers = (
{
hints = (
{
horizontal = 1;
place = (0, 21);
target = up;
type = BottomGhost;
},
{
horizontal = 1;
place = (715, -20);
target = down;
type = TopGhost;
},
{
place = (-218, 640);
place = (-218, 640);
type = Stem;
}
);
layerId = m01;
shapes = (
{
closed = 1;
nodes = (
(-218,0,l),
(-185,0,l),
(422,715,l),
(388,715,l)
);
}
);
width = 166;
}
);
note = fraction;
unicode = 8260;
},
{
glyphname = Euro;
layers = (
{
hints = (
{
horizontal = 1;
place = (-10, 28);
place = (-10, 28);
type = Stem;
},
{
horizontal = 1;
place = (269, 25);
place = (269, 25);
type = Stem;
},
{
horizontal = 1;
place = (389, 25);
place = (389, 25);
type = Stem;
},
{
horizontal = 1;
place = (669, 27);
place = (669, 27);
type = Stem;
},
{
place = (86, 32);
place = (86, 32);
type = Stem;
},
{
place = (558, 30);
place = (558, 30);
type = Stem;
}
);
layerId = m01;
shapes = (
{
closed = 1;
nodes = (
(369,389,l),
(375,414,l),
(140,414,l),
(177,547,o),
(260,669,o),
(395,669,cs),
(500,669,o),
(553,601,o),
(558,501,c),
(588,501,l),
(583,622,o),
(513,696,o),
(396,696,cs),
(244,696,o),
(149,560,o),
(108,414,c),
(50,414,l),
(45,389,l),
(102,389,l),
(95,357,o),
(90,325,o),
(87,294,c),
(27,294,l),
(21,269,l),
(86,269,l),
(86,251,ls),
(86,106,o),
(157,-10,o),
(302,-10,cs),
(421,-10,o),
(520,76,o),
(558,232,c),
(529,232,l),
(494,97,o),
(409,17,o),
(303,18,cs),
(169,18,o),
(118,130,o),
(118,251,cs),
(118,269,l),
(346,269,l),
(352,294,l),
(119,294,l),
(122,325,o),
(127,357,o),
(134,389,c)
);
}
);
width = 583;
}
);
note = Euro;
unicode = 8364;
},
{
glyphname = guilsinglleft;
kernLeft = guillemotleft;
kernRight = guillemotleft;
layers = (
{
hints = (
{
horizontal = 1;
place = (132, 279);
place = (132, 279);
type = Stem;
},
{
place = (52, 20);
place = (52, 20);
type = Stem;
}
);
layerId = m01;
shapes = (
{
closed = 1;
nodes = (
(169,168,l),
(73,273,l),
(73,274,l),
(208,370,l),
(216,411,l),
(56,294,l),
(49,257,l),
(162,132,l)
);
}
);
width = 238;
}
);
note = guilsinglleft;
unicode = 8249;
},
{
glyphname = guilsinglright;
kernLeft = guillemotright;
kernRight = guillemotright;
layers = (
{
hints = (
{
horizontal = 1;
place = (132, 279);
place = (132, 279);
type = Stem;
},
{
place = (169, 20);
place = (169, 20);
type = Stem;
}
);
layerId = m01;
shapes = (
{
closed = 1;
nodes = (
(73,376,l),
(169,271,l),
(169,270,l),
(34,173,l),
(26,132,l),
(186,250,l),
(193,287,l),
(80,411,l)
);
}
);
width = 238;
}
);
note = guilsinglright;
unicode = 8250;
},
{
glyphname = fi;
kernLeft = f;
layers = (
{
hints = (
{
horizontal = 1;
place = (0, 21);
target = up;
type = BottomGhost;
},
{
horizontal = 1;
place = (491, 26);
place = (491, 26);
type = Stem;
},
{
horizontal = 1;
place = (694, 26);
place = (694, 26);
type = Stem;
},
{
place = (40, 379);
place = (40, 379);
type = Stem;
},
{
horizontal = 1;
place = (644, 66);
place = (644, 66);
type = Stem;
}
);
layerId = m01;
shapes = (
{
closed = 1;
nodes = (
(382,517,l),
(352,517,l),
(252,0,l),
(282,0,l)
);
},
{
closed = 1;
nodes = (
(419,710,l),
(390,710,l),
(377,644,l),
(407,644,l)
);
},
{
closed = 1;
nodes = (
(317,719,l),
(311,720,o),
(283,720,o),
(276,720,cs),
(213,720,o),
(176,697,o),
(161,624,cs),
(140,517,l),
(68,517,l),
(63,491,l),
(136,491,l),
(40,0,l),
(70,0,l),
(165,491,l),
(273,491,l),
(278,517,l),
(170,517,l),
(191,620,ls),
(202,678,o),
(228,694,o),
(275,694,cs),
(282,694,o),
(306,693,o),
(311,692,c)
);
}
);
width = 385;
}
);
note = fi;
unicode = 64257;
},
{
glyphname = fl;
kernLeft = f;
layers = (
{
hints = (
{
horizontal = 1;
place = (0, 21);
target = up;
type = BottomGhost;
},
{
horizontal = 1;
place = (491, 26);
place = (491, 26);
type = Stem;
},
{
horizontal = 1;
place = (715, -20);
target = down;
type = TopGhost;
},
{
place = (40, 382);
place = (40, 382);
type = Stem;
},
{
horizontal = 1;
place = (694, 26);
place = (694, 26);
type = Stem;
}
);
layerId = m01;
shapes = (
{
closed = 1;
nodes = (
(422,715,l),
(392,715,l),
(254,0,l),
(284,0,l)
);
},
{
closed = 1;
nodes = (
(317,719,l),
(311,720,o),
(283,720,o),
(276,720,cs),
(213,720,o),
(176,697,o),
(161,624,cs),
(140,517,l),
(68,517,l),
(63,491,l),
(136,491,l),
(40,0,l),
(70,0,l),
(165,491,l),
(273,491,l),
(278,517,l),
(170,517,l),
(191,620,ls),
(202,678,o),
(228,694,o),
(275,694,cs),
(282,694,o),
(306,693,o),
(311,692,c)
);
}
);
width = 388;
}
);
note = fl;
unicode = 64258;
},
{
glyphname = daggerdbl;
layers = (
{
hints = (
{
horizontal = 1;
place = (105, 27);
place = (105, 27);
type = Stem;
},
{
horizontal = 1;
place = (479, 27);
place = (479, 27);
type = Stem;
},
{
horizontal = 1;
place = (715, -20);
target = down;
type = TopGhost;
},
{
place = (2, 509);
place = (2, 509);
type = Stem;
}
);
layerId = m01;
shapes = (
{
closed = 1;
nodes = (
(351,715,l),
(320,715,l),
(280,506,l),
(79,506,l),
(73,479,l),
(274,479,l),
(207,132,l),
(7,132,l),
(2,105,l),
(201,105,l),
(161,-104,l),
(192,-104,l),
(232,105,l),
(433,105,l),
(439,132,l),
(238,132,l),
(305,479,l),
(505,479,l),
(511,506,l),
(310,506,l)
);
}
);
width = 495;
}
);
note = daggerdbl;
unicode = 8225;
},
{
glyphname = periodcentered;
layers = (
{
hints = (
{
horizontal = 1;
place = (279, 66);
place = (279, 66);
type = Stem;
},
{
place = (41, 50);
place = (41, 50);
type = Stem;
}
);
layerId = m01;
shapes = (
{
closed = 1;
nodes = (
(91,345,l),
(54,345,l),
(41,279,l),
(78,279,l)
);
}
);
width = 110;
}
);
note = periodcentered;
unicode = 183;
},
{
glyphname = quotesinglbase;
kernRight = quotesinglbase;
layers = (
{
hints = (
{
horizontal = 1;
place = (3, 66);
place = (3, 66);
type = Stem;
},
{
place = (-29, 87);
place = (-29, 87);
type = Stem;
}
);
layerId = m01;
shapes = (
{
closed = 1;
nodes = (
(-29,-102,l),
(5,-95,o),
(29,-78,o),
(42,-13,cs),
(58,69,l),
(21,69,l),
(8,3,l),
(22,3,l),
(10,-64,o),
(-5,-74,o),
(-25,-81,c)
);
}
);
width = 132;
}
);
note = quotesinglbase;
unicode = 8218;
},
{
glyphname = quotedblbase;
kernRight = quotesinglbase;
layers = (
{
hints = (
{
horizontal = 1;
place = (2, 66);
place = (2, 66);
type = Stem;
},
{
place = (-29, 183);
place = (-29, 183);
type = Stem;
}
);
layerId = m01;
shapes = (
{
closed = 1;
nodes = (
(-29,-103,l),
(5,-96,o),
(29,-79,o),
(42,-14,cs),
(58,68,l),
(21,68,l),
(8,2,l),
(22,2,l),
(10,-65,o),
(-5,-75,o),
(-25,-82,c)
);
},
{
closed = 1;
nodes = (
(67,-103,l),
(101,-96,o),
(125,-79,o),
(138,-14,cs),
(154,68,l),
(117,68,l),
(104,2,l),
(118,2,l),
(106,-65,o),
(91,-75,o),
(71,-82,c)
);
}
);
width = 228;
}
);
note = quotedblbase;
unicode = 8222;
},
{
glyphname = perthousand;
kernLeft = percent;
layers = (
{
hints = (
{
horizontal = 1;
place = (-10, 25);
place = (-10, 25);
type = Stem;
},
{
horizontal = 1;
place = (333, 25);
place = (333, 25);
type = Stem;
},
{
horizontal = 1;
place = (664, 25);
place = (664, 25);
type = Stem;
},
{
place = (73, 29);
place = (73, 29);
type = Stem;
},
{
place = (322, 29);
place = (322, 29);
type = Stem;
},
{
place = (385, 30);
place = (385, 30);
type = Stem;
},
{
place = (634, 30);
place = (634, 30);
type = Stem;
},
{
place = (710, 29);
place = (710, 29);
type = Stem;
},
{
place = (959, 29);
place = (959, 29);
type = Stem;
},
{
horizontal = 1;
place = (0, 21);
target = up;
type = BottomGhost;
},
{
horizontal = 1;
place = (685, -20);
target = down;
type = TopGhost;
},
{
horizontal = 1;
place = (321, 24);
place = (321, 24);
type = Stem;
}
);
layerId = m01;
shapes = (
{
closed = 1;
nodes = (
(988,301,o),
(944,358,o),
(870,358,cs),
(765,358,o),
(710,238,o),
(710,131,cs),
(710,46,o),
(757,-10,o),
(830,-10,cs),
(938,-10,o),
(988,111,o),
(988,218,cs)
);
},
{
closed = 1;
nodes = (
(929,333,o),
(959,284,o),
(959,217,cs),
(959,126,o),
(921,14,o),
(831,15,cs),
(772,15,o),
(739,63,o),
(739,132,cs),
(739,221,o),
(780,333,o),
(870,333,cs)
);
},
{
closed = 1;
nodes = (
(664,301,o),
(620,358,o),
(546,358,cs),
(440,358,o),
(385,238,o),
(385,131,cs),
(385,46,o),
(433,-10,o),
(506,-10,cs),
(613,-10,o),
(664,111,o),
(664,218,cs)
);
},
{
closed = 1;
nodes = (
(634,126,o),
(597,14,o),
(506,15,cs),
(447,15,o),
(415,63,o),
(415,132,cs),
(415,221,o),
(455,333,o),
(545,333,cs),
(605,333,o),
(634,284,o),
(634,217,cs)
);
},
{
closed = 1;
nodes = (
(628,685,l),
(84,0,l),
(116,0,l),
(659,685,l)
);
},
{
closed = 1;
nodes = (
(128,689,o),
(73,569,o),
(73,462,cs),
(73,377,o),
(120,321,o),
(193,321,cs),
(299,321,o),
(351,442,o),
(351,549,cs),
(351,632,o),
(307,689,o),
(233,689,cs)
);
},
{
closed = 1;
nodes = (
(322,457,o),
(282,345,o),
(194,345,cs),
(135,346,o),
(102,394,o),
(102,463,cs),
(102,552,o),
(145,664,o),
(233,664,cs),
(292,664,o),
(322,615,o),
(322,548,cs)
);
}
);
width = 1031;
}
);
note = perthousand;
unicode = 8240;
},
{
glyphname = Acircumflex;
kernLeft = A;
kernRight = A;
layers = (
{
hints = (
{
horizontal = 1;
place = (0, 21);
target = up;
type = BottomGhost;
},
{
horizontal = 1;
place = (244, 27);
place = (244, 27);
type = Stem;
},
{
horizontal = 1;
place = (681, 34);
place = (681, 34);
type = Stem;
},
{
horizontal = 1;
place = (838, 20);
place = (838, 20);
type = Stem;
},
{
place = (-42, 576);
place = (-42, 576);
type = Stem;
}
);
layerId = m01;
shapes = (
{
closed = 1;
nodes = (
(503,0,l),
(534,0,l),
(385,715,l),
(351,715,l),
(-42,0,l),
(-10,0,l),
(124,244,l),
(452,244,l)
);
},
{
closed = 1;
nodes = (
(306,575,ls),
(331,621,o),
(362,681,o),
(362,681,c),
(363,681,l),
(363,681,o),
(377,611,o),
(384,577,cs),
(447,271,l),
(139,271,l)
);
},
{
closed = 1;
nodes = (
(379,838,l),
(380,838,l),
(444,755,l),
(477,755,l),
(400,858,l),
(363,858,l),
(255,755,l),
(291,755,l)
);
}
);
width = 593;
}
);
note = Acircumflex;
unicode = 194;
},
{
glyphname = Ecircumflex;
kernRight = E;
layers = (
{
hints = (
{
horizontal = 1;
place = (0, 29);
place = (0, 29);
type = Stem;
},
{
horizontal = 1;
place = (356, 28);
place = (356, 28);
type = Stem;
},
{
horizontal = 1;
place = (687, 28);
place = (687, 28);
type = Stem;
},
{
place = (14, 572);
place = (14, 572);
type = Stem;
},
{
horizontal = 1;
place = (687, 171);
place = (687, 171);
type = Stem;
}
);
layerId = m01;
shapes = (
{
closed = 1;
nodes = (
(14,0,l),
(471,0,l),
(477,29,l),
(51,29,l),
(114,356,l),
(489,356,l),
(494,384,l),
(119,384,l),
(178,687,l),
(581,687,l),
(586,715,l),
(151,715,l)
);
},
{
closed = 1;
nodes = (
(390,838,l),
(391,838,l),
(455,755,l),
(488,755,l),
(411,858,l),
(374,858,l),
(266,755,l),
(302,755,l)
);
}
);
width = 556;
}
);
note = Ecircumflex;
unicode = 202;
},
{
glyphname = Aacute;
kernLeft = A;
kernRight = A;
layers = (
{
hints = (
{
horizontal = 1;
place = (0, 21);
target = up;
type = BottomGhost;
},
{
horizontal = 1;
place = (244, 27);
place = (244, 27);
type = Stem;
},
{
horizontal = 1;
place = (681, 34);
place = (681, 34);
type = Stem;
},
{
place = (-42, 576);
place = (-42, 576);
type = Stem;
}
);
layerId = m01;
shapes = (
{
closed = 1;
nodes = (
(503,0,l),
(534,0,l),
(385,715,l),
(351,715,l),
(-42,0,l),
(-10,0,l),
(124,244,l),
(452,244,l)
);
},
{
closed = 1;
nodes = (
(306,575,ls),
(331,621,o),
(362,681,o),
(362,681,c),
(363,681,l),
(363,681,o),
(377,611,o),
(384,577,cs),
(447,271,l),
(139,271,l)
);
},
{
closed = 1;
nodes = (
(362,755,l),
(390,755,l),
(470,867,l),
(431,867,l)
);
}
);
width = 593;
}
);
note = Aacute;
unicode = 193;
},
{
glyphname = Edieresis;
kernRight = E;
layers = (
{
hints = (
{
horizontal = 1;
place = (0, 29);
place = (0, 29);
type = Stem;
},
{
horizontal = 1;
place = (356, 28);
place = (356, 28);
type = Stem;
},
{
horizontal = 1;
place = (687, 149);
place = (687, 149);
type = Stem;
},
{
place = (14, 572);
place = (14, 572);
type = Stem;
},
{
horizontal = 1;
place = (687, 28);
place = (687, 28);
type = Stem;
}
);
layerId = m01;
shapes = (
{
closed = 1;
nodes = (
(293,770,l),
(323,770,l),
(337,836,l),
(306,836,l)
);
},
{
closed = 1;
nodes = (
(440,770,l),
(470,770,l),
(483,836,l),
(453,836,l)
);
},
{
closed = 1;
nodes = (
(14,0,l),
(471,0,l),
(477,29,l),
(51,29,l),
(114,356,l),
(489,356,l),
(494,384,l),
(119,384,l),
(178,687,l),
(581,687,l),
(586,715,l),
(151,715,l)
);
}
);
width = 556;
}
);
note = Edieresis;
unicode = 203;
},
{
glyphname = Egrave;
kernRight = E;
layers = (
{
hints = (
{
horizontal = 1;
place = (0, 29);
place = (0, 29);
type = Stem;
},
{
horizontal = 1;
place = (356, 28);
place = (356, 28);
type = Stem;
},
{
horizontal = 1;
place = (687, 180);
place = (687, 180);
type = Stem;
},
{
place = (14, 572);
place = (14, 572);
type = Stem;
},
{
horizontal = 1;
place = (687, 28);
place = (687, 28);
type = Stem;
}
);
layerId = m01;
shapes = (
{
closed = 1;
nodes = (
(394,755,l),
(349,867,l),
(311,867,l),
(365,755,l)
);
},
{
closed = 1;
nodes = (
(14,0,l),
(471,0,l),
(477,29,l),
(51,29,l),
(114,356,l),
(489,356,l),
(494,384,l),
(119,384,l),
(178,687,l),
(581,687,l),
(586,715,l),
(151,715,l)
);
}
);
width = 556;
}
);
note = Egrave;
unicode = 200;
},
{
glyphname = Iacute;
layers = (
{
hints = (
{
horizontal = 1;
place = (0, 21);
target = up;
type = BottomGhost;
},
{
horizontal = 1;
place = (715, -20);
target = down;
type = TopGhost;
},
{
place = (17, 254);
place = (17, 254);
type = Stem;
}
);
layerId = m01;
shapes = (
{
closed = 1;
nodes = (
(186,715,l),
(155,715,l),
(17,0,l),
(48,0,l)
);
},
{
closed = 1;
nodes = (
(163,755,l),
(191,755,l),
(271,867,l),
(232,867,l)
);
}
);
width = 165;
}
);
note = Iacute;
unicode = 205;
},
{
glyphname = Icircumflex;
layers = (
{
hints = (
{
horizontal = 1;
place = (0, 21);
target = up;
type = BottomGhost;
},
{
horizontal = 1;
place = (715, -20);
target = down;
type = TopGhost;
},
{
horizontal = 1;
place = (838, 20);
place = (838, 20);
type = Stem;
},
{
place = (17, 268);
place = (17, 268);
type = Stem;
}
);
layerId = m01;
shapes = (
{
closed = 1;
nodes = (
(186,715,l),
(155,715,l),
(17,0,l),
(48,0,l)
);
},
{
closed = 1;
nodes = (
(187,838,l),
(188,838,l),
(252,755,l),
(285,755,l),
(208,858,l),
(171,858,l),
(63,755,l),
(99,755,l)
);
}
);
width = 165;
}
);
note = Icircumflex;
unicode = 206;
},
{
glyphname = Idieresis;
layers = (
{
hints = (
{
horizontal = 1;
place = (0, 21);
target = up;
type = BottomGhost;
},
{
horizontal = 1;
place = (715, -20);
target = down;
type = TopGhost;
},
{
horizontal = 1;
place = (770, 66);
place = (770, 66);
type = Stem;
},
{
place = (17, 256);
place = (17, 256);
type = Stem;
}
);
layerId = m01;
shapes = (
{
closed = 1;
nodes = (
(141,836,l),
(111,836,l),
(98,770,l),
(128,770,l)
);
},
{
closed = 1;
nodes = (
(273,836,l),
(243,836,l),
(230,770,l),
(260,770,l)
);
},
{
closed = 1;
nodes = (
(186,715,l),
(155,715,l),
(17,0,l),
(48,0,l)
);
}
);
width = 165;
}
);
note = Idieresis;
unicode = 207;
},
{
glyphname = Igrave;
layers = (
{
hints = (
{
horizontal = 1;
place = (0, 21);
target = up;
type = BottomGhost;
},
{
horizontal = 1;
place = (715, -20);
target = down;
type = TopGhost;
},
{
horizontal = 1;
place = (755, 112);
place = (755, 112);
type = Stem;
},
{
place = (17, 173);
place = (17, 173);
type = Stem;
}
);
layerId = m01;
shapes = (
{
closed = 1;
nodes = (
(186,715,l),
(155,715,l),
(17,0,l),
(48,0,l)
);
},
{
closed = 1;
nodes = (
(190,755,l),
(145,867,l),
(107,867,l),
(161,755,l)
);
}
);
width = 165;
}
);
note = Igrave;
unicode = 204;
},
{
glyphname = Oacute;
kernLeft = C;
kernRight = O;
layers = (
{
hints = (
{
horizontal = 1;
place = (-10, 28);
place = (-10, 28);
type = Stem;
},
{
horizontal = 1;
place = (697, 29);
place = (697, 29);
type = Stem;
},
{
place = (48, 32);
place = (48, 32);
type = Stem;
},
{
place = (669, 32);
place = (669, 32);
type = Stem;
},
{
horizontal = 1;
place = (755, 112);
place = (755, 112);
type = Stem;
}
);
layerId = m01;
shapes = (
{
closed = 1;
nodes = (
(405,755,l),
(433,755,l),
(513,867,l),
(474,867,l)
);
},
{
closed = 1;
nodes = (
(572,-10,o),
(701,189,o),
(701,409,cs),
(701,608,o),
(572,726,o),
(405,726,cs),
(186,726,o),
(48,523,o),
(48,305,cs),
(48,106,o),
(179,-10,o),
(346,-10,cs)
);
},
{
closed = 1;
nodes = (
(190,18,o),
(80,130,o),
(80,305,cs),
(80,511,o),
(203,697,o),
(404,697,cs),
(559,697,o),
(669,586,o),
(669,409,cs),
(669,202,o),
(551,18,o),
(347,18,cs)
);
}
);
width = 712;
}
);
note = Oacute;
unicode = 211;
},
{
glyphname = Ocircumflex;
kernLeft = C;
kernRight = O;
layers = (
{
hints = (
{
horizontal = 1;
place = (-10, 28);
place = (-10, 28);
type = Stem;
},
{
horizontal = 1;
place = (697, 29);
place = (697, 29);
type = Stem;
},
{
horizontal = 1;
place = (838, 20);
place = (838, 20);
type = Stem;
},
{
place = (48, 32);
place = (48, 32);
type = Stem;
},
{
place = (669, 32);
place = (669, 32);
type = Stem;
}
);
layerId = m01;
shapes = (
{
closed = 1;
nodes = (
(572,-10,o),
(701,189,o),
(701,409,cs),
(701,608,o),
(572,726,o),
(405,726,cs),
(186,726,o),
(48,523,o),
(48,305,cs),
(48,106,o),
(179,-10,o),
(346,-10,cs)
);
},
{
closed = 1;
nodes = (
(190,18,o),
(80,130,o),
(80,305,cs),
(80,511,o),
(203,697,o),
(404,697,cs),
(559,697,o),
(669,586,o),
(669,409,cs),
(669,202,o),
(551,18,o),
(347,18,cs)
);
},
{
closed = 1;
nodes = (
(433,838,l),
(434,838,l),
(498,755,l),
(531,755,l),
(454,858,l),
(417,858,l),
(309,755,l),
(345,755,l)
);
}
);
width = 712;
}
);
note = Ocircumflex;
unicode = 212;
},
{
glyphname = Ograve;
kernLeft = C;
kernRight = O;
layers = (
{
hints = (
{
horizontal = 1;
place = (-10, 28);
place = (-10, 28);
type = Stem;
},
{
horizontal = 1;
place = (697, 29);
place = (697, 29);
type = Stem;
},
{
place = (48, 32);
place = (48, 32);
type = Stem;
},
{
place = (669, 32);
place = (669, 32);
type = Stem;
},
{
horizontal = 1;
place = (755, 112);
place = (755, 112);
type = Stem;
}
);
layerId = m01;
shapes = (
{
closed = 1;
nodes = (
(440,755,l),
(395,867,l),
(357,867,l),
(411,755,l)
);
},
{
closed = 1;
nodes = (
(572,-10,o),
(701,189,o),
(701,409,cs),
(701,608,o),
(572,726,o),
(405,726,cs),
(186,726,o),
(48,523,o),
(48,305,cs),
(48,106,o),
(179,-10,o),
(346,-10,cs)
);
},
{
closed = 1;
nodes = (
(190,18,o),
(80,130,o),
(80,305,cs),
(80,511,o),
(203,697,o),
(404,697,cs),
(559,697,o),
(669,586,o),
(669,409,cs),
(669,202,o),
(551,18,o),
(347,18,cs)
);
}
);
width = 712;
}
);
note = Ograve;
unicode = 210;
},
{
glyphname = Uacute;
kernLeft = U;
kernRight = U;
layers = (
{
hints = (
{
horizontal = 1;
place = (-9, 28);
place = (-9, 28);
type = Stem;
},
{
horizontal = 1;
place = (715, -20);
target = down;
type = TopGhost;
},
{
horizontal = 1;
place = (755, 112);
place = (755, 112);
type = Stem;
},
{
place = (46, 32);
place = (46, 32);
type = Stem;
}
);
layerId = m01;
shapes = (
{
closed = 1;
nodes = (
(380,755,l),
(408,755,l),
(488,867,l),
(449,867,l)
);
},
{
closed = 1;
nodes = (
(142,715,l),
(53,253,ls),
(18,75,o),
(120,-9,o),
(280,-9,cs),
(424,-9,o),
(521,67,o),
(548,209,cs),
(647,715,l),
(616,715,l),
(517,212,ls),
(492,83,o),
(410,19,o),
(283,19,cs),
(124,19,o),
(55,103,o),
(84,252,cs),
(174,715,l)
);
}
);
width = 614;
}
);
note = Uacute;
unicode = 218;
},
{
glyphname = Ucircumflex;
kernLeft = U;
kernRight = U;
layers = (
{
hints = (
{
horizontal = 1;
place = (-9, 28);
place = (-9, 28);
type = Stem;
},
{
horizontal = 1;
place = (715, -20);
target = down;
type = TopGhost;
},
{
horizontal = 1;
place = (838, 20);
place = (838, 20);
type = Stem;
},
{
place = (46, 32);
place = (46, 32);
type = Stem;
}
);
layerId = m01;
shapes = (
{
closed = 1;
nodes = (
(142,715,l),
(53,253,ls),
(18,75,o),
(120,-9,o),
(280,-9,cs),
(424,-9,o),
(521,67,o),
(548,209,cs),
(647,715,l),
(616,715,l),
(517,212,ls),
(492,83,o),
(410,19,o),
(283,19,cs),
(124,19,o),
(55,103,o),
(84,252,cs),
(174,715,l)
);
},
{
closed = 1;
nodes = (
(411,838,l),
(412,838,l),
(476,755,l),
(509,755,l),
(432,858,l),
(395,858,l),
(287,755,l),
(323,755,l)
);
}
);
width = 614;
}
);
note = Ucircumflex;
unicode = 219;
},
{
glyphname = Ugrave;
kernLeft = U;
kernRight = U;
layers = (
{
hints = (
{
horizontal = 1;
place = (-9, 28);
place = (-9, 28);
type = Stem;
},
{
horizontal = 1;
place = (715, -20);
target = down;
type = TopGhost;
},
{
horizontal = 1;
place = (755, 112);
place = (755, 112);
type = Stem;
},
{
place = (46, 32);
place = (46, 32);
type = Stem;
}
);
layerId = m01;
shapes = (
{
closed = 1;
nodes = (
(417,755,l),
(372,867,l),
(334,867,l),
(388,755,l)
);
},
{
closed = 1;
nodes = (
(142,715,l),
(53,253,ls),
(18,75,o),
(120,-9,o),
(280,-9,cs),
(424,-9,o),
(521,67,o),
(548,209,cs),
(647,715,l),
(616,715,l),
(517,212,ls),
(492,83,o),
(410,19,o),
(283,19,cs),
(124,19,o),
(55,103,o),
(84,252,cs),
(174,715,l)
);
}
);
width = 614;
}
);
note = Ugrave;
unicode = 217;
},
{
glyphname = dotlessi;
kernLeft = m;
kernRight = u;
layers = (
{
hints = (
{
horizontal = 1;
place = (0, 21);
target = up;
type = BottomGhost;
},
{
horizontal = 1;
place = (517, -20);
target = down;
type = TopGhost;
},
{
place = (3, 130);
place = (3, 130);
type = Stem;
}
);
layerId = m01;
shapes = (
{
closed = 1;
nodes = (
(133,517,l),
(103,517,l),
(3,0,l),
(33,0,l)
);
}
);
width = 136;
}
);
note = dotlessi;
unicode = 305;
},
{
glyphname = circumflex;
layers = (
{
hints = (
{
horizontal = 1;
place = (683, 21);
place = (683, 21);
type = Stem;
},
{
place = (189, 210);
place = (189, 210);
type = Stem;
}
);
layerId = m01;
shapes = (
{
closed = 1;
nodes = (
(328,704,l),
(291,704,l),
(189,599,l),
(224,599,l),
(307,683,l),
(308,683,l),
(366,599,l),
(399,599,l)
);
}
);
width = 456;
}
);
note = circumflex;
unicode = 710;
},
{
glyphname = tilde;
layers = (
{
hints = (
{
horizontal = 1;
place = (659, 27);
place = (659, 27);
type = Stem;
},
{
place = (181, 26);
place = (181, 26);
type = Stem;
},
{
place = (427, 26);
place = (427, 26);
type = Stem;
},
{
horizontal = 1;
place = (607, 27);
place = (607, 27);
type = Stem;
}
);
layerId = m01;
shapes = (
{
closed = 1;
nodes = (
(416,607,o),
(445,634,o),
(453,686,c),
(427,686,l),
(421,651,o),
(404,634,o),
(382,634,cs),
(340,634,o),
(304,686,o),
(253,686,cs),
(218,686,o),
(189,657,o),
(181,607,c),
(207,607,l),
(213,642,o),
(231,659,o),
(252,659,cs),
(292,659,o),
(331,607,o),
(381,607,cs)
);
}
);
width = 485;
}
);
note = tilde;
unicode = 732;
},
{
glyphname = macron;
layers = (
{
hints = (
{
horizontal = 1;
place = (641, 30);
place = (641, 30);
type = Stem;
},
{
place = (193, 226);
place = (193, 226);
type = Stem;
}
);
layerId = m01;
shapes = (
{
closed = 1;
nodes = (
(193,641,l),
(414,641,l),
(419,671,l),
(199,671,l)
);
}
);
width = 464;
}
);
note = macron;
unicode = 175;
},
{
glyphname = breve;
layers = (
{
hints = (
{
horizontal = 1;
place = (604, 28);
place = (604, 28);
type = Stem;
},
{
place = (215, 28);
place = (215, 28);
type = Stem;
}
);
layerId = m01;
shapes = (
{
closed = 1;
nodes = (
(390,604,o),
(436,643,o),
(449,701,c),
(421,701,l),
(408,658,o),
(376,632,o),
(325,632,cs),
(275,632,o),
(247,659,o),
(243,701,c),
(215,701,l),
(218,643,o),
(259,604,o),
(324,604,cs)
);
}
);
width = 484;
}
);
note = breve;
unicode = 728;
},
{
glyphname = dotaccent;
layers = (
{
hints = (
{
horizontal = 1;
place = (638, 66);
place = (638, 66);
type = Stem;
},
{
place = (288, 44);
place = (288, 44);
type = Stem;
}
);
layerId = m01;
shapes = (
{
closed = 1;
nodes = (
(288,638,l),
(319,638,l),
(332,704,l),
(301,704,l)
);
}
);
width = 462;
}
);
note = dotaccent;
unicode = 729;
},
{
glyphname = ring;
layers = (
{
hints = (
{
horizontal = 1;
place = (571, 22);
place = (571, 22);
type = Stem;
},
{
horizontal = 1;
place = (710, 22);
place = (710, 22);
type = Stem;
},
{
place = (238, 25);
place = (238, 25);
type = Stem;
},
{
place = (375, 25);
place = (375, 25);
type = Stem;
}
);
layerId = m01;
shapes = (
{
closed = 1;
nodes = (
(366,571,o),
(400,605,o),
(400,652,cs),
(400,698,o),
(366,732,o),
(319,732,cs),
(273,732,o),
(238,698,o),
(238,652,cs),
(238,605,o),
(273,571,o),
(319,571,cs)
);
},
{
closed = 1;
nodes = (
(285,593,o),
(263,618,o),
(263,652,cs),
(263,685,o),
(285,710,o),
(319,710,cs),
(353,710,o),
(375,685,o),
(375,652,cs),
(375,618,o),
(353,593,o),
(319,593,cs)
);
}
);
width = 489;
}
);
note = ring;
unicode = 730;
},
{
glyphname = cedilla;
layers = (
{
hints = (
{
horizontal = 1;
place = (-186, 23);
place = (-186, 23);
type = Stem;
},
{
horizontal = 1;
place = (-76, 22);
place = (-76, 22);
type = Stem;
},
{
horizontal = 1;
place = (-3, 21);
target = up;
type = BottomGhost;
},
{
place = (210, 29);
place = (210, 29);
type = Stem;
},
{
horizontal = 1;
place = (-160, 21);
target = up;
type = BottomGhost;
}
);
layerId = m01;
shapes = (
{
closed = 1;
nodes = (
(183,-186,o),
(239,-169,o),
(239,-113,cs),
(239,-77,o),
(213,-53,o),
(166,-54,cs),
(160,-54,o),
(154,-55,o),
(149,-56,c),
(211,-3,l),
(186,3,l),
(103,-70,l),
(111,-85,l),
(124,-81,o),
(142,-76,o),
(161,-76,cs),
(192,-76,o),
(210,-90,o),
(210,-114,cs),
(210,-151,o),
(172,-163,o),
(134,-163,cs),
(105,-163,o),
(78,-154,o),
(57,-142,c),
(46,-160,l),
(69,-176,o),
(103,-186,o),
(138,-186,cs)
);
}
);
width = 484;
}
);
note = cedilla;
unicode = 184;
},
{
glyphname = hungarumlaut;
layers = (
{
hints = (
{
horizontal = 1;
place = (597, 124);
place = (597, 124);
type = Stem;
},
{
place = (209, 214);
place = (209, 214);
type = Stem;
}
);
layerId = m01;
shapes = (
{
closed = 1;
nodes = (
(209,597,l),
(235,597,l),
(301,721,l),
(266,721,l)
);
},
{
closed = 1;
nodes = (
(331,597,l),
(358,597,l),
(423,721,l),
(388,721,l)
);
}
);
width = 463;
}
);
note = hungarumlaut;
unicode = 733;
},
{
glyphname = ogonek;
layers = (
{
hints = (
{
horizontal = 1;
place = (-173, 25);
place = (-173, 25);
type = Stem;
},
{
place = (66, 31);
place = (66, 31);
type = Stem;
}
);
layerId = m01;
shapes = (
{
closed = 1;
nodes = (
(189,-140,l),
(177,-145,o),
(162,-148,o),
(147,-148,cs),
(118,-148,o),
(97,-136,o),
(97,-107,cs),
(97,-71,o),
(128,-34,o),
(199,0,c),
(158,0,l),
(101,-28,o),
(66,-67,o),
(66,-110,cs),
(66,-150,o),
(96,-173,o),
(143,-173,cs),
(160,-173,o),
(176,-169,o),
(186,-164,c),
(191,-140,l)
);
}
);
width = 475;
}
);
note = ogonek;
unicode = 731;
},
{
glyphname = caron;
layers = (
{
hints = (
{
horizontal = 1;
place = (599, 20);
place = (599, 20);
type = Stem;
},
{
place = (208, 210);
place = (208, 210);
type = Stem;
}
);
layerId = m01;
shapes = (
{
closed = 1;
nodes = (
(279,599,l),
(315,599,l),
(418,704,l),
(383,704,l),
(300,619,l),
(299,619,l),
(241,704,l),
(208,704,l)
);
}
);
width = 455;
}
);
note = caron;
unicode = 711;
},
{
glyphname = Amacron;
kernLeft = A;
kernRight = A;
layers = (
{
hints = (
{
horizontal = 1;
place = (0, 21);
target = up;
type = BottomGhost;
},
{
horizontal = 1;
place = (244, 27);
place = (244, 27);
type = Stem;
},
{
horizontal = 1;
place = (681, 34);
place = (681, 34);
type = Stem;
},
{
horizontal = 1;
place = (776, 29);
place = (776, 29);
type = Stem;
},
{
place = (-42, 576);
place = (-42, 576);
type = Stem;
}
);
layerId = m01;
shapes = (
{
closed = 1;
nodes = (
(503,0,l),
(534,0,l),
(385,715,l),
(351,715,l),
(-42,0,l),
(-10,0,l),
(124,244,l),
(452,244,l)
);
},
{
closed = 1;
nodes = (
(306,575,ls),
(331,621,o),
(362,681,o),
(362,681,c),
(363,681,l),
(363,681,o),
(377,611,o),
(384,577,cs),
(447,271,l),
(139,271,l)
);
},
{
closed = 1;
nodes = (
(267,776,l),
(490,776,l),
(495,805,l),
(273,805,l)
);
}
);
width = 593;
}
);
note = Amacron;
unicode = 256;
},
{
glyphname = Abreve;
kernLeft = A;
kernRight = A;
layers = (
{
hints = (
{
horizontal = 1;
place = (0, 21);
target = up;
type = BottomGhost;
},
{
horizontal = 1;
place = (244, 27);
place = (244, 27);
type = Stem;
},
{
horizontal = 1;
place = (681, 34);
place = (681, 34);
type = Stem;
},
{
horizontal = 1;
place = (763, 28);
place = (763, 28);
type = Stem;
},
{
place = (270, 27);
place = (270, 27);
type = Stem;
}
);
layerId = m01;
shapes = (
{
closed = 1;
nodes = (
(503,0,l),
(534,0,l),
(385,715,l),
(351,715,l),
(-42,0,l),
(-10,0,l),
(124,244,l),
(452,244,l)
);
},
{
closed = 1;
nodes = (
(306,575,ls),
(331,621,o),
(362,681,o),
(362,681,c),
(363,681,l),
(363,681,o),
(377,611,o),
(384,577,cs),
(447,271,l),
(139,271,l)
);
},
{
closed = 1;
nodes = (
(444,763,o),
(491,802,o),
(503,858,c),
(475,858,l),
(462,817,o),
(430,791,o),
(380,791,cs),
(330,791,o),
(302,818,o),
(297,858,c),
(270,858,l),
(272,802,o),
(313,763,o),
(379,763,cs)
);
}
);
width = 593;
}
);
note = Abreve;
unicode = 258;
},
